{
.appVersion = "3151";
.formatVersion = 3;
DisplayStrings = (
"Vielleicht ist der Höhepunkt des luxuriösen Badens im Seifenbad erreicht, eine Anwendung von heißem Wasser und Seife auf den ganzen Körper, unmittelbar gefolgt von einem kalten Sprung oder einem Schwammbad. Ein Bad ist sofort eine Notwendigkeit und ein Luxus, und um die größte Anzahl von Vorteilen einschließlich erhöhter Gesundheit, Appetit, Energie und guten Geistern zu erhalten, ist das Seifenbad das wirksamste und außerdem das angenehmste und am wenigsten probierende zu der schwachen oder überempfindlichen Verfassung."
);
axes = (
{
name = Weight;
tag = wght;
}
);
classes = (
{
automatic = 1;
code = "A Aacute Abreve Acircumflex Adieresis Agrave Amacron Aogonek Aring Atilde AE B C Cacute Ccaron Ccedilla Cdotaccent D Eth Dcaron Dcroat E Eacute Ecaron Ecircumflex Edieresis Edotaccent Egrave Emacron Eogonek F G Gbreve Gcommaaccent Gdotaccent H Hbar I IJ Iacute Icircumflex Idieresis Idotaccent Igrave Imacron Iogonek J Jacute K Kcommaaccent L Lacute Lcaron Lcommaaccent Lslash M N Nacute Ncaron Ncommaaccent Ntilde Eng O Oacute Ocircumflex Odieresis Ograve Ohungarumlaut Omacron Oslash Otilde OE P Thorn Q R Racute Rcaron Rcommaaccent S Sacute Scaron Scedilla Scommaaccent Germandbls T Tcaron Tcommaaccent U Uacute Ubreve Ucircumflex Udieresis Ugrave Uhungarumlaut Umacron Uogonek Uring V W Wacute Wcircumflex Wdieresis Wgrave X Y Yacute Ycircumflex Ydieresis Ygrave Z Zacute Zcaron Zdotaccent";
name = Uppercase;
}
);
customParameters = (
{
name = fsType;
value = (
);
},
{
name = "Use Typo Metrics";
value = 1;
},
{
name = "Axis Mappings";
value = {
wght = {
300 = 90;
400 = 108;
500 = 132;
700 = 162;
800 = 180;
};
};
},
{
name = "Variable Font Origin";
value = "4683CC84-822E-4D29-9A51-72FC3DB48604";
}
);
date = "2024-05-11 08:03:57 +0000";
familyName = "Funnel Sans";
featurePrefixes = (
{
automatic = 1;
code = "languagesystem DFLT dflt;

languagesystem latn dflt;
languagesystem latn AZE;
languagesystem latn CRT;

glyphs = (
{
glyphname = A;
kernLeft = A;
kernRight = A;
lastChange = "2024-06-01 10:13:19 +0000";
layers = (
{
anchors = (
{
name = bottom;
pos = (300,0);
},
{
name = ogonek;
pos = (669,0);
},
{
name = top;
pos = (503,810);
}
);
background = {
anchors = (
{
name = bottom;
pos = (300,0);
},
{
name = ogonek;
pos = (669,0);
},
{
name = top;
pos = (503,810);
}
);
shapes = (
{
closed = 1;
nodes = (
(25,0,l),
(185,256,l),
(542,256,l),
(573,0,l),
(669,0,l),
(557,810,l),
(449,810,l),
(-69,0,l)
);
},
{
closed = 1;
nodes = (
(479,726,l),
(483,726,l),
(532,340,l),
(237,340,l)
);
}
);
};
layerId = "4683CC84-822E-4D29-9A51-72FC3DB48604";
shapes = (
{
closed = 1;
nodes = (
(31,0,l),
(191,256,l),
(548,256,l),
(579,0,l),
(669,0,l),
(557,810,l),
(449,810,l),
(-69,0,l)
);
},
{
closed = 1;
nodes = (
(485,726,l),
(489,726,l),
(538,340,l),
(243,340,l)
);
}
);
userData = {
com.schriftgestaltung.Glyphs.category = Letter;
com.schriftgestaltung.Glyphs.script = latin;
com.schriftgestaltung.Glyphs.subCategory = Uppercase;
};
width = 750;
},
{
anchors = (
{
name = bottom;
pos = (330,0);
},
{
name = ogonek;
pos = (729,0);
},
{
name = top;
pos = (535,810);
}
);
background = {
anchors = (
{
name = bottom;
pos = (330,0);
},
{
name = ogonek;
pos = (729,0);
},
{
name = top;
pos = (535,810);
}
);
shapes = (
{
closed = 1;
nodes = (
(117,0,l),
(232,184,l),
(520,184,l),
(537,0,l),
(729,0,l),
(627,810,l),
(442,810,l),
(-69,0,l)
);
},
{
closed = 1;
nodes = (
(482,594,l),
(486,594,l),
(509,340,l),
(326,340,l)
);
}
);
};
layerId = "FB8C5FF2-3B42-4CDF-AA26-B13980DDC748";
shapes = (
{
closed = 1;
nodes = (
(125,0,l),
(240,184,l),
(528,184,l),
(545,0,l),
(729,0,l),
(627,810,l),
(442,810,l),
(-69,0,l)
);
},
{
closed = 1;
nodes = (
(490,594,l),
(494,594,l),
(517,340,l),
(334,340,l)
);
}
);
userData = {
com.schriftgestaltung.Glyphs.category = Letter;
com.schriftgestaltung.Glyphs.script = latin;
com.schriftgestaltung.Glyphs.subCategory = Uppercase;
};
width = 810;
}
);
unicode = 65;
},
{
glyphname = AE;
kernLeft = A;
kernRight = A;
lastChange = "2024-06-01 10:13:14 +0000";
layers = (
{
anchors = (
{
name = bottom;
pos = (505,0);
},
{
name = top;
pos = (714,810);
}
);
background = {
anchors = (
{
name = bottom;
pos = (505,0);
},
{
name = top;
pos = (714,810);
}
);
shapes = (
{
closed = 1;
nodes = (
(25,0,l),
(185,256,l),
(542,256,l),
(573,0,l),
(1049,0,l),
(1038,82,l),
(657,82,l),
(617,380,l),
(982,380,l),
(972,460,l),
(606,460,l),
(569,728,l),
(960,728,l),
(949,810,l),
(449,810,l),
(-69,0,l)
);
},
{
closed = 1;
nodes = (
(479,726,l),
(483,726,l),
(532,340,l),
(237,340,l)
);
}
);
};
guides = (
{
angle = 111.189;
pos = (587,405);
}
);
layerId = "4683CC84-822E-4D29-9A51-72FC3DB48604";
shapes = (
{
closed = 1;
nodes = (
(31,0,l),
(191,256,l),
(548,256,l),
(579,0,l),
(1049,0,l),
(1038,82,l),
(657,82,l),
(617,380,l),
(982,380,l),
(972,460,l),
(606,460,l),
(569,728,l),
(960,728,l),
(949,810,l),
(449,810,l),
(-69,0,l)
);
},
{
closed = 1;
nodes = (
(485,726,l),
(489,726,l),
(538,340,l),
(243,340,l)
);
}
);
userData = {
com.schriftgestaltung.Glyphs.category = Letter;
com.schriftgestaltung.Glyphs.script = latin;
com.schriftgestaltung.Glyphs.subCategory = Uppercase;
};
width = 1100;
},
{
anchors = (
{
name = bottom;
pos = (509,0);
},
{
name = top;
pos = (722,810);
}
);
background = {
anchors = (
{
name = bottom;
pos = (509,0);
},
{
name = top;
pos = (722,810);
}
);
shapes = (
{
closed = 1;
nodes = (
(117,0,l),
(232,184,l),
(520,184,l),
(537,0,l),
(1059,0,l),
(1041,164,l),
(708,164,l),
(686,340,l),
(991,340,l),
(974,500,l),
(666,500,l),
(648,646,l),
(991,646,l),
(973,810,l),
(442,810,l),
(-69,0,l)
);
},
{
closed = 1;
nodes = (
(482,594,l),
(486,594,l),
(509,340,l),
(326,340,l)
);
}
);
};
layerId = "FB8C5FF2-3B42-4CDF-AA26-B13980DDC748";
shapes = (
{
closed = 1;
nodes = (
(125,0,l),
(240,184,l),
(528,184,l),
(545,0,l),
(1059,0,l),
(1041,164,l),
(708,164,l),
(686,340,l),
(991,340,l),
(974,500,l),
(666,500,l),
(648,646,l),
(991,646,l),
(973,810,l),
(442,810,l),
(-69,0,l)
);
},
{
closed = 1;
nodes = (
(490,594,l),
(494,594,l),
(517,340,l),
(334,340,l)
);
}
);
userData = {
com.schriftgestaltung.Glyphs.category = Letter;
com.schriftgestaltung.Glyphs.script = latin;
com.schriftgestaltung.Glyphs.subCategory = Uppercase;
};
width = 1110;
}
);
unicode = 198;
},
{
glyphname = B;
kernLeft = B;
kernRight = B;
lastChange = "2024-05-08 15:16:00 +0000";
layers = (
{
anchors = (
{
name = bottom;
pos = (310,0);
},
{
name = center;
pos = (411,405);
},
{
name = top;
pos = (512,810);
}
);
background = {
anchors = (
{
name = bottom;
pos = (310,0);
},
{
name = center;
pos = (411,405);
},
{
name = top;
pos = (512,810);
}
);
shapes = (
{
closed = 1;
nodes = (
(394,0,ls),
(530,0,o),
(657,88,o),
(692,227,cs),
(725,359,o),
(645,421,o),
(570,429,c),
(571,433,l),
(646,448,o),
(726,509,o),
(750,603,cs),
(782,731,o),
(707,810,o),
(580,810,cs),
(241,810,l),
(39,0,l)
);
},
{
closed = 1;
nodes = (
(226,380,l),
(470,380,ls),
(570,380,o),
(625,330,o),
(601,232,cs),
(576,134,o),
(494,82,o),
(394,82,cs),
(151,82,l)
);
},
{
closed = 1;
nodes = (
(313,728,l),
(549,728,ls),
(632,728,o),
(677,680,o),
(655,594,cs),
(634,508,o),
(565,460,o),
(482,460,cs),
(246,460,l)
);
}
);
};
layerId = "4683CC84-822E-4D29-9A51-72FC3DB48604";
name = "Light alt";
shapes = (
{
closed = 1;
nodes = (
(404,0,ls),
(542,0,o),
(657,88,o),
(690,218,cs),
(718,330,o),
(669,415,o),
(570,425,c),
(571,429,l),
(659,446,o),
(725,509,o),
(747,594,cs),
(777,716,o),
(700,810,o),
(570,810,cs),
(241,810,l),
(39,0,l)
);
},
{
closed = 1;
nodes = (
(226,380,l),
(470,380,ls),
(575,380,o),
(624,325,o),
(601,232,cs),
(577,139,o),
(499,82,o),
(394,82,cs),
(151,82,l)
);
},
{
closed = 1;
nodes = (
(313,728,l),
(549,728,ls),
(635,728,o),
(675,678,o),
(655,594,cs),
(634,511,o),
(569,460,o),
(482,460,cs),
(246,460,l)
);
}
);
userData = {
com.schriftgestaltung.Glyphs.category = Letter;
com.schriftgestaltung.Glyphs.script = latin;
com.schriftgestaltung.Glyphs.subCategory = Uppercase;
};
width = 770;
},
{
anchors = (
{
name = bottom;
pos = (320,0);
},
{
name = center;
pos = (421,405);
},
{
name = top;
pos = (522,810);
}
);
background = {
anchors = (
{
name = bottom;
pos = (320,0);
},
{
name = center;
pos = (421,405);
},
{
name = top;
pos = (522,810);
}
);
shapes = (
{
closed = 1;
nodes = (
(409,0,ls),
(558,0,o),
(690,93,o),
(726,235,cs),
(752,340,o),
(708,409,o),
(634,434,c),
(635,438,l),
(704,464,o),
(762,524,o),
(781,599,cs),
(813,727,o),
(733,810,o),
(595,810,cs),
(217,810,l),
(15,0,l)
);
},
{
closed = 1;
nodes = (
(285,346,l),
(470,346,ls),
(530,346,o),
(561,314,o),
(547,256,cs),
(532,197,o),
(484,164,o),
(424,164,cs),
(240,164,l)
);
},
{
closed = 1;
nodes = (
(360,646,l),
(531,646,ls),
(578,646,o),
(601,618,o),
(589,570,cs),
(577,522,o),
(540,494,o),
(493,494,cs),
(322,494,l)
);
}
);
};
guides = (
{
pos = (447,164);
},
{
angle = 180;
pos = (323,646);
},
{
pos = (323,500);
},
{
angle = 180;
pos = (327,340);
},
{
angle = 90;
pos = (252,252);
}
);
layerId = "FB8C5FF2-3B42-4CDF-AA26-B13980DDC748";
name = "Bold alt";
shapes = (
{
closed = 1;
nodes = (
(419,0,ls),
(567,0,o),
(689,91,o),
(723,226,cs),
(747,324,o),
(714,400,o),
(634,430,c),
(635,434,l),
(709,462,o),
(760,518,o),
(778,590,cs),
(809,714,o),
(725,810,o),
(585,810,cs),
(217,810,l),
(15,0,l)
);
},
{
closed = 1;
nodes = (
(285,346,l),
(470,346,ls),
(533,346,o),
(562,312,o),
(547,256,cs),
(533,199,o),
(485,164,o),
(424,164,cs),
(240,164,l)
);
},
{
closed = 1;
nodes = (
(360,646,l),
(531,646,ls),
(579,646,o),
(601,617,o),
(589,570,cs),
(577,523,o),
(541,494,o),
(493,494,cs),
(322,494,l)
);
}
);
userData = {
com.schriftgestaltung.Glyphs.category = Letter;
com.schriftgestaltung.Glyphs.script = latin;
com.schriftgestaltung.Glyphs.subCategory = Uppercase;
};
width = 790;
}
);
unicode = 66;
},
{
glyphname = C;
kernLeft = C;
kernRight = C;
lastChange = "2024-05-08 15:44:12 +0000";
layers = (
{
anchors = (
{
name = bottom;
pos = (359,0);
},
{
name = top;
pos = (561,810);
}
);
background = {
anchors = (
{
name = bottom;
pos = (359,0);
},
{
name = top;
pos = (561,810);
}
);
shapes = (
{
closed = 1;
nodes = (
(524,-12,o),
(669,85,o),
(735,240,c),
(639,240,l),
(596,138,o),
(497,72,o),
(377,72,cs),
(210,72,o),
(136,204,o),
(186,405,cs),
(236,606,o),
(376,738,o),
(543,738,cs),
(663,738,o),
(730,672,o),
(721,570,c),
(817,570,l),
(829,725,o),
(732,822,o),
(564,822,cs),
(345,822,o),
(154,653,o),
(92,405,cs),
(30,157,o),
(137,-12,o),
(356,-12,cs)
);
}
);
};
layerId = "4683CC84-822E-4D29-9A51-72FC3DB48604";
shapes = (
{
closed = 1;
nodes = (
(530,-12,o),
(672,83,o),
(739,240,c),
(639,240,l),
(595,137,o),
(495,72,o),
(377,72,cs),
(211,72,o),
(136,203,o),
(186,405,cs),
(236,608,o),
(376,738,o),
(543,738,cs),
(661,738,o),
(734,673,o),
(725,570,c),
(813,570,l),
(825,723,o),
(725,822,o),
(554,822,cs),
(340,822,o),
(155,658,o),
(94,414,cs),
(31,162,o),
(142,-12,o),
(366,-12,cs)
);
}
);
userData = {
com.schriftgestaltung.Glyphs.category = Letter;
com.schriftgestaltung.Glyphs.script = latin;
com.schriftgestaltung.Glyphs.subCategory = Uppercase;
};
width = 790;
},
{
anchors = (
{
name = bottom;
pos = (358,0);
},
{
name = top;
pos = (560,810);
}
);
background = {
anchors = (
{
name = bottom;
pos = (358,0);
},
{
name = top;
pos = (560,810);
}
);
shapes = (
{
closed = 1;
nodes = (
(540,-16,o),
(707,101,o),
(775,279,c),
(583,279,l),
(554,203,o),
(478,150,o),
(395,150,cs),
(277,150,o),
(225,250,o),
(264,403,cs),
(302,556,o),
(404,656,o),
(522,656,cs),
(605,656,o),
(654,603,o),
(645,527,c),
(837,527,l),
(858,705,o),
(749,822,o),
(563,822,cs),
(337,822,o),
(142,653,o),
(80,403,cs),
(17,153,o),
(128,-16,o),
(354,-16,cs)
);
}
);
};
layerId = "FB8C5FF2-3B42-4CDF-AA26-B13980DDC748";
shapes = (
{
closed = 1;
nodes = (
(547,-16,o),
(710,98,o),
(779,279,c),
(583,279,l),
(554,202,o),
(477,150,o),
(395,150,cs),
(277,150,o),
(225,250,o),
(264,403,cs),
(302,556,o),
(404,656,o),
(522,656,cs),
(604,656,o),
(658,604,o),
(649,527,c),
(833,527,l),
(854,702,o),
(742,822,o),
(553,822,cs),
(328,822,o),
(144,663,o),
(82,413,cs),
(19,163,o),
(137,-16,o),
(364,-16,cs)
);
}
);
userData = {
com.schriftgestaltung.Glyphs.category = Letter;
com.schriftgestaltung.Glyphs.script = latin;
com.schriftgestaltung.Glyphs.subCategory = Uppercase;
};
width = 800;
}
);
unicode = 67;
},
{
glyphname = D;
kernLeft = B;
kernRight = D;
lastChange = "2024-05-08 16:16:33 +0000";
layers = (
{
anchors = (
{
name = bottom;
pos = (313,0);
},
{
name = center;
pos = (186,405);
},
{
name = top;
pos = (515,810);
}
);
background = {
anchors = (
{
name = bottom;
pos = (313,0);
},
{
name = center;
pos = (186,405);
},
{
name = top;
pos = (515,810);
}
);
shapes = (
{
closed = 1;
nodes = (
(282,0,ls),
(525,0,o),
(720,157,o),
(782,405,cs),
(845,655,o),
(728,810,o),
(484,810,cs),
(241,810,l),
(39,0,l)
);
},
{
closed = 1;
nodes = (
(313,728,l),
(464,728,ls),
(662,728,o),
(737,600,o),
(688,405,cs),
(640,211,o),
(500,82,o),
(302,82,cs),
(151,82,l)
);
}
);
};
layerId = "4683CC84-822E-4D29-9A51-72FC3DB48604";
shapes = (
{
closed = 1;
nodes = (
(292,0,ls),
(534,0,o),
(716,145,o),
(777,387,cs),
(841,642,o),
(721,810,o),
(474,810,cs),
(241,810,l),
(39,0,l)
);
},
{
closed = 1;
nodes = (
(313,728,l),
(464,728,ls),
(655,728,o),
(739,606,o),
(688,405,cs),
(638,203,o),
(493,82,o),
(302,82,cs),
(151,82,l)
);
}
);
userData = {
com.schriftgestaltung.Glyphs.category = Letter;
com.schriftgestaltung.Glyphs.script = latin;
com.schriftgestaltung.Glyphs.subCategory = Uppercase;
};
width = 810;
},
{
anchors = (
{
name = bottom;
pos = (271,0);
},
{
name = center;
pos = (208,405);
},
{
name = top;
pos = (473,810);
}
);
background = {
anchors = (
{
name = bottom;
pos = (271,0);
},
{
name = center;
pos = (208,405);
},
{
name = top;
pos = (473,810);
}
);
shapes = (
{
closed = 1;
nodes = (
(310,0,ls),
(550,0,o),
(750,157,o),
(812,405,cs),
(875,655,o),
(753,810,o),
(512,810,cs),
(217,810,l),
(15,0,l)
);
},
{
closed = 1;
nodes = (
(361,650,l),
(472,650,ls),
(611,650,o),
(665,552,o),
(628,405,cs),
(592,259,o),
(489,160,o),
(350,160,cs),
(239,160,l)
);
}
);
};
layerId = "FB8C5FF2-3B42-4CDF-AA26-B13980DDC748";
shapes = (
{
closed = 1;
nodes = (
(320,0,ls),
(562,0,o),
(746,141,o),
(808,386,cs),
(870,632,o),
(747,810,o),
(502,810,cs),
(217,810,l),
(15,0,l)
);
},
{
closed = 1;
nodes = (
(361,650,l),
(472,650,ls),
(607,650,o),
(666,557,o),
(628,405,cs),
(591,254,o),
(484,160,o),
(350,160,cs),
(239,160,l)
);
}
);
userData = {
com.schriftgestaltung.Glyphs.category = Letter;
com.schriftgestaltung.Glyphs.script = latin;
com.schriftgestaltung.Glyphs.subCategory = Uppercase;
};
width = 840;
}
);
unicode = 68;
},
{
glyphname = Eth;
kernLeft = B;
kernRight = D;
lastChange = "2024-05-08 16:16:55 +0000";
layers = (
{
background = {
shapes = (
{
closed = 1;
nodes = (
(312,0,ls),
(555,0,o),
(750,157,o),
(812,405,cs),
(875,655,o),
(758,810,o),
(514,810,cs),
(271,810,l),
(183,457,l),
(69,457,l),
(51,383,l),
(165,383,l),
(69,0,l)
);
},
{
closed = 1;
nodes = (
(257,383,l),
(495,383,l),
(513,457,l),
(275,457,l),
(343,728,l),
(494,728,ls),
(692,728,o),
(767,600,o),
(718,405,cs),
(670,211,o),
(530,82,o),
(332,82,cs),
(181,82,l)
);
}
);
};
layerId = "4683CC84-822E-4D29-9A51-72FC3DB48604";
shapes = (
{
closed = 1;
nodes = (
(322,0,ls),
(564,0,o),
(746,145,o),
(807,387,cs),
(871,642,o),
(751,810,o),
(504,810,cs),
(271,810,l),
(183,457,l),
(69,457,l),
(51,383,l),
(165,383,l),
(69,0,l)
);
},
{
closed = 1;
nodes = (
(256,383,l),
(495,383,l),
(513,457,l),
(275,457,l),
(343,728,l),
(494,728,ls),
(685,728,o),
(769,606,o),
(718,405,cs),
(668,203,o),
(523,82,o),
(332,82,cs),
(181,82,l)
);
}
);
userData = {
com.schriftgestaltung.Glyphs.category = Letter;
com.schriftgestaltung.Glyphs.script = latin;
com.schriftgestaltung.Glyphs.subCategory = Uppercase;
};
width = 840;
},
{
background = {
shapes = (
{
closed = 1;
nodes = (
(340,0,ls),
(580,0,o),
(780,157,o),
(842,405,cs),
(905,655,o),
(783,810,o),
(542,810,cs),
(247,810,l),
(169,495,l),
(79,495,l),
(41,345,l),
(131,345,l),
(45,0,l)
);
},
{
closed = 1;
nodes = (
(315,345,l),
(487,345,l),
(525,495,l),
(353,495,l),
(391,650,l),
(502,650,ls),
(641,650,o),
(695,552,o),
(658,405,cs),
(622,259,o),
(519,160,o),
(380,160,cs),
(269,160,l)
);
}
);
};
layerId = "FB8C5FF2-3B42-4CDF-AA26-B13980DDC748";
shapes = (
{
closed = 1;
nodes = (
(350,0,ls),
(592,0,o),
(777,141,o),
(838,386,cs),
(900,633,o),
(777,810,o),
(532,810,cs),
(247,810,l),
(168,495,l),
(79,495,l),
(41,345,l),
(131,345,l),
(45,0,l)
);
},
{
closed = 1;
nodes = (
(315,345,l),
(487,345,l),
(525,495,l),
(352,495,l),
(391,650,l),
(502,650,ls),
(637,650,o),
(696,557,o),
(658,405,cs),
(621,254,o),
(514,160,o),
(380,160,cs),
(269,160,l)
);
}
);
userData = {
com.schriftgestaltung.Glyphs.category = Letter;
com.schriftgestaltung.Glyphs.script = latin;
com.schriftgestaltung.Glyphs.subCategory = Uppercase;
};
width = 870;
}
);
unicode = 208;
},
{
glyphname = E;
kernLeft = B;
kernRight = E;
lastChange = "2024-05-08 14:48:24 +0000";
layers = (
{
anchors = (
{
name = bottom;
pos = (292,0);
},
{
name = ogonek;
pos = (545,0);
},
{
name = top;
pos = (494,810);
},
{
name = topleft;
pos = (127,810);
}
);
background = {
anchors = (
{
name = bottom;
pos = (292,0);
},
{
name = ogonek;
pos = (545,0);
},
{
name = top;
pos = (494,810);
},
{
name = topleft;
pos = (127,810);
}
);
shapes = (
{
closed = 1;
nodes = (
(565,82,l),
(151,82,l),
(226,380,l),
(620,380,l),
(640,460,l),
(246,460,l),
(313,728,l),
(727,728,l),
(747,810,l),
(241,810,l),
(39,0,l),
(545,0,l)
);
}
);
};
layerId = "4683CC84-822E-4D29-9A51-72FC3DB48604";
shapes = (
{
closed = 1;
nodes = (
(565,82,l),
(151,82,l),
(226,380,l),
(620,380,l),
(640,460,l),
(246,460,l),
(313,728,l),
(727,728,l),
(747,810,l),
(241,810,l),
(39,0,l),
(545,0,l)
);
}
);
userData = {
com.schriftgestaltung.Glyphs.category = Letter;
com.schriftgestaltung.Glyphs.script = latin;
com.schriftgestaltung.Glyphs.subCategory = Uppercase;
};
width = 680;
},
{
anchors = (
{
name = bottom;
pos = (290,0);
},
{
name = ogonek;
pos = (565,0);
},
{
name = top;
pos = (492,810);
},
{
name = topleft;
pos = (127,810);
}
);
background = {
anchors = (
{
name = bottom;
pos = (290,0);
},
{
name = ogonek;
pos = (565,0);
},
{
name = top;
pos = (492,810);
},
{
name = topleft;
pos = (127,810);
}
);
shapes = (
{
closed = 1;
nodes = (
(606,164,l),
(240,164,l),
(284,340,l),
(618,340,l),
(658,500,l),
(324,500,l),
(360,646,l),
(726,646,l),
(767,810,l),
(217,810,l),
(15,0,l),
(565,0,l)
);
}
);
};
layerId = "FB8C5FF2-3B42-4CDF-AA26-B13980DDC748";
shapes = (
{
closed = 1;
nodes = (
(606,164,l),
(240,164,l),
(284,340,l),
(618,340,l),
(658,500,l),
(324,500,l),
(360,646,l),
(726,646,l),
(767,810,l),
(217,810,l),
(15,0,l),
(565,0,l)
);
}
);
userData = {
com.schriftgestaltung.Glyphs.category = Letter;
com.schriftgestaltung.Glyphs.script = latin;
com.schriftgestaltung.Glyphs.subCategory = Uppercase;
};
width = 700;
}
);
unicode = 69;
},
{
glyphname = F;
kernLeft = B;
kernRight = F;
lastChange = "2024-05-08 14:48:24 +0000";
layers = (
{
anchors = (
{
name = bottom;
pos = (245,0);
},
{
name = top;
pos = (447,810);
}
);
background = {
anchors = (
{
name = bottom;
pos = (245,0);
},
{
name = top;
pos = (447,810);
}
);
shapes = (
{
closed = 1;
nodes = (
(223,367,l),
(606,367,l),
(626,449,l),
(243,449,l),
(313,728,l),
(717,728,l),
(737,810,l),
(241,810,l),
(39,0,l),
(131,0,l)
);
}
);
};
layerId = "4683CC84-822E-4D29-9A51-72FC3DB48604";
shapes = (
{
closed = 1;
nodes = (
(223,367,l),
(606,367,l),
(626,449,l),
(243,449,l),
(313,728,l),
(717,728,l),
(737,810,l),
(241,810,l),
(39,0,l),
(131,0,l)
);
}
);
userData = {
com.schriftgestaltung.Glyphs.category = Letter;
com.schriftgestaltung.Glyphs.script = latin;
com.schriftgestaltung.Glyphs.subCategory = Uppercase;
};
width = 640;
},
{
anchors = (
{
name = bottom;
pos = (107,0);
},
{
name = top;
pos = (487,810);
}
);
background = {
anchors = (
{
name = bottom;
pos = (107,0);
},
{
name = top;
pos = (487,810);
}
);
shapes = (
{
closed = 1;
nodes = (
(280,326,l),
(603,326,l),
(644,490,l),
(321,490,l),
(360,646,l),
(716,646,l),
(757,810,l),
(217,810,l),
(15,0,l),
(199,0,l)
);
}
);
};
layerId = "FB8C5FF2-3B42-4CDF-AA26-B13980DDC748";
shapes = (
{
closed = 1;
nodes = (
(280,326,l),
(603,326,l),
(644,490,l),
(321,490,l),
(360,646,l),
(716,646,l),
(757,810,l),
(217,810,l),
(15,0,l),
(199,0,l)
);
}
);
userData = {
com.schriftgestaltung.Glyphs.category = Letter;
com.schriftgestaltung.Glyphs.script = latin;
com.schriftgestaltung.Glyphs.subCategory = Uppercase;
};
width = 660;
}
);
unicode = 70;
},
{
glyphname = G;
kernLeft = C;
kernRight = G;
lastChange = "2024-05-08 15:43:56 +0000";
layers = (
{
anchors = (
{
name = bottom;
pos = (355,0);
},
{
name = top;
pos = (562,810);
}
);
background = {
anchors = (
{
name = bottom;
pos = (355,0);
},
{
name = top;
pos = (562,810);
}
);
shapes = (
{
closed = 1;
nodes = (
(432,-12,o),
(508,21,o),
(561,86,c),
(565,86,l),
(544,0,l),
(711,0,l),
(789,312,ls),
(810,396,o),
(778,438,o),
(694,438,cs),
(463,438,l),
(427,294,l),
(604,294,l),
(598,270,ls),
(581,199,o),
(497,144,o),
(404,144,cs),
(280,144,o),
(224,246,o),
(263,402,cs),
(302,555,o),
(406,656,o),
(524,656,cs),
(609,656,o),
(660,604,o),
(651,527,c),
(843,527,l),
(864,704,o),
(754,822,o),
(565,822,cs),
(339,822,o),
(142,651,o),
(80,404,cs),
(19,161,o),
(127,-12,o),
(339,-12,cs)
);
}
);
};
guides = (
{
angle = 270;
pos = (621,267);
},
{
pos = (685,570);
}
);
layerId = "FB8C5FF2-3B42-4CDF-AA26-B13980DDC748";
name = "Bold alt";
shapes = (
{
closed = 1;
nodes = (
(442,-12,o),
(508,21,o),
(561,86,c),
(565,86,l),
(544,0,l),
(711,0,l),
(789,312,ls),
(810,396,o),
(778,438,o),
(694,438,cs),
(463,438,l),
(427,294,l),
(604,294,l),
(598,270,ls),
(580,199,o),
(497,144,o),
(404,144,cs),
(280,144,o),
(224,246,o),
(263,402,cs),
(302,555,o),
(406,656,o),
(524,656,cs),
(609,656,o),
(664,604,o),
(655,527,c),
(839,527,l),
(860,704,o),
(744,822,o),
(555,822,cs),
(329,822,o),
(144,660,o),
(82,413,cs),
(21,170,o),
(137,-12,o),
(349,-12,cs)
);
}
);
userData = {
com.schriftgestaltung.Glyphs.category = Letter;
com.schriftgestaltung.Glyphs.script = latin;
com.schriftgestaltung.Glyphs.subCategory = Uppercase;
};
width = 860;
},
{
anchors = (
{
name = bottom;
pos = (355,0);
},
{
name = top;
pos = (542,810);
}
);
background = {
anchors = (
{
name = bottom;
pos = (355,0);
},
{
name = top;
pos = (542,810);
}
);
shapes = (
{
closed = 1;
nodes = (
(466,-12,o),
(571,47,o),
(620,126,c),
(624,126,l),
(593,0,l),
(681,0,l),
(759,312,ls),
(773,369,o),
(748,402,o),
(691,402,cs),
(447,402,l),
(427,322,l),
(671,322,l),
(657,264,ls),
(629,153,o),
(510,67,o),
(377,67,cs),
(216,67,o),
(137,210,o),
(186,405,cs),
(236,605,o),
(383,738,o),
(551,738,cs),
(671,738,o),
(736,672,o),
(727,570,c),
(823,570,l),
(835,725,o),
(740,822,o),
(572,822,cs),
(353,822,o),
(154,653,o),
(92,405,cs),
(31,160,o),
(136,-12,o),
(347,-12,cs)
);
}
);
};
layerId = "4683CC84-822E-4D29-9A51-72FC3DB48604";
name = "Light alt";
shapes = (
{
closed = 1;
nodes = (
(469,-12,o),
(566,39,o),
(620,126,c),
(624,126,l),
(593,0,l),
(681,0,l),
(759,312,ls),
(773,369,o),
(748,402,o),
(691,402,cs),
(447,402,l),
(427,322,l),
(671,322,l),
(657,264,ls),
(630,154,o),
(507,67,o),
(377,67,cs),
(214,67,o),
(136,205,o),
(186,405,cs),
(236,605,o),
(382,738,o),
(551,738,cs),
(668,738,o),
(740,674,o),
(731,570,c),
(819,570,l),
(831,724,o),
(733,822,o),
(562,822,cs),
(345,822,o),
(155,656,o),
(94,414,cs),
(32,169,o),
(144,-12,o),
(357,-12,cs)
);
}
);
userData = {
com.schriftgestaltung.Glyphs.category = Letter;
com.schriftgestaltung.Glyphs.script = latin;
com.schriftgestaltung.Glyphs.subCategory = Uppercase;
};
width = 840;
}
);
unicode = 71;
},
{
glyphname = H;
kernLeft = B;
kernRight = H;
lastChange = "2024-05-08 14:48:24 +0000";
layers = (
{
anchors = (
{
name = bottom;
pos = (350,0);
},
{
name = center;
pos = (451,405);
},
{
name = top;
pos = (552,810);
},
{
name = topleft;
pos = (147,810);
}
);
background = {
anchors = (
{
name = bottom;
pos = (350,0);
},
{
name = center;
pos = (451,405);
},
{
name = top;
pos = (552,810);
},
{
name = topleft;
pos = (147,810);
}
);
shapes = (
{
closed = 1;
nodes = (
(131,0,l),
(226,379,l),
(664,379,l),
(569,0,l),
(661,0,l),
(863,810,l),
(771,810,l),
(684,461,l),
(246,461,l),
(333,810,l),
(241,810,l),
(39,0,l)
);
}
);
};
guides = (
{
pos = (425,461);
}
);
layerId = "4683CC84-822E-4D29-9A51-72FC3DB48604";
shapes = (
{
closed = 1;
nodes = (
(131,0,l),
(226,379,l),
(664,379,l),
(569,0,l),
(661,0,l),
(863,810,l),
(771,810,l),
(684,461,l),
(246,461,l),
(333,810,l),
(241,810,l),
(39,0,l)
);
}
);
userData = {
com.schriftgestaltung.Glyphs.category = Letter;
com.schriftgestaltung.Glyphs.script = latin;
com.schriftgestaltung.Glyphs.subCategory = Uppercase;
};
width = 850;
},
{
anchors = (
{
name = bottom;
pos = (360,0);
},
{
name = center;
pos = (461,405);
},
{
name = top;
pos = (562,810);
},
{
name = topleft;
pos = (127,810);
}
);
background = {
anchors = (
{
name = bottom;
pos = (360,0);
},
{
name = center;
pos = (461,405);
},
{
name = top;
pos = (562,810);
},
{
name = topleft;
pos = (127,810);
}
);
shapes = (
{
closed = 1;
nodes = (
(199,0,l),
(283,338,l),
(605,338,l),
(521,0,l),
(705,0,l),
(907,810,l),
(723,810,l),
(646,502,l),
(324,502,l),
(401,810,l),
(217,810,l),
(15,0,l)
);
}
);
};
guides = (
{
pos = (121,405);
},
{
pos = (213,420);
}
);
layerId = "FB8C5FF2-3B42-4CDF-AA26-B13980DDC748";
shapes = (
{
closed = 1;
nodes = (
(199,0,l),
(283,338,l),
(605,338,l),
(521,0,l),
(705,0,l),
(907,810,l),
(723,810,l),
(646,502,l),
(324,502,l),
(401,810,l),
(217,810,l),
(15,0,l)
);
}
);
userData = {
com.schriftgestaltung.Glyphs.category = Letter;
com.schriftgestaltung.Glyphs.script = latin;
com.schriftgestaltung.Glyphs.subCategory = Uppercase;
};
width = 870;
}
);
unicode = 72;
},
{
glyphname = Hbar;
kernLeft = B;
kernRight = H;
lastChange = "2024-05-08 14:48:24 +0000";
layers = (
{
background = {
shapes = (
{
closed = 1;
nodes = (
(161,0,l),
(248,349,l),
(686,349,l),
(599,0,l),
(691,0,l),
(848,627,l),
(962,627,l),
(978,693,l),
(864,693,l),
(893,810,l),
(801,810,l),
(772,693,l),
(334,693,l),
(363,810,l),
(271,810,l),
(242,693,l),
(128,693,l),
(112,627,l),
(226,627,l),
(69,0,l)
);
},
{
closed = 1;
nodes = (
(318,627,l),
(756,627,l),
(707,431,l),
(269,431,l)
);
}
);
};
layerId = "4683CC84-822E-4D29-9A51-72FC3DB48604";
shapes = (
{
closed = 1;
nodes = (
(161,0,l),
(248,349,l),
(686,349,l),
(599,0,l),
(691,0,l),
(848,627,l),
(962,627,l),
(978,693,l),
(864,693,l),
(893,810,l),
(801,810,l),
(772,693,l),
(334,693,l),
(363,810,l),
(271,810,l),
(242,693,l),
(128,693,l),
(112,627,l),
(226,627,l),
(69,0,l)
);
},
{
closed = 1;
nodes = (
(318,627,l),
(756,627,l),
(707,431,l),
(269,431,l)
);
}
);
userData = {
com.schriftgestaltung.Glyphs.category = Letter;
com.schriftgestaltung.Glyphs.script = latin;
com.schriftgestaltung.Glyphs.subCategory = Uppercase;
};
width = 910;
},
{
background = {
shapes = (
{
closed = 1;
nodes = (
(229,0,l),
(306,308,l),
(628,308,l),
(551,0,l),
(735,0,l),
(886,603,l),
(976,603,l),
(1004,717,l),
(914,717,l),
(937,810,l),
(753,810,l),
(730,717,l),
(408,717,l),
(431,810,l),
(247,810,l),
(224,717,l),
(134,717,l),
(106,603,l),
(196,603,l),
(45,0,l)
);
},
{
closed = 1;
nodes = (
(380,603,l),
(702,603,l),
(669,472,l),
(347,472,l)
);
}
);
};
layerId = "FB8C5FF2-3B42-4CDF-AA26-B13980DDC748";
shapes = (
{
closed = 1;
nodes = (
(229,0,l),
(306,308,l),
(628,308,l),
(551,0,l),
(735,0,l),
(886,603,l),
(976,603,l),
(1004,717,l),
(914,717,l),
(937,810,l),
(753,810,l),
(730,717,l),
(408,717,l),
(431,810,l),
(247,810,l),
(224,717,l),
(134,717,l),
(106,603,l),
(196,603,l),
(45,0,l)
);
},
{
closed = 1;
nodes = (
(380,603,l),
(702,603,l),
(669,472,l),
(347,472,l)
);
}
);
userData = {
com.schriftgestaltung.Glyphs.category = Letter;
com.schriftgestaltung.Glyphs.script = latin;
com.schriftgestaltung.Glyphs.subCategory = Uppercase;
};
width = 930;
}
);
unicode = 294;
},
{
glyphname = I;
kernLeft = B;
kernRight = H;
lastChange = "2024-05-08 14:48:24 +0000";
layers = (
{
anchors = (
{
name = bottom;
pos = (85,0);
},
{
name = ogonek;
pos = (131,0);
},
{
name = top;
pos = (287,810);
},
{
name = topleft;
pos = (127,810);
}
);
background = {
anchors = (
{
name = bottom;
pos = (85,0);
},
{
name = ogonek;
pos = (131,0);
},
{
name = top;
pos = (287,810);
},
{
name = topleft;
pos = (127,810);
}
);
shapes = (
{
closed = 1;
nodes = (
(131,0,l),
(333,810,l),
(241,810,l),
(39,0,l)
);
}
);
};
layerId = "4683CC84-822E-4D29-9A51-72FC3DB48604";
shapes = (
{
closed = 1;
nodes = (
(131,0,l),
(333,810,l),
(241,810,l),
(39,0,l)
);
}
);
userData = {
com.schriftgestaltung.Glyphs.category = Letter;
com.schriftgestaltung.Glyphs.glyph.leftMetricsKey = H;
com.schriftgestaltung.Glyphs.glyph.rightMetricsKey = H;
com.schriftgestaltung.Glyphs.script = latin;
com.schriftgestaltung.Glyphs.subCategory = Uppercase;
};
width = 320;
},
{
anchors = (
{
name = bottom;
pos = (110,0);
},
{
name = ogonek;
pos = (202,0);
},
{
name = top;
pos = (312,810);
},
{
name = topleft;
pos = (127,810);
}
);
background = {
anchors = (
{
name = bottom;
pos = (110,0);
},
{
name = ogonek;
pos = (202,0);
},
{
name = top;
pos = (312,810);
},
{
name = topleft;
pos = (127,810);
}
);
shapes = (
{
closed = 1;
nodes = (
(202,0,l),
(404,810,l),
(220,810,l),
(18,0,l)
);
}
);
};
layerId = "FB8C5FF2-3B42-4CDF-AA26-B13980DDC748";
shapes = (
{
closed = 1;
nodes = (
(202,0,l),
(404,810,l),
(220,810,l),
(18,0,l)
);
}
);
userData = {
com.schriftgestaltung.Glyphs.category = Letter;
com.schriftgestaltung.Glyphs.glyph.leftMetricsKey = H;
com.schriftgestaltung.Glyphs.glyph.rightMetricsKey = H;
com.schriftgestaltung.Glyphs.script = latin;
com.schriftgestaltung.Glyphs.subCategory = Uppercase;
};
width = 370;
}
);
unicode = 73;
},
{
glyphname = J;
kernLeft = B;
kernRight = H;
lastChange = "2024-05-30 11:40:34 +0000";
layers = (
{
anchors = (
{
name = bottom;
pos = (134,0);
},
{
name = top;
pos = (407,810);
}
);
background = {
anchors = (
{
name = bottom;
pos = (89,-180);
},
{
name = top;
pos = (407,810);
}
);
shapes = (
{
closed = 1;
nodes = (
(116,-180,ls),
(172,-180,o),
(214,-150,o),
(229,-90,cs),
(453,810,l),
(361,810,l),
(134,-100,l),
(-10,-100,l),
(-30,-180,l)
);
}
);
};
guides = (
{
angle = 76.0237;
pos = (341,360);
}
);
layerId = "4683CC84-822E-4D29-9A51-72FC3DB48604";
shapes = (
{
closed = 1;
nodes = (
(161,0,ls),
(217,0,o),
(259,29,o),
(274,90,cs),
(453,810,l),
(361,810,l),
(180,82,l),
(-24,82,l),
(-45,0,l)
);
}
);
userData = {
com.schriftgestaltung.Glyphs.category = Letter;
com.schriftgestaltung.Glyphs.script = latin;
com.schriftgestaltung.Glyphs.subCategory = Uppercase;
};
width = 440;
},
{
anchors = (
{
name = bottom;
pos = (230,0);
},
{
name = top;
pos = (432,810);
}
);
background = {
anchors = (
{
name = bottom;
pos = (230,0);
},
{
name = top;
pos = (432,810);
}
);
shapes = (
{
closed = 1;
nodes = (
(126,-210,ls),
(219,-210,o),
(281,-164,o),
(306,-66,cs),
(524,810,l),
(340,810,l),
(123,-60,l),
(3,-60,l),
(-34,-210,l)
);
}
);
};
guides = (
{
angle = 76.0253;
pos = (415,372);
},
{
angle = 255.9638;
pos = (258,480);
}
);
layerId = "FB8C5FF2-3B42-4CDF-AA26-B13980DDC748";
shapes = (
{
closed = 1;
nodes = (
(178,0,ls),
(271,0,o),
(334,46,o),
(358,144,cs),
(524,810,l),
(340,810,l),
(179,164,l),
(-1,164,l),
(-42,0,l)
);
}
);
userData = {
com.schriftgestaltung.Glyphs.category = Letter;
com.schriftgestaltung.Glyphs.script = latin;
com.schriftgestaltung.Glyphs.subCategory = Uppercase;
};
width = 490;
},
{
anchors = (
{
name = bottom;
pos = (110,0);
},
{
name = top;
pos = (312,810);
}
);
associatedMasterId = "FB8C5FF2-3B42-4CDF-AA26-B13980DDC748";
background = {
anchors = (
{
name = bottom;
pos = (110,0);
},
{
name = top;
pos = (312,810);
}
);
shapes = (
{
closed = 1;
nodes = (
(6,-210,ls),
(99,-210,o),
(161,-164,o),
(186,-66,cs),
(404,810,l),
(220,810,l),
(3,-60,l),
(-117,-60,l),
(-154,-210,l)
);
}
);
};
guides = (
{
angle = 76.0253;
pos = (295,372);
}
);
layerId = "5E95EB7E-9295-4D79-929D-10D717A58FE7";
name = "30 May 24 at 13:33";
shapes = (
{
closed = 1;
nodes = (
(6,-210,ls),
(99,-210,o),
(161,-164,o),
(186,-66,cs),
(404,810,l),
(220,810,l),
(3,-60,l),
(-117,-60,l),
(-154,-210,l)
);
}
);
userData = {
com.schriftgestaltung.Glyphs.category = Letter;
com.schriftgestaltung.Glyphs.script = latin;
com.schriftgestaltung.Glyphs.subCategory = Uppercase;
};
width = 370;
},
{
anchors = (
{
name = bottom;
pos = (-31,-180);
},
{
name = top;
pos = (287,810);
}
);
associatedMasterId = "4683CC84-822E-4D29-9A51-72FC3DB48604";
background = {
anchors = (
{
name = bottom;
pos = (-31,-180);
},
{
name = top;
pos = (287,810);
}
);
shapes = (
{
closed = 1;
nodes = (
(-4,-180,ls),
(52,-180,o),
(94,-150,o),
(109,-90,cs),
(333,810,l),
(241,810,l),
(14,-100,l),
(-130,-100,l),
(-150,-180,l)
);
}
);
};
layerId = "D1595DC6-46AB-4D10-83AF-C8DD340C1A14";
name = "30 May 24 at 13:33";
shapes = (
{
closed = 1;
nodes = (
(-4,-180,ls),
(52,-180,o),
(94,-150,o),
(109,-90,cs),
(333,810,l),
(241,810,l),
(14,-100,l),
(-130,-100,l),
(-150,-180,l)
);
}
);
userData = {
com.schriftgestaltung.Glyphs.category = Letter;
com.schriftgestaltung.Glyphs.script = latin;
com.schriftgestaltung.Glyphs.subCategory = Uppercase;
};
width = 320;
}
);
unicode = 74;
},
{
glyphname = K;
kernLeft = B;
kernRight = K;
lastChange = "2024-05-08 15:46:02 +0000";
layers = (
{
anchors = (
{
name = bottom;
pos = (325,0);
},
{
name = top;
pos = (527,810);
}
);
background = {
anchors = (
{
name = bottom;
pos = (325,0);
},
{
name = top;
pos = (527,810);
}
);
shapes = (
{
closed = 1;
nodes = (
(199,0,l),
(271,289,l),
(359,353,l),
(500,0,l),
(717,0,l),
(524,479,l),
(911,810,l),
(689,810,l),
(327,498,l),
(323,498,l),
(401,810,l),
(217,810,l),
(15,0,l)
);
}
);
};
guides = (
{
angle = 123.247;
pos = (792,0);
},
{
angle = -56.962;
pos = (575,0);
},
{
angle = 75.9638;
pos = (362,654);
}
);
layerId = "FB8C5FF2-3B42-4CDF-AA26-B13980DDC748";
shapes = (
{
closed = 1;
nodes = (
(199,0,l),
(271,289,l),
(359,353,l),
(510,0,l),
(717,0,l),
(517,454,l),
(911,810,l),
(689,810,l),
(322,478,l),
(318,478,l),
(401,810,l),
(217,810,l),
(15,0,l)
);
}
);
userData = {
com.schriftgestaltung.Glyphs.category = Letter;
com.schriftgestaltung.Glyphs.script = latin;
com.schriftgestaltung.Glyphs.subCategory = Uppercase;
};
width = 800;
},
{
anchors = (
{
name = bottom;
pos = (329,0);
},
{
name = top;
pos = (525,810);
}
);
background = {
anchors = (
{
name = bottom;
pos = (329,0);
},
{
name = top;
pos = (525,810);
}
);
shapes = (
{
closed = 1;
nodes = (
(131,0,l),
(210,317,l),
(320,396,l),
(527,0,l),
(641,0,l),
(402,458,l),
(831,810,l),
(717,810,l),
(236,406,l),
(232,406,l),
(333,810,l),
(241,810,l),
(39,0,l)
);
}
);
};
guides = (
{
angle = 226.959;
pos = (590,810);
},
{
angle = 127.4226;
pos = (601,0);
}
);
layerId = "4683CC84-822E-4D29-9A51-72FC3DB48604";
name = Light;
shapes = (
{
closed = 1;
nodes = (
(131,0,l),
(210,317,l),
(320,396,l),
(539,0,l),
(641,0,l),
(397,441,l),
(831,810,l),
(717,810,l),
(236,406,l),
(232,406,l),
(333,810,l),
(241,810,l),
(39,0,l)
);
}
);
userData = {
com.schriftgestaltung.Glyphs.category = Letter;
com.schriftgestaltung.Glyphs.script = latin;
com.schriftgestaltung.Glyphs.subCategory = Uppercase;
};
width = 740;
}
);
unicode = 75;
},
{
glyphname = L;
kernLeft = B;
kernRight = L;
lastChange = "2024-05-30 11:40:26 +0000";
layers = (
{
anchors = (
{
name = bottom;
pos = (287,0);
},
{
name = center;
pos = (186,405);
},
{
name = top;
pos = (287,810);
},
{
name = topright;
pos = (333,810);
}
);
background = {
anchors = (
{
name = bottom;
pos = (287,0);
},
{
name = center;
pos = (186,405);
},
{
name = top;
pos = (287,810);
},
{
name = topright;
pos = (333,810);
}
);
shapes = (
{
closed = 1;
nodes = (
(535,0,l),
(556,83,l),
(152,83,l),
(333,810,l),
(241,810,l),
(39,0,l)
);
}
);
};
layerId = "4683CC84-822E-4D29-9A51-72FC3DB48604";
shapes = (
{
closed = 1;
nodes = (
(535,0,l),
(556,82,l),
(152,82,l),
(333,810,l),
(241,810,l),
(39,0,l)
);
}
);
userData = {
com.schriftgestaltung.Glyphs.category = Letter;
com.schriftgestaltung.Glyphs.script = latin;
com.schriftgestaltung.Glyphs.subCategory = Uppercase;
};
width = 640;
},
{
anchors = (
{
name = bottom;
pos = (291,0);
},
{
name = center;
pos = (208,405);
},
{
name = top;
pos = (309,810);
},
{
name = topright;
pos = (401,810);
}
);
background = {
anchors = (
{
name = bottom;
pos = (291,0);
},
{
name = center;
pos = (208,405);
},
{
name = top;
pos = (309,810);
},
{
name = topright;
pos = (401,810);
}
);
shapes = (
{
closed = 1;
nodes = (
(565,0,l),
(606,164,l),
(240,164,l),
(401,810,l),
(217,810,l),
(15,0,l)
);
}
);
};
layerId = "FB8C5FF2-3B42-4CDF-AA26-B13980DDC748";
shapes = (
{
closed = 1;
nodes = (
(565,0,l),
(606,164,l),
(240,164,l),
(401,810,l),
(217,810,l),
(15,0,l)
);
}
);
userData = {
com.schriftgestaltung.Glyphs.category = Letter;
com.schriftgestaltung.Glyphs.script = latin;
com.schriftgestaltung.Glyphs.subCategory = Uppercase;
};
width = 670;
}
);
unicode = 76;
},
{
glyphname = Lslash;
kernLeft = B;
kernRight = L;
lastChange = "2024-05-08 14:48:24 +0000";
layers = (
{
background = {
shapes = (
{
closed = 1;
nodes = (
(565,0,l),
(586,83,l),
(182,83,l),
(253,370,l),
(523,498,l),
(544,580,l),
(274,452,l),
(363,810,l),
(271,810,l),
(169,402,l),
(40,341,l),
(20,259,l),
(149,320,l),
(69,0,l)
);
}
);
};
guides = (
{
angle = 28.2854;
pos = (30,261);
}
);
layerId = "4683CC84-822E-4D29-9A51-72FC3DB48604";
shapes = (
{
closed = 1;
nodes = (
(565,0,l),
(586,83,l),
(182,83,l),
(253,370,l),
(523,498,l),
(544,580,l),
(274,452,l),
(363,810,l),
(271,810,l),
(169,402,l),
(40,341,l),
(20,259,l),
(149,320,l),
(69,0,l)
);
}
);
userData = {
com.schriftgestaltung.Glyphs.category = Letter;
com.schriftgestaltung.Glyphs.script = latin;
com.schriftgestaltung.Glyphs.subCategory = Uppercase;
};
width = 670;
},
{
background = {
shapes = (
{
closed = 1;
nodes = (
(595,0,l),
(636,164,l),
(270,164,l),
(321,368,l),
(516,461,l),
(556,619,l),
(360,526,l),
(431,810,l),
(247,810,l),
(152,427,l),
(50,379,l),
(10,221,l),
(112,269,l),
(45,0,l)
);
}
);
};
guides = (
{
angle = 28.2854;
pos = (253,345);
}
);
layerId = "FB8C5FF2-3B42-4CDF-AA26-B13980DDC748";
shapes = (
{
closed = 1;
nodes = (
(595,0,l),
(636,164,l),
(270,164,l),
(321,368,l),
(516,461,l),
(556,619,l),
(360,526,l),
(431,810,l),
(247,810,l),
(152,427,l),
(50,379,l),
(10,221,l),
(112,269,l),
(45,0,l)
);
}
);
userData = {
com.schriftgestaltung.Glyphs.category = Letter;
com.schriftgestaltung.Glyphs.script = latin;
com.schriftgestaltung.Glyphs.subCategory = Uppercase;
};
width = 700;
}
);
unicode = 321;
},
{
glyphname = M;
kernLeft = B;
kernRight = H;
lastChange = "2024-05-08 15:18:11 +0000";
layers = (
{
anchors = (
{
name = bottom;
pos = (437,0);
},
{
name = top;
pos = (643,810);
}
);
background = {
anchors = (
{
name = bottom;
pos = (437,0);
},
{
name = top;
pos = (643,810);
}
);
shapes = (
{
closed = 1;
nodes = (
(125,0,l),
(302,710,l),
(306,710,l),
(399,0,l),
(475,0,l),
(922,709,l),
(926,709,l),
(749,0,l),
(841,0,l),
(1043,810,l),
(906,810,l),
(474,130,l),
(470,130,l),
(379,810,l),
(241,810,l),
(39,0,l)
);
}
);
};
layerId = "4683CC84-822E-4D29-9A51-72FC3DB48604";
shapes = (
{
closed = 1;
nodes = (
(125,0,l),
(302,710,l),
(306,710,l),
(399,0,l),
(475,0,l),
(922,709,l),
(926,709,l),
(749,0,l),
(841,0,l),
(1043,810,l),
(900,810,l),
(468,130,l),
(464,130,l),
(373,810,l),
(241,810,l),
(39,0,l)
);
}
);
userData = {
com.schriftgestaltung.Glyphs.category = Letter;
com.schriftgestaltung.Glyphs.script = latin;
com.schriftgestaltung.Glyphs.subCategory = Uppercase;
};
width = 1030;
},
{
anchors = (
{
name = bottom;
pos = (455,0);
},
{
name = top;
pos = (657,810);
}
);
background = {
anchors = (
{
name = bottom;
pos = (455,0);
},
{
name = top;
pos = (657,810);
}
);
shapes = (
{
closed = 1;
nodes = (
(187,0,l),
(321,538,l),
(325,538,l),
(372,0,l),
(526,0,l),
(841,538,l),
(845,538,l),
(711,0,l),
(895,0,l),
(1097,810,l),
(856,810,l),
(524,266,l),
(520,266,l),
(459,810,l),
(217,810,l),
(15,0,l)
);
}
);
};
layerId = "FB8C5FF2-3B42-4CDF-AA26-B13980DDC748";
shapes = (
{
closed = 1;
nodes = (
(187,0,l),
(321,538,l),
(325,538,l),
(372,0,l),
(526,0,l),
(841,538,l),
(845,538,l),
(711,0,l),
(895,0,l),
(1097,810,l),
(848,810,l),
(516,266,l),
(512,266,l),
(451,810,l),
(217,810,l),
(15,0,l)
);
}
);
userData = {
com.schriftgestaltung.Glyphs.category = Letter;
com.schriftgestaltung.Glyphs.script = latin;
com.schriftgestaltung.Glyphs.subCategory = Uppercase;
};
width = 1060;
}
);
unicode = 77;
},
{
glyphname = N;
kernLeft = B;
kernRight = H;
lastChange = "2024-05-08 15:18:43 +0000";
layers = (
{
anchors = (
{
name = bottom;
pos = (355,0);
},
{
name = top;
pos = (577,810);
}
);
background = {
anchors = (
{
name = bottom;
pos = (355,0);
},
{
name = top;
pos = (577,810);
}
);
shapes = (
{
closed = 1;
nodes = (
(893,810,l),
(807,810,l),
(637,129,l),
(633,129,l),
(347,810,l),
(241,810,l),
(39,0,l),
(125,0,l),
(295,681,l),
(299,681,l),
(585,0,l),
(691,0,l)
);
}
);
};
layerId = "4683CC84-822E-4D29-9A51-72FC3DB48604";
shapes = (
{
closed = 1;
nodes = (
(893,810,l),
(807,810,l),
(635,119,l),
(631,119,l),
(337,810,l),
(241,810,l),
(39,0,l),
(125,0,l),
(297,691,l),
(301,691,l),
(595,0,l),
(691,0,l)
);
}
);
userData = {
com.schriftgestaltung.Glyphs.category = Letter;
com.schriftgestaltung.Glyphs.script = latin;
com.schriftgestaltung.Glyphs.subCategory = Uppercase;
};
width = 880;
},
{
anchors = (
{
name = bottom;
pos = (370,0);
},
{
name = top;
pos = (572,810);
}
);
background = {
anchors = (
{
name = bottom;
pos = (370,0);
},
{
name = top;
pos = (572,810);
}
);
shapes = (
{
closed = 1;
nodes = (
(927,810,l),
(755,810,l),
(624,285,l),
(620,285,l),
(401,810,l),
(217,810,l),
(15,0,l),
(187,0,l),
(314,510,l),
(318,510,l),
(531,0,l),
(725,0,l)
);
}
);
};
guides = (
{
angle = 76.0166;
pos = (251,255);
},
{
angle = 255.9894;
pos = (690,548);
}
);
layerId = "FB8C5FF2-3B42-4CDF-AA26-B13980DDC748";
shapes = (
{
closed = 1;
nodes = (
(927,810,l),
(755,810,l),
(621,273,l),
(617,273,l),
(393,810,l),
(217,810,l),
(15,0,l),
(187,0,l),
(317,522,l),
(321,522,l),
(539,0,l),
(725,0,l)
);
}
);
userData = {
com.schriftgestaltung.Glyphs.category = Letter;
com.schriftgestaltung.Glyphs.script = latin;
com.schriftgestaltung.Glyphs.subCategory = Uppercase;
};
width = 890;
}
);
unicode = 78;
},
{
glyphname = Eng;
kernLeft = B;
kernRight = H;
lastChange = "2024-05-08 16:17:53 +0000";
layers = (
{
anchors = (
{
name = bottom;
pos = (320,-180);
},
{
name = top;
pos = (577,810);
}
);
background = {
anchors = (
{
name = bottom;
pos = (320,-180);
},
{
name = top;
pos = (577,810);
}
);
shapes = (
{
closed = 1;
nodes = (
(556,-180,ls),
(612,-180,o),
(654,-150,o),
(669,-90,cs),
(893,810,l),
(807,810,l),
(645,159,l),
(641,159,l),
(347,810,l),
(241,810,l),
(39,0,l),
(125,0,l),
(295,681,l),
(299,681,l),
(605,0,l),
(580,-100,l),
(431,-100,l),
(411,-180,l)
);
}
);
};
layerId = "4683CC84-822E-4D29-9A51-72FC3DB48604";
shapes = (
{
closed = 1;
nodes = (
(556,-180,ls),
(612,-180,o),
(654,-150,o),
(669,-90,cs),
(893,810,l),
(807,810,l),
(645,159,l),
(641,159,l),
(337,810,l),
(241,810,l),
(39,0,l),
(125,0,l),
(297,691,l),
(301,691,l),
(611,27,l),
(580,-100,l),
(431,-100,l),
(411,-180,l)
);
}
);
userData = {
com.schriftgestaltung.Glyphs.category = Letter;
com.schriftgestaltung.Glyphs.script = latin;
com.schriftgestaltung.Glyphs.subCategory = Uppercase;
};
width = 880;
},
{
anchors = (
{
name = bottom;
pos = (318,-210);
},
{
name = top;
pos = (578,810);
}
);
background = {
anchors = (
{
name = bottom;
pos = (318,-210);
},
{
name = top;
pos = (578,810);
}
);
shapes = (
{
closed = 1;
nodes = (
(529,-210,ls),
(622,-210,o),
(684,-164,o),
(709,-66,cs),
(927,810,l),
(755,810,l),
(632,315,l),
(628,315,l),
(401,810,l),
(217,810,l),
(15,0,l),
(187,0,l),
(314,510,l),
(318,510,l),
(553,0,l),
(538,-60,l),
(406,-60,l),
(369,-210,l)
);
}
);
};
layerId = "FB8C5FF2-3B42-4CDF-AA26-B13980DDC748";
shapes = (
{
closed = 1;
nodes = (
(529,-210,ls),
(622,-210,o),
(684,-164,o),
(709,-66,cs),
(927,810,l),
(755,810,l),
(629,305,l),
(625,305,l),
(393,810,l),
(217,810,l),
(15,0,l),
(187,0,l),
(317,522,l),
(321,522,l),
(556,13,l),
(538,-60,l),
(406,-60,l),
(369,-210,l)
);
}
);
userData = {
com.schriftgestaltung.Glyphs.category = Letter;
com.schriftgestaltung.Glyphs.script = latin;
com.schriftgestaltung.Glyphs.subCategory = Uppercase;
};
width = 890;
}
);
unicode = 330;
},
{
glyphname = O;
kernLeft = C;
kernRight = D;
lastChange = "2024-05-08 15:19:25 +0000";
layers = (
{
anchors = (
{
name = bottom;
pos = (360,0);
},
{
name = center;
pos = (461,405);
},
{
name = ogonek;
pos = (432,0);
},
{
name = top;
pos = (562,810);
},
{
name = topleft;
pos = (127,810);
},
{
name = topright;
pos = (997,810);
}
);
background = {
anchors = (
{
name = bottom;
pos = (360,0);
},
{
name = center;
pos = (461,405);
},
{
name = ogonek;
pos = (432,0);
},
{
name = top;
pos = (562,810);
},
{
name = topleft;
pos = (127,810);
},
{
name = topright;
pos = (997,810);
}
);
shapes = (
{
closed = 1;
nodes = (
(570,-12,o),
(766,150,o),
(830,405,cs),
(894,662,o),
(779,822,o),
(565,822,cs),
(352,822,o),
(156,660,o),
(92,405,cs),
(29,151,o),
(144,-12,o),
(357,-12,cs)
);
},
{
closed = 1;
nodes = (
(210,72,o),
(136,204,o),
(186,405,cs),
(237,607,o),
(376,738,o),
(544,738,cs),
(712,738,o),
(787,607,o),
(736,405,cs),
(686,204,o),
(546,72,o),
(378,72,cs)
);
}
);
};
layerId = "4683CC84-822E-4D29-9A51-72FC3DB48604";
shapes = (
{
closed = 1;
nodes = (
(582,-12,o),
(766,151,o),
(827,396,cs),
(891,650,o),
(781,822,o),
(555,822,cs),
(341,822,o),
(156,658,o),
(95,414,cs),
(33,162,o),
(144,-12,o),
(367,-12,cs)
);
},
{
closed = 1;
nodes = (
(210,72,o),
(135,203,o),
(186,405,cs),
(236,607,o),
(377,738,o),
(544,738,cs),
(711,738,o),
(786,608,o),
(736,405,cs),
(685,202,o),
(545,72,o),
(378,72,cs)
);
}
);
userData = {
com.schriftgestaltung.Glyphs.category = Letter;
com.schriftgestaltung.Glyphs.script = latin;
com.schriftgestaltung.Glyphs.subCategory = Uppercase;
};
width = 870;
},
{
anchors = (
{
name = bottom;
pos = (360,0);
},
{
name = center;
pos = (461,405);
},
{
name = ogonek;
pos = (710,10);
},
{
name = top;
pos = (562,810);
},
{
name = topleft;
pos = (147,810);
},
{
name = topright;
pos = (977,810);
}
);
background = {
anchors = (
{
name = bottom;
pos = (360,0);
},
{
name = center;
pos = (461,405);
},
{
name = ogonek;
pos = (710,10);
},
{
name = top;
pos = (562,810);
},
{
name = topleft;
pos = (147,810);
},
{
name = topright;
pos = (977,810);
}
);
shapes = (
{
closed = 1;
nodes = (
(577,-12,o),
(778,150,o),
(842,405,cs),
(906,662,o),
(786,822,o),
(565,822,cs),
(345,822,o),
(144,660,o),
(80,405,cs),
(17,151,o),
(137,-12,o),
(357,-12,cs)
);
},
{
closed = 1;
nodes = (
(279,152,o),
(226,252,o),
(264,405,cs),
(303,559,o),
(405,658,o),
(524,658,cs),
(643,658,o),
(697,559,o),
(658,405,cs),
(620,252,o),
(517,152,o),
(398,152,cs)
);
}
);
};
layerId = "FB8C5FF2-3B42-4CDF-AA26-B13980DDC748";
shapes = (
{
closed = 1;
nodes = (
(587,-12,o),
(778,145,o),
(839,395,cs),
(903,657,o),
(776,822,o),
(553,822,cs),
(335,822,o),
(143,664,o),
(83,415,cs),
(20,155,o),
(147,-12,o),
(370,-12,cs)
);
},
{
closed = 1;
nodes = (
(279,152,o),
(226,252,o),
(264,405,cs),
(302,558,o),
(405,658,o),
(524,658,cs),
(643,658,o),
(697,559,o),
(658,405,cs),
(620,252,o),
(517,152,o),
(398,152,cs)
);
}
);
userData = {
com.schriftgestaltung.Glyphs.category = Letter;
com.schriftgestaltung.Glyphs.script = latin;
com.schriftgestaltung.Glyphs.subCategory = Uppercase;
};
width = 870;
}
);
unicode = 79;
},
{
glyphname = Oslash;
kernLeft = C;
kernRight = D;
lastChange = "2024-05-08 16:19:01 +0000";
layers = (
{
anchors = (
{
name = bottom;
pos = (360,0);
},
{
name = top;
pos = (562,810);
}
);
background = {
anchors = (
{
name = bottom;
pos = (360,0);
},
{
name = top;
pos = (562,810);
}
);
shapes = (
{
closed = 1;
nodes = (
(162,53,l),
(211,11,o),
(277,-12,o),
(357,-12,cs),
(570,-12,o),
(766,150,o),
(830,405,cs),
(863,535,o),
(849,641,o),
(800,713,c),
(901,817,l),
(852,859,l),
(757,761,l),
(709,801,o),
(643,822,o),
(565,822,cs),
(352,822,o),
(156,660,o),
(92,405,cs),
(60,278,o),
(73,174,o),
(120,102,c),
(15,-7,l),
(64,-49,l)
);
},
{
closed = 1;
nodes = (
(166,234,o),
(163,312,o),
(186,405,cs),
(237,607,o),
(376,738,o),
(544,738,cs),
(605,738,o),
(653,721,o),
(688,690,c),
(193,177,l)
);
},
{
closed = 1;
nodes = (
(315,72,o),
(265,90,o),
(231,124,c),
(727,637,l),
(756,580,o),
(760,500,o),
(736,405,cs),
(686,204,o),
(546,72,o),
(378,72,cs)
);
}
);
};
guides = (
{
angle = -35.112;
pos = (742,838);
},
{
angle = -44.0244;
pos = (852,859);
}
);
layerId = "4683CC84-822E-4D29-9A51-72FC3DB48604";
shapes = (
{
closed = 1;
nodes = (
(166,57,l),
(215,13,o),
(283,-12,o),
(367,-12,cs),
(582,-12,o),
(766,151,o),
(827,396,cs),
(860,526,o),
(847,634,o),
(797,709,c),
(898,814,l),
(852,859,l),
(754,757,l),
(705,799,o),
(638,822,o),
(555,822,cs),
(341,822,o),
(156,658,o),
(95,414,cs),
(64,288,o),
(76,181,o),
(124,106,c),
(18,-4,l),
(64,-49,l)
);
},
{
closed = 1;
nodes = (
(166,234,o),
(162,312,o),
(186,405,cs),
(236,607,o),
(377,738,o),
(544,738,cs),
(605,738,o),
(653,721,o),
(688,689,c),
(193,177,l)
);
},
{
closed = 1;
nodes = (
(315,72,o),
(266,90,o),
(231,123,c),
(727,637,l),
(755,580,o),
(760,500,o),
(736,405,cs),
(685,202,o),
(545,72,o),
(378,72,cs)
);
}
);
userData = {
com.schriftgestaltung.Glyphs.category = Letter;
com.schriftgestaltung.Glyphs.script = latin;
com.schriftgestaltung.Glyphs.subCategory = Uppercase;
};
width = 870;
},
{
anchors = (
{
name = bottom;
pos = (360,0);
},
{
name = top;
pos = (562,810);
}
);
background = {
anchors = (
{
name = bottom;
pos = (360,0);
},
{
name = top;
pos = (562,810);
}
);
shapes = (
{
closed = 1;
nodes = (
(175,38,l),
(223,6,o),
(285,-12,o),
(357,-12,cs),
(577,-12,o),
(778,150,o),
(842,405,cs),
(873,528,o),
(861,629,o),
(817,700,c),
(894,781,l),
(817,847,l),
(746,773,l),
(698,805,o),
(637,822,o),
(565,822,cs),
(345,822,o),
(144,660,o),
(80,405,cs),
(50,285,o),
(62,183,o),
(106,111,c),
(26,29,l),
(104,-37,l)
);
},
{
closed = 1;
nodes = (
(242,298,o),
(244,348,o),
(258,405,cs),
(298,563,o),
(403,664,o),
(526,664,cs),
(563,664,o),
(594,655,o),
(618,637,c),
(252,258,l)
);
},
{
closed = 1;
nodes = (
(359,146,o),
(328,156,o),
(303,174,c),
(670,554,l),
(680,513,o),
(679,463,o),
(664,405,cs),
(625,248,o),
(519,146,o),
(396,146,cs)
);
}
);
};
guides = (
{
angle = 144.8658;
pos = (730,822);
},
{
angle = -44.003;
pos = (817,847);
}
);
layerId = "FB8C5FF2-3B42-4CDF-AA26-B13980DDC748";
shapes = (
{
closed = 1;
nodes = (
(180,43,l),
(230,7,o),
(294,-12,o),
(370,-12,cs),
(587,-12,o),
(778,145,o),
(839,395,cs),
(869,519,o),
(857,621,o),
(812,694,c),
(890,777,l),
(817,847,l),
(742,769,l),
(692,803,o),
(628,822,o),
(553,822,cs),
(335,822,o),
(143,664,o),
(83,415,cs),
(53,292,o),
(66,190,o),
(111,117,c),
(31,34,l),
(104,-37,l)
);
},
{
closed = 1;
nodes = (
(248,302,o),
(250,350,o),
(264,405,cs),
(302,558,o),
(405,658,o),
(524,658,cs),
(560,658,o),
(590,649,o),
(613,632,c),
(257,263,l)
);
},
{
closed = 1;
nodes = (
(362,152,o),
(331,161,o),
(308,179,c),
(665,549,l),
(674,510,o),
(672,461,o),
(658,405,cs),
(620,252,o),
(517,152,o),
(398,152,cs)
);
}
);
userData = {
com.schriftgestaltung.Glyphs.category = Letter;
com.schriftgestaltung.Glyphs.script = latin;
com.schriftgestaltung.Glyphs.subCategory = Uppercase;
};
width = 870;
}
);
unicode = 216;
},
{
glyphname = OE;
kernLeft = C;
kernRight = E;
lastChange = "2024-05-08 16:19:24 +0000";
layers = (
{
anchors = (
{
name = bottom;
pos = (700,0);
},
{
name = top;
pos = (902,810);
}
);
background = {
anchors = (
{
name = bottom;
pos = (700,0);
},
{
name = top;
pos = (902,810);
}
);
shapes = (
{
closed = 1;
nodes = (
(465,-12,o),
(569,47,o),
(618,126,c),
(622,126,l),
(591,0,l),
(1095,0,l),
(1115,82,l),
(701,82,l),
(776,380,l),
(1170,380,l),
(1190,460,l),
(796,460,l),
(863,728,l),
(1277,728,l),
(1297,810,l),
(793,810,l),
(762,684,l),
(758,684,l),
(748,763,o),
(673,822,o),
(555,822,cs),
(344,822,o),
(153,650,o),
(92,405,cs),
(31,160,o),
(136,-12,o),
(347,-12,cs)
);
},
{
closed = 1;
nodes = (
(216,67,o),
(137,210,o),
(186,405,cs),
(235,600,o),
(385,743,o),
(546,743,cs),
(678,743,o),
(753,657,o),
(725,546,cs),
(655,264,ls),
(627,153,o),
(509,67,o),
(377,67,cs)
);
}
);
};
layerId = "4683CC84-822E-4D29-9A51-72FC3DB48604";
shapes = (
{
closed = 1;
nodes = (
(468,-12,o),
(564,39,o),
(618,126,c),
(622,126,l),
(591,0,l),
(1095,0,l),
(1115,82,l),
(701,82,l),
(776,380,l),
(1170,380,l),
(1190,460,l),
(796,460,l),
(863,728,l),
(1277,728,l),
(1297,810,l),
(793,810,l),
(762,684,l),
(758,684,l),
(748,767,o),
(663,822,o),
(545,822,cs),
(340,822,o),
(154,653,o),
(94,414,cs),
(33,169,o),
(145,-12,o),
(357,-12,cs)
);
},
{
closed = 1;
nodes = (
(215,67,o),
(136,206,o),
(186,405,cs),
(236,604,o),
(384,743,o),
(546,743,cs),
(674,743,o),
(753,656,o),
(725,546,cs),
(655,264,ls),
(627,154,o),
(505,67,o),
(377,67,cs)
);
}
);
userData = {
com.schriftgestaltung.Glyphs.category = Letter;
com.schriftgestaltung.Glyphs.script = latin;
com.schriftgestaltung.Glyphs.subCategory = Uppercase;
};
width = 1230;
},
{
anchors = (
{
name = bottom;
pos = (710,0);
},
{
name = top;
pos = (912,810);
}
);
background = {
anchors = (
{
name = bottom;
pos = (710,0);
},
{
name = top;
pos = (912,810);
}
);
shapes = (
{
closed = 1;
nodes = (
(433,-12,o),
(510,21,o),
(565,86,c),
(569,86,l),
(548,0,l),
(1085,0,l),
(1126,164,l),
(760,164,l),
(804,340,l),
(1138,340,l),
(1178,500,l),
(844,500,l),
(880,646,l),
(1246,646,l),
(1287,810,l),
(750,810,l),
(728,722,l),
(724,722,l),
(702,787,o),
(641,820,o),
(547,820,cs),
(335,820,o),
(141,647,o),
(80,404,cs),
(19,161,o),
(127,-12,o),
(339,-12,cs)
);
},
{
closed = 1;
nodes = (
(280,144,o),
(224,246,o),
(264,406,cs),
(303,562,o),
(410,664,o),
(534,664,cs),
(628,664,o),
(687,609,o),
(669,538,cs),
(602,270,ls),
(585,199,o),
(498,144,o),
(404,144,cs)
);
}
);
};
layerId = "FB8C5FF2-3B42-4CDF-AA26-B13980DDC748";
shapes = (
{
closed = 1;
nodes = (
(439,-12,o),
(508,19,o),
(565,86,c),
(569,86,l),
(548,0,l),
(1085,0,l),
(1126,164,l),
(760,164,l),
(804,340,l),
(1138,340,l),
(1178,500,l),
(844,500,l),
(880,646,l),
(1246,646,l),
(1287,810,l),
(750,810,l),
(728,722,l),
(724,722,l),
(703,785,o),
(636,820,o),
(537,820,cs),
(330,820,o),
(142,652,o),
(82,413,cs),
(20,166,o),
(132,-12,o),
(349,-12,cs)
);
},
{
closed = 1;
nodes = (
(279,144,o),
(224,246,o),
(264,406,cs),
(304,564,o),
(409,664,o),
(534,664,cs),
(628,664,o),
(687,609,o),
(669,538,cs),
(602,270,ls),
(584,200,o),
(497,144,o),
(404,144,cs)
);
}
);
userData = {
com.schriftgestaltung.Glyphs.category = Letter;
com.schriftgestaltung.Glyphs.script = latin;
com.schriftgestaltung.Glyphs.subCategory = Uppercase;
};
width = 1220;
}
);
unicode = 338;
},
{
glyphname = P;
kernLeft = B;
kernRight = P;
lastChange = "2024-05-08 15:19:40 +0000";
layers = (
{
anchors = (
{
name = bottom;
pos = (85,0);
},
{
name = top;
pos = (482,810);
}
);
background = {
anchors = (
{
name = bottom;
pos = (85,0);
},
{
name = top;
pos = (482,810);
}
);
shapes = (
{
closed = 1;
nodes = (
(131,0,l),
(210,318,l),
(431,318,ls),
(591,318,o),
(716,413,o),
(754,564,cs),
(792,716,o),
(715,810,o),
(554,810,cs),
(241,810,l),
(39,0,l)
);
},
{
closed = 1;
nodes = (
(313,730,l),
(530,730,ls),
(637,730,o),
(687,666,o),
(662,564,cs),
(636,462,o),
(554,398,o),
(447,398,cs),
(230,398,l)
);
}
);
};
layerId = "4683CC84-822E-4D29-9A51-72FC3DB48604";
shapes = (
{
closed = 1;
nodes = (
(131,0,l),
(210,318,l),
(441,318,ls),
(601,318,o),
(714,404,o),
(752,555,cs),
(790,707,o),
(705,810,o),
(544,810,cs),
(241,810,l),
(39,0,l)
);
},
{
closed = 1;
nodes = (
(313,730,l),
(530,730,ls),
(637,730,o),
(687,666,o),
(662,564,cs),
(636,462,o),
(554,398,o),
(447,398,cs),
(230,398,l)
);
}
);
userData = {
com.schriftgestaltung.Glyphs.category = Letter;
com.schriftgestaltung.Glyphs.script = latin;
com.schriftgestaltung.Glyphs.subCategory = Uppercase;
};
width = 730;
},
{
anchors = (
{
name = bottom;
pos = (300,0);
},
{
name = top;
pos = (502,810);
}
);
background = {
anchors = (
{
name = bottom;
pos = (300,0);
},
{
name = top;
pos = (502,810);
}
);
shapes = (
{
closed = 1;
nodes = (
(199,0,l),
(271,288,l),
(438,288,ls),
(605,288,o),
(736,390,o),
(776,549,cs),
(816,709,o),
(736,810,o),
(568,810,cs),
(217,810,l),
(15,0,l)
);
},
{
closed = 1;
nodes = (
(360,646,l),
(515,646,ls),
(577,646,o),
(607,609,o),
(592,549,cs),
(577,489,o),
(529,452,o),
(467,452,cs),
(312,452,l)
);
}
);
};
layerId = "FB8C5FF2-3B42-4CDF-AA26-B13980DDC748";
shapes = (
{
closed = 1;
nodes = (
(199,0,l),
(271,288,l),
(448,288,ls),
(615,288,o),
(738,385,o),
(774,540,cs),
(812,704,o),
(726,810,o),
(558,810,cs),
(217,810,l),
(15,0,l)
);
},
{
closed = 1;
nodes = (
(360,646,l),
(515,646,ls),
(577,646,o),
(607,609,o),
(592,549,cs),
(577,489,o),
(529,452,o),
(467,452,cs),
(312,452,l)
);
}
);
userData = {
com.schriftgestaltung.Glyphs.category = Letter;
com.schriftgestaltung.Glyphs.script = latin;
com.schriftgestaltung.Glyphs.subCategory = Uppercase;
};
width = 750;
}
);
unicode = 80;
},
{
glyphname = Thorn;
kernLeft = B;
kernRight = D;
lastChange = "2024-05-11 08:02:14 +0000";
layers = (
{
anchors = (
{
name = bottom;
pos = (263,0);
},
{
name = top;
pos = (465,810);
}
);
background = {
anchors = (
{
name = bottom;
pos = (263,0);
},
{
name = top;
pos = (465,810);
}
);
shapes = (
{
closed = 1;
nodes = (
(131,0,l),
(173,168,l),
(394,168,ls),
(554,168,o),
(679,263,o),
(716,414,cs),
(754,566,o),
(678,660,o),
(517,660,cs),
(296,660,l),
(333,810,l),
(241,810,l),
(39,0,l)
);
},
{
closed = 1;
nodes = (
(276,580,l),
(493,580,ls),
(600,580,o),
(650,516,o),
(624,414,cs),
(599,312,o),
(517,248,o),
(410,248,cs),
(193,248,l)
);
}
);
};
layerId = "4683CC84-822E-4D29-9A51-72FC3DB48604";
shapes = (
{
closed = 1;
nodes = (
(131,0,l),
(173,168,l),
(404,168,ls),
(561,168,o),
(677,256,o),
(714,404,cs),
(752,559,o),
(671,660,o),
(507,660,cs),
(296,660,l),
(333,810,l),
(241,810,l),
(39,0,l)
);
},
{
closed = 1;
nodes = (
(276,580,l),
(493,580,ls),
(599,580,o),
(649,517,o),
(624,414,cs),
(598,311,o),
(516,248,o),
(410,248,cs),
(193,248,l)
);
}
);
userData = {
com.schriftgestaltung.Glyphs.category = Letter;
com.schriftgestaltung.Glyphs.script = latin;
com.schriftgestaltung.Glyphs.subCategory = Uppercase;
};
width = 730;
},
{
anchors = (
{
name = bottom;
pos = (263,0);
},
{
name = top;
pos = (465,810);
}
);
background = {
anchors = (
{
name = bottom;
pos = (263,0);
},
{
name = top;
pos = (465,810);
}
);
shapes = (
{
closed = 1;
nodes = (
(199,0,l),
(237,153,l),
(404,153,ls),
(571,153,o),
(703,255,o),
(742,414,cs),
(782,574,o),
(703,675,o),
(535,675,cs),
(368,675,l),
(401,810,l),
(217,810,l),
(15,0,l)
);
},
{
closed = 1;
nodes = (
(327,511,l),
(482,511,ls),
(544,511,o),
(573,474,o),
(558,414,cs),
(543,354,o),
(495,317,o),
(433,317,cs),
(278,317,l)
);
}
);
};
guides = (
{
angle = 90;
pos = (274,414);
}
);
layerId = "FB8C5FF2-3B42-4CDF-AA26-B13980DDC748";
shapes = (
{
closed = 1;
nodes = (
(199,0,l),
(237,153,l),
(414,153,ls),
(578,153,o),
(701,248,o),
(740,404,cs),
(780,568,o),
(695,675,o),
(525,675,cs),
(368,675,l),
(401,810,l),
(217,810,l),
(15,0,l)
);
},
{
closed = 1;
nodes = (
(327,511,l),
(482,511,ls),
(544,511,o),
(573,474,o),
(558,414,cs),
(543,354,o),
(495,317,o),
(433,317,cs),
(278,317,l)
);
}
);
userData = {
com.schriftgestaltung.Glyphs.category = Letter;
com.schriftgestaltung.Glyphs.script = latin;
com.schriftgestaltung.Glyphs.subCategory = Uppercase;
};
width = 750;
}
);
unicode = 222;
},
{
glyphname = Q;
kernLeft = C;
kernRight = D;
lastChange = "2024-05-08 15:20:07 +0000";
layers = (
{
anchors = (
{
name = bottom;
pos = (361,-180);
},
{
name = top;
pos = (562,810);
}
);
background = {
anchors = (
{
name = bottom;
pos = (361,-180);
},
{
name = top;
pos = (562,810);
}
);
shapes = (
{
closed = 1;
nodes = (
(584,-180,l),
(605,-96,l),
(382,-96,l),
(404,-9,l),
(598,12,o),
(771,169,o),
(830,405,cs),
(894,662,o),
(779,822,o),
(565,822,cs),
(352,822,o),
(156,660,o),
(92,405,cs),
(33,169,o),
(129,11,o),
(314,-10,c),
(294,-90,ls),
(279,-150,o),
(305,-180,o),
(361,-180,cs)
);
},
{
closed = 1;
nodes = (
(209,70,o),
(135,202,o),
(186,405,cs),
(237,609,o),
(377,740,o),
(545,740,cs),
(713,740,o),
(787,609,o),
(736,405,cs),
(685,202,o),
(545,70,o),
(377,70,cs)
);
}
);
};
layerId = "4683CC84-822E-4D29-9A51-72FC3DB48604";
shapes = (
{
closed = 1;
nodes = (
(584,-180,l),
(605,-96,l),
(382,-96,l),
(404,-10,l),
(603,7,o),
(769,165,o),
(827,396,cs),
(891,650,o),
(781,822,o),
(555,822,cs),
(341,822,o),
(156,658,o),
(95,414,cs),
(38,183,o),
(127,17,o),
(314,-9,c),
(294,-90,ls),
(279,-150,o),
(305,-180,o),
(361,-180,cs)
);
},
{
closed = 1;
nodes = (
(210,72,o),
(135,203,o),
(186,405,cs),
(236,607,o),
(377,738,o),
(544,738,cs),
(711,738,o),
(786,608,o),
(736,405,cs),
(685,202,o),
(545,72,o),
(378,72,cs)
);
}
);
userData = {
com.schriftgestaltung.Glyphs.category = Letter;
com.schriftgestaltung.Glyphs.script = latin;
com.schriftgestaltung.Glyphs.subCategory = Uppercase;
};
width = 870;
},
{
anchors = (
{
name = bottom;
pos = (361,0);
},
{
name = top;
pos = (563,810);
}
);
background = {
anchors = (
{
name = bottom;
pos = (361,0);
},
{
name = top;
pos = (563,810);
}
);
shapes = (
{
closed = 1;
nodes = (
(580,-210,l),
(617,-60,l),
(435,-60,l),
(450,-2,l),
(632,36,o),
(787,186,o),
(842,405,cs),
(906,662,o),
(786,822,o),
(565,822,cs),
(345,822,o),
(144,660,o),
(80,405,cs),
(26,187,o),
(106,36,o),
(270,-2,c),
(254,-66,ls),
(229,-164,o),
(269,-210,o),
(362,-210,cs)
);
},
{
closed = 1;
nodes = (
(279,152,o),
(226,252,o),
(264,405,cs),
(303,559,o),
(405,658,o),
(524,658,cs),
(643,658,o),
(697,559,o),
(658,405,cs),
(620,252,o),
(517,152,o),
(398,152,cs)
);
}
);
};
layerId = "FB8C5FF2-3B42-4CDF-AA26-B13980DDC748";
shapes = (
{
closed = 1;
nodes = (
(580,-210,l),
(617,-60,l),
(435,-60,l),
(449,-5,l),
(632,28,o),
(786,176,o),
(839,395,cs),
(903,657,o),
(776,822,o),
(553,822,cs),
(335,822,o),
(143,664,o),
(83,415,cs),
(30,197,o),
(111,44,o),
(271,1,c),
(254,-66,ls),
(229,-164,o),
(269,-210,o),
(362,-210,cs)
);
},
{
closed = 1;
nodes = (
(279,152,o),
(226,252,o),
(264,405,cs),
(302,558,o),
(405,658,o),
(524,658,cs),
(643,658,o),
(697,559,o),
(658,405,cs),
(620,252,o),
(517,152,o),
(398,152,cs)
);
}
);
userData = {
com.schriftgestaltung.Glyphs.category = Letter;
com.schriftgestaltung.Glyphs.script = latin;
com.schriftgestaltung.Glyphs.subCategory = Uppercase;
};
width = 872;
}
);
unicode = 81;
},
{
glyphname = R;
kernLeft = B;
kernRight = R;
lastChange = "2024-05-08 15:20:34 +0000";
layers = (
{
anchors = (
{
name = bottom;
pos = (329,0);
},
{
name = top;
pos = (485,810);
}
);
background = {
anchors = (
{
name = bottom;
pos = (329,0);
},
{
name = top;
pos = (485,810);
}
);
shapes = (
{
closed = 1;
nodes = (
(131,0,l),
(216,340,l),
(612,340,l),
(527,0,l),
(619,0,l),
(700,325,ls),
(714,382,o),
(690,415,o),
(633,415,c),
(634,420,l),
(706,459,o),
(748,518,o),
(766,588,cs),
(801,730,o),
(721,810,o),
(576,810,cs),
(241,810,l),
(39,0,l)
);
},
{
closed = 1;
nodes = (
(313,730,l),
(546,730,ls),
(643,730,o),
(695,674,o),
(670,574,cs),
(645,474,o),
(565,418,o),
(468,418,cs),
(235,418,l)
);
}
);
};
layerId = "4683CC84-822E-4D29-9A51-72FC3DB48604";
shapes = (
{
closed = 1;
nodes = (
(131,0,l),
(216,340,l),
(612,340,l),
(527,0,l),
(619,0,l),
(700,325,ls),
(714,382,o),
(690,415,o),
(633,415,c),
(634,420,l),
(703,457,o),
(746,509,o),
(763,579,cs),
(797,713,o),
(714,810,o),
(566,810,cs),
(241,810,l),
(39,0,l)
);
},
{
closed = 1;
nodes = (
(313,730,l),
(546,730,ls),
(647,730,o),
(694,670,o),
(670,574,cs),
(646,478,o),
(569,418,o),
(468,418,cs),
(235,418,l)
);
}
);
userData = {
com.schriftgestaltung.Glyphs.category = Letter;
com.schriftgestaltung.Glyphs.script = latin;
com.schriftgestaltung.Glyphs.subCategory = Uppercase;
};
width = 790;
},
{
anchors = (
{
name = bottom;
pos = (335,0);
},
{
name = top;
pos = (537,810);
}
);
background = {
anchors = (
{
name = bottom;
pos = (335,0);
},
{
name = top;
pos = (537,810);
}
);
shapes = (
{
closed = 1;
nodes = (
(199,0,l),
(274,300,l),
(556,300,l),
(481,0,l),
(665,0,l),
(735,282,ls),
(756,366,o),
(725,408,o),
(641,408,c),
(642,412,l),
(736,437,o),
(792,507,o),
(812,590,cs),
(846,726,o),
(760,810,o),
(604,810,cs),
(217,810,l),
(15,0,l)
);
},
{
closed = 1;
nodes = (
(360,646,l),
(551,646,ls),
(607,646,o),
(638,613,o),
(624,555,cs),
(609,497,o),
(562,464,o),
(506,464,cs),
(315,464,l)
);
}
);
};
guides = (
{
angle = 270;
pos = (740,141);
},
{
angle = 90;
pos = (556,140);
}
);
layerId = "FB8C5FF2-3B42-4CDF-AA26-B13980DDC748";
name = "Bold alt";
shapes = (
{
closed = 1;
nodes = (
(199,0,l),
(274,300,l),
(556,300,l),
(481,0,l),
(665,0,l),
(735,282,ls),
(756,366,o),
(725,408,o),
(641,408,c),
(642,412,l),
(736,437,o),
(790,498,o),
(810,580,cs),
(844,717,o),
(750,810,o),
(594,810,cs),
(217,810,l),
(15,0,l)
);
},
{
closed = 1;
nodes = (
(360,646,l),
(551,646,ls),
(607,646,o),
(638,613,o),
(624,555,cs),
(609,497,o),
(562,464,o),
(506,464,cs),
(315,464,l)
);
}
);
userData = {
com.schriftgestaltung.Glyphs.category = Letter;
com.schriftgestaltung.Glyphs.script = latin;
com.schriftgestaltung.Glyphs.subCategory = Uppercase;
};
width = 820;
}
);
unicode = 82;
},
{
glyphname = S;
kernLeft = S;
kernRight = S;
lastChange = "2024-05-08 15:43:48 +0000";
layers = (
{
anchors = (
{
name = bottom;
pos = (297,0);
},
{
name = top;
pos = (480,810);
}
);
background = {
anchors = (
{
name = bottom;
pos = (297,0);
},
{
name = top;
pos = (480,810);
}
);
shapes = (
{
closed = 1;
nodes = (
(470,-12,o),
(599,82,o),
(635,225,cs),
(664,339,o),
(614,412,o),
(487,442,cs),
(365,471,ls),
(268,494,o),
(239,540,o),
(255,605,cs),
(276,687,o),
(356,738,o),
(459,738,cs),
(570,738,o),
(628,684,o),
(620,582,c),
(718,582,l),
(738,726,o),
(652,822,o),
(485,822,cs),
(322,822,o),
(196,727,o),
(163,598,cs),
(136,489,o),
(191,417,o),
(315,389,cs),
(433,362,ls),
(528,340,o),
(562,293,o),
(543,218,cs),
(520,126,o),
(439,72,o),
(316,72,cs),
(188,72,o),
(121,131,o),
(136,240,c),
(38,240,l),
(10,90,o),
(106,-12,o),
(292,-12,cs)
);
}
);
};
guides = (
{
angle = 167.4211;
pos = (354,364);
},
{
angle = -12.5789;
pos = (386,468);
}
);
layerId = "4683CC84-822E-4D29-9A51-72FC3DB48604";
shapes = (
{
closed = 1;
nodes = (
(473,-12,o),
(597,73,o),
(633,216,cs),
(663,335,o),
(614,410,o),
(488,440,cs),
(355,471,ls),
(274,490,o),
(238,536,o),
(255,605,cs),
(276,687,o),
(354,738,o),
(459,738,cs),
(570,738,o),
(632,682,o),
(624,582,c),
(714,582,l),
(734,730,o),
(639,822,o),
(475,822,cs),
(315,822,o),
(198,736,o),
(165,607,cs),
(138,498,o),
(193,417,o),
(314,390,cs),
(443,361,ls),
(527,342,o),
(562,294,o),
(543,218,cs),
(520,125,o),
(438,72,o),
(316,72,cs),
(186,72,o),
(117,133,o),
(132,240,c),
(42,240,l),
(14,89,o),
(115,-12,o),
(302,-12,cs)
);
}
);
userData = {
com.schriftgestaltung.Glyphs.category = Letter;
com.schriftgestaltung.Glyphs.script = latin;
com.schriftgestaltung.Glyphs.subCategory = Uppercase;
};
width = 720;
},
{
anchors = (
{
name = bottom;
pos = (319,0);
},
{
name = top;
pos = (497,810);
}
);
background = {
anchors = (
{
name = bottom;
pos = (319,0);
},
{
name = top;
pos = (497,810);
}
);
shapes = (
{
closed = 1;
nodes = (
(506,-12,o),
(644,86,o),
(684,243,cs),
(716,373,o),
(662,449,o),
(524,482,cs),
(387,515,ls),
(336,527,o),
(316,557,o),
(326,595,cs),
(338,644,o),
(389,678,o),
(458,678,cs),
(533,678,o),
(574,637,o),
(572,564,c),
(758,564,l),
(787,723,o),
(687,822,o),
(505,822,cs),
(321,822,o),
(178,726,o),
(141,577,cs),
(112,460,o),
(163,382,o),
(304,347,cs),
(434,314,ls),
(492,300,o),
(511,271,o),
(500,228,cs),
(486,172,o),
(433,138,o),
(356,138,cs),
(266,138,o),
(218,182,o),
(225,263,c),
(39,263,l),
(7,94,o),
(112,-12,o),
(312,-12,cs)
);
}
);
};
guides = (
{
angle = 167.4211;
pos = (352,364);
},
{
angle = -12.5789;
pos = (384,468);
}
);
layerId = "FB8C5FF2-3B42-4CDF-AA26-B13980DDC748";
shapes = (
{
closed = 1;
nodes = (
(516,-12,o),
(644,80,o),
(681,234,cs),
(713,367,o),
(652,447,o),
(515,480,cs),
(387,511,ls),
(333,524,o),
(317,558,o),
(326,595,cs),
(338,644,o),
(389,678,o),
(458,678,cs),
(533,678,o),
(578,637,o),
(576,564,c),
(754,564,l),
(783,725,o),
(677,822,o),
(491,822,cs),
(311,822,o),
(177,731,o),
(143,586,cs),
(115,467,o),
(172,385,o),
(313,349,cs),
(434,318,ls),
(492,303,o),
(511,271,o),
(500,228,cs),
(486,172,o),
(433,138,o),
(356,138,cs),
(266,138,o),
(214,182,o),
(221,263,c),
(43,263,l),
(11,93,o),
(122,-12,o),
(326,-12,cs)
);
}
);
userData = {
com.schriftgestaltung.Glyphs.category = Letter;
com.schriftgestaltung.Glyphs.script = latin;
com.schriftgestaltung.Glyphs.subCategory = Uppercase;
};
width = 740;
}
);
unicode = 83;
},
{
glyphname = Germandbls;
kernLeft = H;
kernRight = B;
lastChange = "2024-05-08 16:20:03 +0000";
layers = (
{
background = {
shapes = (
{
closed = 1;
nodes = (
(422,0,ls),
(570,1,o),
(709,96,o),
(747,247,cs),
(781,384,o),
(709,475,o),
(583,487,c),
(584,491,l),
(837,728,l),
(857,810,l),
(331,810,ls),
(274,810,o),
(233,777,o),
(219,720,cs),
(39,0,l),
(131,0,l),
(313,728,l),
(736,728,l),
(735,724,l),
(472,474,l),
(456,410,l),
(510,410,ls),
(621,410,o),
(682,355,o),
(655,247,cs),
(628,139,o),
(537,81,o),
(427,81,cs),
(239,81,l),
(219,-1,l)
);
}
);
};
layerId = "4683CC84-822E-4D29-9A51-72FC3DB48604";
shapes = (
{
closed = 1;
nodes = (
(432,0,ls),
(584,1,o),
(708,96,o),
(744,238,cs),
(777,371,o),
(713,470,o),
(585,483,c),
(586,487,l),
(837,728,l),
(857,810,l),
(331,810,ls),
(274,810,o),
(233,777,o),
(219,720,cs),
(39,0,l),
(131,0,l),
(313,728,l),
(730,728,l),
(729,724,l),
(472,474,l),
(456,410,l),
(510,410,ls),
(627,410,o),
(681,350,o),
(655,247,cs),
(629,144,o),
(543,81,o),
(427,81,cs),
(239,81,l),
(219,-1,l)
);
}
);
userData = {
com.schriftgestaltung.Glyphs.category = Letter;
com.schriftgestaltung.Glyphs.script = latin;
com.schriftgestaltung.Glyphs.subCategory = Uppercase;
};
width = 810;
},
{
background = {
shapes = (
{
closed = 1;
nodes = (
(469,0,ls),
(618,1,o),
(751,97,o),
(788,245,cs),
(821,375,o),
(759,465,o),
(638,482,c),
(640,487,l),
(869,687,l),
(899,810,l),
(321,810,ls),
(237,810,o),
(185,768,o),
(164,684,cs),
(-7,0,l),
(177,0,l),
(338,646,l),
(622,646,l),
(621,642,l),
(422,466,l),
(392,346,l),
(530,346,ls),
(590,346,o),
(621,314,o),
(607,256,cs),
(592,196,o),
(544,163,o),
(484,163,cs),
(290,163,l),
(249,-1,l)
);
}
);
};
guides = (
{
angle = 90;
pos = (252,366);
},
{
angle = 270;
pos = (68,358);
},
{
angle = 228.6522;
pos = (564,642);
}
);
layerId = "FB8C5FF2-3B42-4CDF-AA26-B13980DDC748";
shapes = (
{
closed = 1;
nodes = (
(479,0,ls),
(630,1,o),
(750,94,o),
(786,236,cs),
(818,366,o),
(759,461,o),
(634,478,c),
(636,483,l),
(869,687,l),
(899,810,l),
(321,810,ls),
(237,810,o),
(185,768,o),
(164,684,cs),
(-7,0,l),
(177,0,l),
(338,646,l),
(622,646,l),
(621,642,l),
(422,466,l),
(392,346,l),
(530,346,ls),
(592,346,o),
(621,313,o),
(607,256,cs),
(593,199,o),
(546,163,o),
(484,163,cs),
(290,163,l),
(249,-1,l)
);
}
);
userData = {
com.schriftgestaltung.Glyphs.category = Letter;
com.schriftgestaltung.Glyphs.script = latin;
com.schriftgestaltung.Glyphs.subCategory = Uppercase;
};
width = 840;
},
{
associatedMasterId = "4683CC84-822E-4D29-9A51-72FC3DB48604";
background = {
anchors = (
{
name = bottom;
pos = (394,0);
},
{
name = top;
pos = (394,810);
}
);
shapes = (
{
closed = 1;
nodes = (
(199,812,o),
(102,688,o),
(102,520,cs),
(102,0,l),
(194,0,l),
(194,520,ls),
(194,646,o),
(257,731,o),
(395,731,cs),
(486,731,o),
(537,695,o),
(563,638,c),
(389,452,l),
(389,384,l),
(454,384,ls),
(585,384,o),
(652,332,o),
(652,232,cs),
(652,128,o),
(596,66,o),
(468,66,cs),
(401,66,o),
(326,85,o),
(269,117,c),
(269,31,l),
(326,1,o),
(394,-10,o),
(472,-10,cs),
(664,-10,o),
(749,90,o),
(749,232,cs),
(749,375,o),
(645,457,o),
(503,461,c),
(664,633,l),
(629,742,o),
(547,812,o),
(400,812,cs)
);
}
);
};
guides = (
{
angle = 47.6507;
pos = (618,696);
}
);
layerId = "17623B5F-F7F7-4C5F-9FBF-F3B7799DD588";
name = "19 Apr 24 at 13:31";
shapes = (
{
closed = 1;
nodes = (
(194,0,l),
(194,511,ls),
(194,657,o),
(282,740,o),
(438,740,cs),
(507,740,o),
(571,723,o),
(619,702,c),
(619,698,l),
(394,450,l),
(394,388,l),
(500,388,ls),
(605,388,o),
(674,327,o),
(674,235,cs),
(674,142,o),
(605,82,o),
(500,82,cs),
(287,82,l),
(287,0,l),
(504,0,ls),
(662,0,o),
(762,91,o),
(762,235,cs),
(762,374,o),
(658,464,o),
(506,465,c),
(708,687,l),
(708,759,l),
(623,800,o),
(541,822,o),
(443,822,cs),
(228,822,o),
(102,707,o),
(102,512,cs),
(102,0,l)
);
}
);
userData = {
com.schriftgestaltung.Glyphs.category = Letter;
com.schriftgestaltung.Glyphs.script = latin;
com.schriftgestaltung.Glyphs.subCategory = Uppercase;
};
width = 788;
},
{
associatedMasterId = "4683CC84-822E-4D29-9A51-72FC3DB48604";
background = {
shapes = (
{
closed = 1;
nodes = (
(194,0,l),
(194,511,ls),
(194,657,o),
(282,740,o),
(438,740,cs),
(507,740,o),
(571,723,o),
(619,702,c),
(619,698,l),
(394,450,l),
(394,388,l),
(500,388,ls),
(605,388,o),
(674,327,o),
(674,235,cs),
(674,142,o),
(605,82,o),
(500,82,cs),
(287,82,l),
(287,0,l),
(504,0,ls),
(662,0,o),
(762,91,o),
(762,235,cs),
(762,374,o),
(658,464,o),
(506,465,c),
(708,687,l),
(708,759,l),
(623,800,o),
(541,822,o),
(443,822,cs),
(228,822,o),
(102,707,o),
(102,512,cs),
(102,0,l)
);
}
);
};
guides = (
{
angle = 47.6507;
pos = (618,696);
}
);
layerId = "25FF28D5-D6F8-4809-BC4C-0D4E865F6129";
name = "19 Apr 24 at 13:38";
shapes = (
{
closed = 1;
nodes = (
(453,816,ls),
(580,816,o),
(674,737,o),
(674,606,cs),
(674,509,o),
(609,448,o),
(538,433,c),
(538,429,l),
(615,421,o),
(710,359,o),
(710,227,cs),
(710,88,o),
(605,1,o),
(469,0,cs),
(276,-1,l),
(276,82,l),
(449,82,ls),
(549,82,o),
(618,134,o),
(618,232,cs),
(618,330,o),
(550,380,o),
(450,380,cs),
(306,380,l),
(306,460,l),
(442,460,ls),
(525,460,o),
(582,508,o),
(582,597,cs),
(582,686,o),
(525,734,o),
(442,734,cs),
(349,734,ls),
(254,734,o),
(188,679,o),
(188,577,cs),
(188,0,l),
(96,0,l),
(96,586,ls),
(96,729,o),
(199,816,o),
(338,816,cs)
);
}
);
userData = {
com.schriftgestaltung.Glyphs.category = Letter;
com.schriftgestaltung.Glyphs.script = latin;
com.schriftgestaltung.Glyphs.subCategory = Uppercase;
};
width = 788;
}
);
unicode = 7838;
},
{
glyphname = T;
kernLeft = T;
kernRight = T;
lastChange = "2024-05-10 05:49:23 +0000";
layers = (
{
anchors = (
{
name = bottom;
pos = (270,0);
},
{
name = center;
pos = (371,405);
},
{
name = top;
pos = (472,810);
}
);
background = {
anchors = (
{
name = bottom;
pos = (270,0);
},
{
name = center;
pos = (371,405);
},
{
name = top;
pos = (472,810);
}
);
shapes = (
{
closed = 1;
nodes = (
(498,728,l),
(773,728,l),
(793,810,l),
(151,810,l),
(131,728,l),
(406,728,l),
(224,0,l),
(316,0,l)
);
}
);
};
layerId = "4683CC84-822E-4D29-9A51-72FC3DB48604";
shapes = (
{
closed = 1;
nodes = (
(498,728,l),
(773,728,l),
(793,810,l),
(151,810,l),
(131,728,l),
(406,728,l),
(224,0,l),
(316,0,l)
);
}
);
userData = {
com.schriftgestaltung.Glyphs.category = Letter;
com.schriftgestaltung.Glyphs.script = latin;
com.schriftgestaltung.Glyphs.subCategory = Uppercase;
};
width = 690;
},
{
anchors = (
{
name = bottom;
pos = (270,0);
},
{
name = center;
pos = (371,405);
},
{
name = top;
pos = (472,810);
}
);
background = {
anchors = (
{
name = bottom;
pos = (270,0);
},
{
name = center;
pos = (371,405);
},
{
name = top;
pos = (472,810);
}
);
shapes = (
{
closed = 1;
nodes = (
(523,646,l),
(752,646,l),
(793,810,l),
(151,810,l),
(110,646,l),
(339,646,l),
(178,0,l),
(362,0,l)
);
}
);
};
layerId = "FB8C5FF2-3B42-4CDF-AA26-B13980DDC748";
shapes = (
{
closed = 1;
nodes = (
(523,646,l),
(752,646,l),
(793,810,l),
(151,810,l),
(110,646,l),
(339,646,l),
(178,0,l),
(362,0,l)
);
}
);
userData = {
com.schriftgestaltung.Glyphs.category = Letter;
com.schriftgestaltung.Glyphs.script = latin;
com.schriftgestaltung.Glyphs.subCategory = Uppercase;
};
width = 690;
}
);
unicode = 84;
},
{
glyphname = U;
kernLeft = U;
kernRight = U;
lastChange = "2024-05-08 15:23:21 +0000";
layers = (
{
anchors = (
{
name = bottom;
pos = (335,0);
},
{
name = ogonek;
pos = (424,0);
},
{
name = top;
pos = (538,810);
},
{
name = topright;
pos = (927,810);
}
);
background = {
anchors = (
{
name = bottom;
pos = (335,0);
},
{
name = ogonek;
pos = (424,0);
},
{
name = top;
pos = (538,810);
},
{
name = topright;
pos = (927,810);
}
);
shapes = (
{
closed = 1;
nodes = (
(538,-12,o),
(671,112,o),
(714,284,cs),
(845,810,l),
(753,810,l),
(622,285,ls),
(591,159,o),
(502,74,o),
(355,74,cs),
(211,74,o),
(158,150,o),
(192,286,cs),
(323,810,l),
(229,810,l),
(98,286,ls),
(53,104,o),
(130,-12,o),
(329,-12,cs)
);
}
);
};
layerId = "4683CC84-822E-4D29-9A51-72FC3DB48604";
shapes = (
{
closed = 1;
nodes = (
(530,-12,o),
(667,94,o),
(712,275,cs),
(845,810,l),
(753,810,l),
(622,285,ls),
(589,148,o),
(494,74,o),
(355,74,cs),
(215,74,o),
(157,149,o),
(192,286,cs),
(323,810,l),
(229,810,l),
(101,295,ls),
(53,102,o),
(142,-12,o),
(339,-12,cs)
);
}
);
userData = {
com.schriftgestaltung.Glyphs.category = Letter;
com.schriftgestaltung.Glyphs.script = latin;
com.schriftgestaltung.Glyphs.subCategory = Uppercase;
};
width = 820;
},
{
anchors = (
{
name = bottom;
pos = (345,0);
},
{
name = ogonek;
pos = (448,0);
},
{
name = top;
pos = (547,810);
},
{
name = topright;
pos = (947,810);
}
);
background = {
anchors = (
{
name = bottom;
pos = (345,0);
},
{
name = ogonek;
pos = (448,0);
},
{
name = top;
pos = (547,810);
},
{
name = topright;
pos = (947,810);
}
);
shapes = (
{
closed = 1;
nodes = (
(534,-12,o),
(704,92,o),
(757,304,cs),
(883,810,l),
(699,810,l),
(581,335,ls),
(556,237,o),
(488,164,o),
(388,164,cs),
(291,164,o),
(254,229,o),
(281,336,cs),
(399,810,l),
(211,810,l),
(85,306,ls),
(30,84,o),
(155,-12,o),
(339,-12,cs)
);
}
);
};
layerId = "FB8C5FF2-3B42-4CDF-AA26-B13980DDC748";
shapes = (
{
closed = 1;
nodes = (
(544,-12,o),
(702,83,o),
(755,295,cs),
(883,810,l),
(699,810,l),
(581,335,ls),
(557,237,o),
(488,164,o),
(388,164,cs),
(291,164,o),
(254,229,o),
(281,336,cs),
(399,810,l),
(211,810,l),
(88,315,ls),
(33,93,o),
(165,-12,o),
(349,-12,cs)
);
}
);
userData = {
com.schriftgestaltung.Glyphs.category = Letter;
com.schriftgestaltung.Glyphs.script = latin;
com.schriftgestaltung.Glyphs.subCategory = Uppercase;
};
width = 840;
}
);
unicode = 85;
},
{
glyphname = V;
kernLeft = V;
kernRight = V;
lastChange = "2024-06-03 05:56:24 +0000";
layers = (
{
anchors = (
{
name = bottom;
pos = (300,0);
},
{
name = top;
pos = (502,810);
}
);
background = {
anchors = (
{
name = bottom;
pos = (300,0);
},
{
name = top;
pos = (502,810);
}
);
shapes = (
{
closed = 1;
nodes = (
(358,0,l),
(865,810,l),
(766,810,l),
(329,96,l),
(325,96,l),
(242,810,l),
(139,810,l),
(242,0,l)
);
}
);
};
layerId = "4683CC84-822E-4D29-9A51-72FC3DB48604";
shapes = (
{
closed = 1;
nodes = (
(358,0,l),
(865,810,l),
(760,810,l),
(323,96,l),
(319,96,l),
(236,810,l),
(139,810,l),
(242,0,l)
);
}
);
userData = {
com.schriftgestaltung.Glyphs.category = Letter;
com.schriftgestaltung.Glyphs.script = latin;
com.schriftgestaltung.Glyphs.subCategory = Uppercase;
};
width = 750;
},
{
anchors = (
{
name = bottom;
pos = (340,0);
},
{
name = top;
pos = (542,810);
}
);
background = {
anchors = (
{
name = bottom;
pos = (340,0);
},
{
name = top;
pos = (542,810);
}
);
shapes = (
{
closed = 1;
nodes = (
(448,0,l),
(945,810,l),
(746,810,l),
(399,216,l),
(395,216,l),
(342,810,l),
(139,810,l),
(232,0,l)
);
}
);
};
layerId = "FB8C5FF2-3B42-4CDF-AA26-B13980DDC748";
shapes = (
{
closed = 1;
nodes = (
(448,0,l),
(945,810,l),
(738,810,l),
(391,216,l),
(387,216,l),
(334,810,l),
(139,810,l),
(232,0,l)
);
}
);
userData = {
com.schriftgestaltung.Glyphs.category = Letter;
com.schriftgestaltung.Glyphs.script = latin;
com.schriftgestaltung.Glyphs.subCategory = Uppercase;
};
width = 830;
}
);
unicode = 86;
},
{
glyphname = W;
kernLeft = V;
kernRight = V;
lastChange = "2024-05-08 15:23:40 +0000";
layers = (
{
anchors = (
{
name = bottom;
pos = (465,0);
},
{
name = top;
pos = (663,810);
}
);
background = {
anchors = (
{
name = bottom;
pos = (465,0);
},
{
name = top;
pos = (663,810);
}
);
shapes = (
{
closed = 1;
nodes = (
(272,0,l),
(633,699,l),
(637,699,l),
(658,0,l),
(760,0,l),
(1171,810,l),
(1073,810,l),
(737,114,l),
(733,114,l),
(711,810,l),
(615,810,l),
(254,114,l),
(250,114,l),
(261,810,l),
(163,810,l),
(170,0,l)
);
}
);
};
layerId = "4683CC84-822E-4D29-9A51-72FC3DB48604";
shapes = (
{
closed = 1;
nodes = (
(275,0,l),
(636,699,l),
(640,699,l),
(661,0,l),
(760,0,l),
(1171,810,l),
(1070,810,l),
(734,114,l),
(730,114,l),
(708,810,l),
(612,810,l),
(251,114,l),
(247,114,l),
(258,810,l),
(163,810,l),
(170,0,l)
);
}
);
userData = {
com.schriftgestaltung.Glyphs.category = Letter;
com.schriftgestaltung.Glyphs.script = latin;
com.schriftgestaltung.Glyphs.subCategory = Uppercase;
};
width = 1080;
},
{
anchors = (
{
name = bottom;
pos = (485,0);
},
{
name = top;
pos = (687,810);
}
);
background = {
anchors = (
{
name = bottom;
pos = (485,0);
},
{
name = top;
pos = (687,810);
}
);
shapes = (
{
closed = 1;
nodes = (
(346,0,l),
(610,522,l),
(614,522,l),
(624,0,l),
(804,0,l),
(1211,810,l),
(1019,810,l),
(786,311,l),
(782,311,l),
(768,810,l),
(600,810,l),
(344,311,l),
(340,311,l),
(355,810,l),
(163,810,l),
(166,0,l)
);
}
);
};
layerId = "FB8C5FF2-3B42-4CDF-AA26-B13980DDC748";
shapes = (
{
closed = 1;
nodes = (
(350,0,l),
(614,522,l),
(618,522,l),
(628,0,l),
(804,0,l),
(1211,810,l),
(1015,810,l),
(782,311,l),
(778,311,l),
(764,810,l),
(596,810,l),
(340,311,l),
(336,311,l),
(351,810,l),
(163,810,l),
(166,0,l)
);
}
);
userData = {
com.schriftgestaltung.Glyphs.category = Letter;
com.schriftgestaltung.Glyphs.script = latin;
com.schriftgestaltung.Glyphs.subCategory = Uppercase;
};
width = 1120;
}
);
unicode = 87;
},
{
glyphname = X;
kernLeft = X;
kernRight = K;
lastChange = "2024-05-08 15:34:48 +0000";
layers = (
{
anchors = (
{
name = bottom;
pos = (277,0);
},
{
name = top;
pos = (485,810);
}
);
background = {
anchors = (
{
name = bottom;
pos = (277,0);
},
{
name = top;
pos = (485,810);
}
);
shapes = (
{
closed = 1;
nodes = (
(47,0,l),
(366,357,l),
(370,357,l),
(507,0,l),
(615,0,l),
(444,424,l),
(797,810,l),
(697,810,l),
(406,486,l),
(402,486,l),
(273,810,l),
(167,810,l),
(327,422,l),
(-55,0,l)
);
}
);
};
guides = (
{
angle = -56.6543;
pos = (551,212);
},
{
angle = -57.664;
pos = (466,179);
}
);
layerId = "4683CC84-822E-4D29-9A51-72FC3DB48604";
shapes = (
{
closed = 1;
nodes = (
(55,0,l),
(370,353,l),
(374,353,l),
(515,0,l),
(615,0,l),
(440,420,l),
(797,810,l),
(689,810,l),
(402,490,l),
(398,490,l),
(265,810,l),
(167,810,l),
(331,426,l),
(-55,0,l)
);
}
);
userData = {
com.schriftgestaltung.Glyphs.category = Letter;
com.schriftgestaltung.Glyphs.script = latin;
com.schriftgestaltung.Glyphs.subCategory = Uppercase;
};
width = 710;
},
{
anchors = (
{
name = bottom;
pos = (320,0);
},
{
name = top;
pos = (522,810);
}
);
background = {
anchors = (
{
name = bottom;
pos = (320,0);
},
{
name = top;
pos = (522,810);
}
);
shapes = (
{
closed = 1;
nodes = (
(139,0,l),
(387,280,l),
(391,280,l),
(495,0,l),
(707,0,l),
(538,424,l),
(889,810,l),
(685,810,l),
(466,563,l),
(462,563,l),
(365,810,l),
(155,810,l),
(313,422,l),
(-67,0,l)
);
}
);
};
layerId = "FB8C5FF2-3B42-4CDF-AA26-B13980DDC748";
shapes = (
{
closed = 1;
nodes = (
(147,0,l),
(395,280,l),
(399,280,l),
(503,0,l),
(707,0,l),
(538,424,l),
(889,810,l),
(677,810,l),
(458,563,l),
(454,563,l),
(357,810,l),
(155,810,l),
(313,422,l),
(-67,0,l)
);
}
);
userData = {
com.schriftgestaltung.Glyphs.category = Letter;
com.schriftgestaltung.Glyphs.script = latin;
com.schriftgestaltung.Glyphs.subCategory = Uppercase;
};
width = 790;
}
);
unicode = 88;
},
{
glyphname = Y;
kernLeft = Y;
kernRight = Y;
lastChange = "2024-05-08 15:34:20 +0000";
layers = (
{
anchors = (
{
name = bottom;
pos = (270,0);
},
{
name = top;
pos = (475,810);
},
{
name = topleft;
pos = (125,810);
}
);
background = {
anchors = (
{
name = bottom;
pos = (270,0);
},
{
name = top;
pos = (475,810);
},
{
name = topleft;
pos = (125,810);
}
);
shapes = (
{
closed = 1;
nodes = (
(316,0,l),
(393,308,l),
(805,810,l),
(705,810,l),
(376,403,l),
(372,403,l),
(245,810,l),
(139,810,l),
(300,306,l),
(224,0,l)
);
}
);
};
layerId = "4683CC84-822E-4D29-9A51-72FC3DB48604";
shapes = (
{
closed = 1;
nodes = (
(316,0,l),
(393,308,l),
(805,810,l),
(697,810,l),
(368,403,l),
(364,403,l),
(237,810,l),
(139,810,l),
(300,306,l),
(224,0,l)
);
}
);
userData = {
com.schriftgestaltung.Glyphs.category = Letter;
com.schriftgestaltung.Glyphs.script = latin;
com.schriftgestaltung.Glyphs.subCategory = Uppercase;
};
width = 690;
},
{
anchors = (
{
name = bottom;
pos = (295,0);
},
{
name = top;
pos = (497,810);
},
{
name = topleft;
pos = (147,810);
}
);
background = {
anchors = (
{
name = bottom;
pos = (295,0);
},
{
name = top;
pos = (497,810);
},
{
name = topleft;
pos = (147,810);
}
);
shapes = (
{
closed = 1;
nodes = (
(387,0,l),
(462,301,l),
(855,810,l),
(655,810,l),
(422,489,l),
(418,489,l),
(345,810,l),
(139,810,l),
(278,299,l),
(203,0,l)
);
}
);
};
layerId = "FB8C5FF2-3B42-4CDF-AA26-B13980DDC748";
shapes = (
{
closed = 1;
nodes = (
(387,0,l),
(462,301,l),
(855,810,l),
(647,810,l),
(414,489,l),
(410,489,l),
(337,810,l),
(139,810,l),
(278,299,l),
(203,0,l)
);
}
);
userData = {
com.schriftgestaltung.Glyphs.category = Letter;
com.schriftgestaltung.Glyphs.script = latin;
com.schriftgestaltung.Glyphs.subCategory = Uppercase;
};
width = 740;
}
);
unicode = 89;
},
{
glyphname = Z;
kernLeft = Z;
kernRight = Z;
lastChange = "2024-05-08 15:29:39 +0000";
layers = (
{
anchors = (
{
name = bottom;
pos = (265,0);
},
{
name = center;
pos = (366,405);
},
{
name = top;
pos = (467,810);
}
);
background = {
anchors = (
{
name = bottom;
pos = (265,0);
},
{
name = center;
pos = (366,405);
},
{
name = top;
pos = (467,810);
}
);
shapes = (
{
closed = 1;
nodes = (
(551,0,l),
(571,82,l),
(109,82,l),
(723,738,l),
(741,810,l),
(199,810,l),
(179,728,l),
(611,728,l),
(-3,72,l),
(-21,0,l)
);
}
);
};
layerId = "4683CC84-822E-4D29-9A51-72FC3DB48604";
shapes = (
{
closed = 1;
nodes = (
(551,0,l),
(571,82,l),
(117,82,l),
(723,738,l),
(741,810,l),
(199,810,l),
(179,728,l),
(603,728,l),
(-3,72,l),
(-21,0,l)
);
}
);
userData = {
com.schriftgestaltung.Glyphs.category = Letter;
com.schriftgestaltung.Glyphs.script = latin;
com.schriftgestaltung.Glyphs.subCategory = Uppercase;
};
width = 680;
},
{
anchors = (
{
name = bottom;
pos = (265,0);
},
{
name = center;
pos = (366,405);
},
{
name = top;
pos = (467,810);
}
);
background = {
anchors = (
{
name = bottom;
pos = (265,0);
},
{
name = center;
pos = (366,405);
},
{
name = top;
pos = (467,810);
}
);
shapes = (
{
closed = 1;
nodes = (
(571,0,l),
(612,164,l),
(239,164,l),
(730,686,l),
(761,810,l),
(179,810,l),
(138,646,l),
(482,646,l),
(-10,124,l),
(-41,0,l)
);
}
);
};
guides = (
{
angle = 55.5915;
pos = (444,415);
},
{
angle = 235.5915;
pos = (224,395);
}
);
layerId = "FB8C5FF2-3B42-4CDF-AA26-B13980DDC748";
shapes = (
{
closed = 1;
nodes = (
(571,0,l),
(612,164,l),
(249,164,l),
(730,686,l),
(761,810,l),
(179,810,l),
(138,646,l),
(472,646,l),
(-10,124,l),
(-41,0,l)
);
}
);
userData = {
com.schriftgestaltung.Glyphs.category = Letter;
com.schriftgestaltung.Glyphs.script = latin;
com.schriftgestaltung.Glyphs.subCategory = Uppercase;
};
width = 680;
}
);
unicode = 90;
},
{
export = 0;
glyphname = J.ss01;
kernLeft = B;
kernRight = H;
lastChange = "2024-06-03 05:59:11 +0000";
layers = (
{
anchors = (
{
name = bottom;
pos = (-31,-180);
},
{
name = top;
pos = (287,810);
}
);
background = {
anchors = (
{
name = bottom;
pos = (-31,-180);
},
{
name = top;
pos = (287,810);
}
);
shapes = (
{
closed = 1;
nodes = (
(-4,-180,ls),
(52,-180,o),
(94,-150,o),
(109,-90,cs),
(333,810,l),
(241,810,l),
(14,-100,l),
(-130,-100,l),
(-150,-180,l)
);
}
);
};
layerId = "4683CC84-822E-4D29-9A51-72FC3DB48604";
name = "Light Italic";
shapes = (
{
closed = 1;
nodes = (
(-4,-180,ls),
(52,-180,o),
(94,-150,o),
(109,-90,cs),
(333,810,l),
(241,810,l),
(14,-100,l),
(-130,-100,l),
(-150,-180,l)
);
}
);
userData = {
com.schriftgestaltung.Glyphs.category = Letter;
com.schriftgestaltung.Glyphs.script = latin;
com.schriftgestaltung.Glyphs.subCategory = Uppercase;
};
width = 320;
},
{
anchors = (
{
name = bottom;
pos = (110,0);
},
{
name = top;
pos = (312,810);
}
);
background = {
anchors = (
{
name = bottom;
pos = (110,0);
},
{
name = top;
pos = (312,810);
}
);
shapes = (
{
closed = 1;
nodes = (
(6,-210,ls),
(99,-210,o),
(161,-164,o),
(186,-66,cs),
(404,810,l),
(220,810,l),
(3,-60,l),
(-117,-60,l),
(-154,-210,l)
);
}
);
};
guides = (
{
angle = 76.0253;
pos = (295,372);
}
);
layerId = "FB8C5FF2-3B42-4CDF-AA26-B13980DDC748";
name = "Bold Italic";
shapes = (
{
closed = 1;
nodes = (
(6,-210,ls),
(99,-210,o),
(161,-164,o),
(186,-66,cs),
(404,810,l),
(220,810,l),
(3,-60,l),
(-117,-60,l),
(-154,-210,l)
);
}
);
userData = {
com.schriftgestaltung.Glyphs.category = Letter;
com.schriftgestaltung.Glyphs.script = latin;
com.schriftgestaltung.Glyphs.subCategory = Uppercase;
};
width = 370;
}
);
},
{
glyphname = a;
kernLeft = a;
kernRight = a;
lastChange = "2024-06-03 05:56:04 +0000";
layers = (
{
anchors = (
{
name = bottom;
pos = (245,0);
},
{
name = ogonek;
pos = (499,0);
},
{
name = top;
pos = (389,600);
}
);
background = {
anchors = (
{
name = bottom;
pos = (245,0);
},
{
name = ogonek;
pos = (499,0);
},
{
name = top;
pos = (389,600);
}
);
shapes = (
{
closed = 1;
nodes = (
(238,-11,o),
(300,18,o),
(348,77,c),
(352,77,l),
(333,0,l),
(499,0,l),
(593,375,ls),
(630,525,o),
(556,612,o),
(391,612,cs),
(243,612,o),
(129,539,o),
(68,406,c),
(250,406,l),
(271,446,o),
(310,468,o),
(356,468,cs),
(410,468,o),
(436,437,o),
(423,386,cs),
(418,364,l),
(284,364,ls),
(137,364,o),
(35,296,o),
(5,178,cs),
(-23,64,o),
(39,-11,o),
(163,-11,cs)
);
},
{
closed = 1;
nodes = (
(193,127,o),
(170,149,o),
(180,187,cs),
(188,222,o),
(219,244,o),
(262,244,cs),
(388,244,l),
(387,241,ls),
(371,175,o),
(307,127,o),
(237,127,cs)
);
}
);
};
guides = (
{
angle = 90;
pos = (574,193);
},
{
angle = 270;
pos = (402,312);
},
{
angle = 90;
pos = (177,164);
},
{
angle = 90;
pos = (9,163);
},
{
angle = 180;
pos = (143,406);
},
{
pos = (338,373);
},
{
pos = (360,255);
}
);
layerId = "FB8C5FF2-3B42-4CDF-AA26-B13980DDC748";
name = "Bold alt";
shapes = (
{
closed = 1;
nodes = (
(245,-11,o),
(297,15,o),
(348,77,c),
(352,77,l),
(333,0,l),
(499,0,l),
(590,366,ls),
(627,517,o),
(547,612,o),
(381,612,cs),
(237,612,o),
(130,541,o),
(68,406,c),
(250,406,l),
(271,445,o),
(309,468,o),
(356,468,cs),
(410,468,o),
(435,437,o),
(423,386,cs),
(418,364,l),
(274,364,ls),
(132,364,o),
(37,301,o),
(8,187,cs),
(-21,70,o),
(46,-11,o),
(173,-11,cs)
);
},
{
closed = 1;
nodes = (
(192,127,o),
(171,149,o),
(180,187,cs),
(189,223,o),
(220,244,o),
(262,244,cs),
(388,244,l),
(387,241,ls),
(365,174,o),
(303,127,o),
(237,127,cs)
);
}
);
userData = {
com.schriftgestaltung.Glyphs.category = Letter;
com.schriftgestaltung.Glyphs.script = latin;
com.schriftgestaltung.Glyphs.subCategory = Lowercase;
};
width = 640;
},
{
anchors = (
{
name = bottom;
pos = (235,0);
},
{
name = ogonek;
pos = (453,0);
},
{
name = top;
pos = (375,600);
}
);
background = {
anchors = (
{
name = bottom;
pos = (235,0);
},
{
name = ogonek;
pos = (453,0);
},
{
name = top;
pos = (375,600);
}
);
shapes = (
{
closed = 1;
nodes = (
(254,-11,o),
(341,36,o),
(391,111,c),
(395,111,l),
(367,0,l),
(453,0,l),
(549,385,ls),
(585,529,o),
(520,612,o),
(376,612,cs),
(249,612,o),
(137,540,o),
(92,430,c),
(184,430,l),
(216,495,o),
(276,532,o),
(353,532,cs),
(446,532,o),
(486,477,o),
(461,378,cs),
(453,346,l),
(268,346,ls),
(135,346,o),
(43,280,o),
(15,168,cs),
(-11,63,o),
(52,-11,o),
(169,-11,cs)
);
},
{
closed = 1;
nodes = (
(126,67,o),
(84,108,o),
(100,172,cs),
(116,236,o),
(170,274,o),
(257,274,cs),
(435,274,l),
(428,245,ls),
(403,144,o),
(307,67,o),
(207,67,cs)
);
}
);
};
guides = (
{
angle = 186.6135;
pos = (233,263);
}
);
layerId = "4683CC84-822E-4D29-9A51-72FC3DB48604";
name = "Light alt";
shapes = (
{
closed = 1;
nodes = (
(264,-11,o),
(339,32,o),
(391,111,c),
(395,111,l),
(367,0,l),
(453,0,l),
(547,376,ls),
(583,519,o),
(511,612,o),
(366,612,cs),
(242,612,o),
(138,543,o),
(92,430,c),
(184,430,l),
(216,496,o),
(277,532,o),
(353,532,cs),
(447,532,o),
(486,476,o),
(461,378,cs),
(453,346,l),
(268,346,ls),
(137,346,o),
(43,283,o),
(17,177,cs),
(-10,70,o),
(60,-11,o),
(179,-11,cs)
);
},
{
closed = 1;
nodes = (
(127,67,o),
(85,109,o),
(100,172,cs),
(116,237,o),
(173,274,o),
(257,274,cs),
(435,274,l),
(428,245,ls),
(403,141,o),
(310,67,o),
(207,67,cs)
);
}
);
userData = {
com.schriftgestaltung.Glyphs.category = Letter;
com.schriftgestaltung.Glyphs.script = latin;
com.schriftgestaltung.Glyphs.subCategory = Lowercase;
};
width = 620;
}
);
unicode = 97;
},
{
glyphname = ae;
kernLeft = a;
kernRight = e;
lastChange = "2024-05-08 16:20:57 +0000";
layers = (
{
anchors = (
{
name = bottom;
pos = (560,0);
},
{
name = ogonek;
pos = (453,0);
},
{
name = top;
pos = (710,600);
}
);
background = {
anchors = (
{
name = bottom;
pos = (560,0);
},
{
name = ogonek;
pos = (453,0);
},
{
name = top;
pos = (710,600);
}
);
shapes = (
{
closed = 1;
nodes = (
(765,-12,o),
(879,59,o),
(936,179,c),
(844,179,l),
(808,112,o),
(738,70,o),
(664,70,cs),
(557,70,o),
(503,155,o),
(531,289,c),
(965,289,l),
(976,334,ls),
(1019,504,o),
(939,612,o),
(795,612,cs),
(709,612,o),
(624,570,o),
(559,500,c),
(555,500,l),
(540,571,o),
(479,612,o),
(379,612,cs),
(249,612,o),
(137,540,o),
(92,430,c),
(184,430,l),
(216,495,o),
(276,532,o),
(356,532,cs),
(452,532,o),
(492,477,o),
(467,378,cs),
(463,361,l),
(275,361,ls),
(139,361,o),
(46,292,o),
(17,176,cs),
(-11,66,o),
(52,-11,o),
(172,-11,cs),
(286,-11,o),
(377,33,o),
(442,119,c),
(446,119,l),
(470,36,o),
(543,-12,o),
(645,-12,cs)
);
},
{
closed = 1;
nodes = (
(126,67,o),
(85,111,o),
(102,180,cs),
(119,248,o),
(174,289,o),
(264,289,cs),
(445,289,l),
(434,245,ls),
(409,144,o),
(313,67,o),
(210,67,cs)
);
},
{
closed = 1;
nodes = (
(599,468,o),
(684,532,o),
(774,532,cs),
(864,532,o),
(914,468,o),
(896,361,c),
(554,361,l)
);
}
);
};
layerId = "4683CC84-822E-4D29-9A51-72FC3DB48604";
shapes = (
{
closed = 1;
nodes = (
(775,-12,o),
(883,59,o),
(940,179,c),
(844,179,l),
(808,112,o),
(738,70,o),
(664,70,cs),
(557,70,o),
(503,155,o),
(531,289,c),
(965,289,l),
(974,325,ls),
(1016,495,o),
(929,612,o),
(785,612,cs),
(699,612,o),
(614,570,o),
(549,500,c),
(545,500,l),
(530,571,o),
(469,612,o),
(369,612,cs),
(239,612,o),
(137,540,o),
(92,430,c),
(184,430,l),
(216,495,o),
(276,532,o),
(356,532,cs),
(452,532,o),
(490,477,o),
(467,378,cs),
(463,361,l),
(265,361,ls),
(129,361,o),
(48,301,o),
(19,185,cs),
(-9,75,o),
(62,-11,o),
(182,-11,cs),
(296,-11,o),
(387,33,o),
(452,119,c),
(456,119,l),
(480,36,o),
(553,-12,o),
(655,-12,cs)
);
},
{
closed = 1;
nodes = (
(126,67,o),
(85,111,o),
(102,180,cs),
(119,248,o),
(174,289,o),
(264,289,cs),
(445,289,l),
(434,245,ls),
(409,144,o),
(313,67,o),
(210,67,cs)
);
},
{
closed = 1;
nodes = (
(599,468,o),
(684,532,o),
(774,532,cs),
(864,532,o),
(914,468,o),
(896,361,c),
(554,361,l)
);
}
);
userData = {
com.schriftgestaltung.Glyphs.category = Letter;
com.schriftgestaltung.Glyphs.script = latin;
com.schriftgestaltung.Glyphs.subCategory = Lowercase;
};
width = 1030;
},
{
anchors = (
{
name = bottom;
pos = (245,0);
},
{
name = ogonek;
pos = (499,0);
},
{
name = top;
pos = (389,600);
}
);
background = {
anchors = (
{
name = bottom;
pos = (245,0);
},
{
name = ogonek;
pos = (499,0);
},
{
name = top;
pos = (389,600);
}
);
shapes = (
{
closed = 1;
nodes = (
(773,-12,o),
(902,70,o),
(956,197,c),
(772,197,l),
(750,155,o),
(710,132,o),
(663,132,cs),
(599,132,o),
(566,174,o),
(572,249,c),
(969,249,l),
(984,308,ls),
(1030,492,o),
(948,612,o),
(777,612,cs),
(701,612,o),
(631,586,o),
(573,537,c),
(569,537,l),
(540,587,o),
(481,612,o),
(394,612,cs),
(244,612,o),
(129,539,o),
(68,406,c),
(250,406,l),
(271,445,o),
(311,468,o),
(359,468,cs),
(416,468,o),
(442,437,o),
(429,386,cs),
(425,369,l),
(288,369,ls),
(139,369,o),
(36,301,o),
(6,181,cs),
(-24,60,o),
(44,-11,o),
(189,-11,cs),
(284,-11,o),
(365,19,o),
(428,79,c),
(432,79,l),
(469,20,o),
(538,-12,o),
(627,-12,cs)
);
},
{
closed = 1;
nodes = (
(193,127,o),
(170,150,o),
(180,189,cs),
(190,227,o),
(221,249,o),
(266,249,cs),
(395,249,l),
(393,241,ls),
(377,176,o),
(313,127,o),
(242,127,cs)
);
},
{
closed = 1;
nodes = (
(637,433,o),
(686,468,o),
(742,468,cs),
(799,468,o),
(828,432,o),
(823,369,c),
(605,369,l)
);
}
);
};
layerId = "FB8C5FF2-3B42-4CDF-AA26-B13980DDC748";
shapes = (
{
closed = 1;
nodes = (
(779,-12,o),
(905,67,o),
(960,197,c),
(772,197,l),
(750,156,o),
(711,132,o),
(663,132,cs),
(599,132,o),
(566,174,o),
(572,249,c),
(969,249,l),
(982,299,ls),
(1029,480,o),
(940,612,o),
(767,612,cs),
(691,612,o),
(621,586,o),
(563,537,c),
(559,537,l),
(530,587,o),
(472,612,o),
(384,612,cs),
(238,612,o),
(130,542,o),
(68,406,c),
(250,406,l),
(271,445,o),
(310,468,o),
(359,468,cs),
(415,468,o),
(441,437,o),
(429,386,cs),
(425,369,l),
(278,369,ls),
(132,369,o),
(37,306,o),
(8,190,cs),
(-23,65,o),
(49,-11,o),
(199,-11,cs),
(294,-11,o),
(376,20,o),
(438,79,c),
(442,79,l),
(479,20,o),
(547,-12,o),
(637,-12,cs)
);
},
{
closed = 1;
nodes = (
(193,127,o),
(170,150,o),
(180,189,cs),
(190,227,o),
(222,249,o),
(266,249,cs),
(395,249,l),
(393,241,ls),
(377,175,o),
(313,127,o),
(242,127,cs)
);
},
{
closed = 1;
nodes = (
(637,433,o),
(686,468,o),
(742,468,cs),
(799,468,o),
(828,432,o),
(823,369,c),
(605,369,l)
);
}
);
userData = {
com.schriftgestaltung.Glyphs.category = Letter;
com.schriftgestaltung.Glyphs.script = latin;
com.schriftgestaltung.Glyphs.subCategory = Lowercase;
};
width = 1030;
}
);
unicode = 230;
},
{
glyphname = b;
kernLeft = b;
kernRight = b;
lastChange = "2024-05-08 15:30:29 +0000";
layers = (
{
anchors = (
{
name = bottom;
pos = (275,0);
},
{
name = center;
pos = (350,300);
},
{
name = top;
pos = (425,600);
}
);
background = {
anchors = (
{
name = bottom;
pos = (275,0);
},
{
name = center;
pos = (350,300);
},
{
name = top;
pos = (425,600);
}
);
shapes = (
{
closed = 1;
nodes = (
(484,-12,o),
(616,115,o),
(662,300,cs),
(708,486,o),
(640,612,o),
(491,612,cs),
(418,612,o),
(355,580,o),
(310,523,c),
(306,523,l),
(385,840,l),
(205,840,l),
(-5,0,l),
(169,0,l),
(189,82,l),
(193,82,l),
(212,21,o),
(260,-12,o),
(335,-12,cs)
);
},
{
closed = 1;
nodes = (
(255,148,o),
(224,197,o),
(244,278,cs),
(255,322,ls),
(276,403,o),
(331,452,o),
(401,452,cs),
(475,452,o),
(505,393,o),
(482,300,cs),
(459,207,o),
(399,148,o),
(325,148,cs)
);
}
);
};
layerId = "FB8C5FF2-3B42-4CDF-AA26-B13980DDC748";
name = "Bold alt";
shapes = (
{
closed = 1;
nodes = (
(490,-12,o),
(615,109,o),
(660,291,cs),
(707,480,o),
(633,612,o),
(481,612,cs),
(411,612,o),
(358,584,o),
(310,523,c),
(306,523,l),
(385,840,l),
(205,840,l),
(-5,0,l),
(169,0,l),
(189,82,l),
(193,82,l),
(211,23,o),
(267,-12,o),
(345,-12,cs)
);
},
{
closed = 1;
nodes = (
(255,148,o),
(224,198,o),
(244,278,cs),
(255,322,ls),
(275,402,o),
(332,452,o),
(401,452,cs),
(474,452,o),
(505,394,o),
(482,300,cs),
(459,205,o),
(400,148,o),
(325,148,cs)
);
}
);
userData = {
com.schriftgestaltung.Glyphs.category = Letter;
com.schriftgestaltung.Glyphs.script = latin;
com.schriftgestaltung.Glyphs.subCategory = Lowercase;
};
width = 700;
},
{
anchors = (
{
name = bottom;
pos = (270,0);
},
{
name = center;
pos = (345,300);
},
{
name = top;
pos = (420,600);
}
);
background = {
anchors = (
{
name = bottom;
pos = (270,0);
},
{
name = center;
pos = (345,300);
},
{
name = top;
pos = (420,600);
}
);
shapes = (
{
closed = 1;
nodes = (
(451,-12,o),
(581,113,o),
(628,300,cs),
(675,487,o),
(607,612,o),
(457,612,cs),
(368,612,o),
(292,572,o),
(239,498,c),
(235,498,l),
(321,840,l),
(231,840,l),
(21,0,l),
(111,0,l),
(136,102,l),
(140,102,l),
(156,27,o),
(212,-12,o),
(301,-12,cs)
);
},
{
closed = 1;
nodes = (
(190,68,o),
(147,143,o),
(174,251,cs),
(198,349,ls),
(225,457,o),
(306,532,o),
(414,532,cs),
(524,532,o),
(573,440,o),
(538,300,cs),
(503,160,o),
(408,68,o),
(298,68,cs)
);
}
);
};
layerId = "4683CC84-822E-4D29-9A51-72FC3DB48604";
name = "Light alt";
shapes = (
{
closed = 1;
nodes = (
(458,-12,o),
(579,104,o),
(626,291,cs),
(674,484,o),
(603,612,o),
(447,612,cs),
(362,612,o),
(294,574,o),
(239,498,c),
(235,498,l),
(321,840,l),
(231,840,l),
(21,0,l),
(111,0,l),
(136,102,l),
(140,102,l),
(155,32,o),
(220,-12,o),
(311,-12,cs)
);
},
{
closed = 1;
nodes = (
(196,68,o),
(147,140,o),
(174,251,cs),
(198,349,ls),
(224,459,o),
(311,532,o),
(414,532,cs),
(525,532,o),
(573,442,o),
(538,300,cs),
(501,156,o),
(410,68,o),
(298,68,cs)
);
}
);
userData = {
com.schriftgestaltung.Glyphs.category = Letter;
com.schriftgestaltung.Glyphs.script = latin;
com.schriftgestaltung.Glyphs.subCategory = Lowercase;
};
width = 690;
}
);
unicode = 98;
},
{
glyphname = c;
kernLeft = d;
kernRight = c;
lastChange = "2024-05-08 15:45:20 +0000";
layers = (
{
anchors = (
{
name = bottom;
pos = (263,0);
},
{
name = top;
pos = (413,600);
}
);
background = {
anchors = (
{
name = bottom;
pos = (263,0);
},
{
name = top;
pos = (413,600);
}
);
shapes = (
{
closed = 1;
nodes = (
(383,-12,o),
(501,60,o),
(566,204,c),
(474,204,l),
(430,111,o),
(358,70,o),
(280,70,cs),
(168,70,o),
(117,161,o),
(152,300,cs),
(187,440,o),
(283,530,o),
(395,530,cs),
(469,530,o),
(519,493,o),
(519,406,c),
(613,406,l),
(617,545,o),
(536,612,o),
(416,612,cs),
(258,612,o),
(110,491,o),
(62,300,cs),
(14,110,o),
(102,-12,o),
(260,-12,cs)
);
}
);
};
guides = (
{
angle = 180;
pos = (462,430);
}
);
layerId = "4683CC84-822E-4D29-9A51-72FC3DB48604";
shapes = (
{
closed = 1;
nodes = (
(393,-12,o),
(505,60,o),
(570,204,c),
(474,204,l),
(430,111,o),
(358,70,o),
(280,70,cs),
(168,70,o),
(117,161,o),
(152,300,cs),
(187,440,o),
(283,530,o),
(395,530,cs),
(469,530,o),
(519,493,o),
(519,406,c),
(609,406,l),
(613,545,o),
(526,612,o),
(406,612,cs),
(248,612,o),
(112,500,o),
(64,309,cs),
(16,119,o),
(112,-12,o),
(270,-12,cs)
);
}
);
userData = {
com.schriftgestaltung.Glyphs.category = Letter;
com.schriftgestaltung.Glyphs.script = latin;
com.schriftgestaltung.Glyphs.subCategory = Lowercase;
};
width = 620;
},
{
anchors = (
{
name = bottom;
pos = (259,0);
},
{
name = top;
pos = (409,600);
}
);
background = {
anchors = (
{
name = bottom;
pos = (259,0);
},
{
name = top;
pos = (409,600);
}
);
shapes = (
{
closed = 1;
nodes = (
(403,-12,o),
(540,69,o),
(598,227,c),
(418,227,l),
(390,172,o),
(347,148,o),
(296,148,cs),
(228,148,o),
(195,207,o),
(218,300,cs),
(241,394,o),
(304,452,o),
(372,452,cs),
(419,452,o),
(449,427,o),
(450,382,c),
(634,382,l),
(650,529,o),
(557,612,o),
(412,612,cs),
(241,612,o),
(86,491,o),
(38,300,cs),
(-10,110,o),
(85,-12,o),
(256,-12,cs)
);
}
);
};
guides = (
{
angle = 180;
pos = (143,406);
},
{
pos = (134,204);
}
);
layerId = "FB8C5FF2-3B42-4CDF-AA26-B13980DDC748";
shapes = (
{
closed = 1;
nodes = (
(418,-12,o),
(548,78,o),
(602,227,c),
(418,227,l),
(392,177,o),
(347,148,o),
(296,148,cs),
(225,148,o),
(195,207,o),
(218,300,cs),
(241,393,o),
(301,452,o),
(372,452,cs),
(420,452,o),
(449,426,o),
(450,382,c),
(630,382,l),
(645,521,o),
(557,612,o),
(402,612,cs),
(231,612,o),
(86,491,o),
(40,309,cs),
(-8,119,o),
(84,-12,o),
(266,-12,cs)
);
}
);
userData = {
com.schriftgestaltung.Glyphs.category = Letter;
com.schriftgestaltung.Glyphs.script = latin;
com.schriftgestaltung.Glyphs.subCategory = Lowercase;
};
width = 630;
}
);
unicode = 99;
},
{
glyphname = d;
kernLeft = d;
kernRight = d;
lastChange = "2024-05-08 15:35:27 +0000";
layers = (
{
anchors = (
{
name = bottom;
pos = (270,0);
},
{
name = center;
pos = (345,300);
},
{
name = top;
pos = (684,840);
},
{
name = topright;
pos = (729,840);
}
);
background = {
anchors = (
{
name = bottom;
pos = (270,0);
},
{
name = center;
pos = (345,300);
},
{
name = top;
pos = (684,840);
},
{
name = topright;
pos = (729,840);
}
);
shapes = (
{
closed = 1;
nodes = (
(322,-12,o),
(398,27,o),
(450,102,c),
(454,102,l),
(429,0,l),
(519,0,l),
(729,840,l),
(639,840,l),
(553,498,l),
(549,498,l),
(534,572,o),
(478,612,o),
(389,612,cs),
(239,612,o),
(109,487,o),
(62,300,cs),
(15,113,o),
(83,-12,o),
(233,-12,cs)
);
},
{
closed = 1;
nodes = (
(166,68,o),
(117,160,o),
(152,300,cs),
(187,440,o),
(282,532,o),
(392,532,cs),
(500,532,o),
(543,457,o),
(516,349,cs),
(492,251,ls),
(465,143,o),
(384,68,o),
(276,68,cs)
);
}
);
};
layerId = "4683CC84-822E-4D29-9A51-72FC3DB48604";
shapes = (
{
closed = 1;
nodes = (
(328,-12,o),
(398,26,o),
(450,102,c),
(454,102,l),
(429,0,l),
(519,0,l),
(729,840,l),
(639,840,l),
(553,498,l),
(549,498,l),
(534,569,o),
(471,612,o),
(379,612,cs),
(234,612,o),
(111,493,o),
(64,309,cs),
(16,115,o),
(87,-12,o),
(243,-12,cs)
);
},
{
closed = 1;
nodes = (
(164,68,o),
(116,157,o),
(152,300,cs),
(188,443,o),
(280,532,o),
(392,532,cs),
(494,532,o),
(543,460,o),
(516,349,cs),
(492,251,ls),
(466,141,o),
(379,68,o),
(276,68,cs)
);
}
);
userData = {
com.schriftgestaltung.Glyphs.category = Letter;
com.schriftgestaltung.Glyphs.script = latin;
com.schriftgestaltung.Glyphs.subCategory = Lowercase;
};
width = 690;
},
{
anchors = (
{
name = bottom;
pos = (275,0);
},
{
name = center;
pos = (350,300);
},
{
name = top;
pos = (675,840);
},
{
name = topright;
pos = (765,840);
}
);
background = {
anchors = (
{
name = bottom;
pos = (275,0);
},
{
name = center;
pos = (350,300);
},
{
name = top;
pos = (675,840);
},
{
name = topright;
pos = (765,840);
}
);
shapes = (
{
closed = 1;
nodes = (
(284,-12,o),
(348,21,o),
(397,82,c),
(401,82,l),
(381,0,l),
(555,0,l),
(765,840,l),
(585,840,l),
(506,523,l),
(502,523,l),
(485,580,o),
(438,612,o),
(365,612,cs),
(216,612,o),
(84,486,o),
(38,300,cs),
(-8,115,o),
(60,-12,o),
(209,-12,cs)
);
},
{
closed = 1;
nodes = (
(225,148,o),
(195,207,o),
(218,300,cs),
(241,393,o),
(301,452,o),
(375,452,cs),
(445,452,o),
(476,403,o),
(455,322,cs),
(444,278,ls),
(424,197,o),
(369,148,o),
(299,148,cs)
);
}
);
};
layerId = "FB8C5FF2-3B42-4CDF-AA26-B13980DDC748";
shapes = (
{
closed = 1;
nodes = (
(290,-12,o),
(345,17,o),
(397,82,c),
(401,82,l),
(381,0,l),
(555,0,l),
(765,840,l),
(585,840,l),
(506,523,l),
(502,523,l),
(485,580,o),
(431,612,o),
(355,612,cs),
(212,612,o),
(85,490,o),
(40,309,cs),
(-6,120,o),
(67,-12,o),
(219,-12,cs)
);
},
{
closed = 1;
nodes = (
(225,148,o),
(195,205,o),
(218,300,cs),
(241,395,o),
(300,452,o),
(375,452,cs),
(444,452,o),
(475,403,o),
(455,322,cs),
(444,278,ls),
(424,198,o),
(368,148,o),
(299,148,cs)
);
}
);
userData = {
com.schriftgestaltung.Glyphs.category = Letter;
com.schriftgestaltung.Glyphs.script = latin;
com.schriftgestaltung.Glyphs.subCategory = Lowercase;
};
width = 700;
}
);
unicode = 100;
},
{
glyphname = eth;
kernLeft = d;
kernRight = b;
lastChange = "2024-05-09 08:10:35 +0000";
layers = (
{
anchors = (
{
name = bottom;
pos = (262,0);
},
{
name = top;
pos = (502,960);
}
);
background = {
anchors = (
{
name = bottom;
pos = (262,0);
},
{
name = top;
pos = (502,960);
}
);
shapes = (
{
closed = 1;
nodes = (
(435,-12,o),
(580,116,o),
(628,310,cs),
(682,524,o),
(583,743,o),
(389,840,c),
(254,840,l),
(253,836,l),
(415,749,o),
(538,618,o),
(566,502,c),
(560,502,l),
(527,556,o),
(477,582,o),
(405,582,cs),
(245,582,o),
(102,459,o),
(58,283,cs),
(14,108,o),
(98,-12,o),
(264,-12,cs)
);
},
{
closed = 1;
nodes = (
(169,66,o),
(113,153,o),
(144,278,cs),
(177,410,o),
(288,506,o),
(410,506,cs),
(522,506,o),
(570,428,o),
(538,301,cs),
(503,161,o),
(398,66,o),
(279,66,cs)
);
},
{
closed = 1;
nodes = (
(637,798,l),
(622,852,l),
(235,669,l),
(251,615,l)
);
}
);
};
guides = (
{
angle = 116.277;
pos = (510,840);
},
{
angle = 208.277;
pos = (163,669);
}
);
layerId = "4683CC84-822E-4D29-9A51-72FC3DB48604";
shapes = (
{
closed = 1;
nodes = (
(443,-12,o),
(578,111,o),
(626,300,cs),
(681,520,o),
(581,739,o),
(381,840,c),
(254,840,l),
(253,836,l),
(415,749,o),
(538,618,o),
(566,502,c),
(560,502,l),
(527,555,o),
(476,582,o),
(399,582,cs),
(244,582,o),
(103,463,o),
(60,292,cs),
(15,114,o),
(108,-12,o),
(278,-12,cs)
);
},
{
closed = 1;
nodes = (
(168,66,o),
(113,152,o),
(144,278,cs),
(177,411,o),
(287,506,o),
(410,506,cs),
(521,506,o),
(570,428,o),
(538,301,cs),
(503,163,o),
(397,66,o),
(279,66,cs)
);
},
{
closed = 1;
nodes = (
(637,798,l),
(616,852,l),
(229,669,l),
(251,615,l)
);
}
);
userData = {
com.schriftgestaltung.Glyphs.category = Letter;
com.schriftgestaltung.Glyphs.script = latin;
com.schriftgestaltung.Glyphs.subCategory = Lowercase;
};
width = 680;
},
{
anchors = (
{
name = bottom;
pos = (262,0);
},
{
name = top;
pos = (502,960);
}
);
background = {
anchors = (
{
name = bottom;
pos = (262,0);
},
{
name = top;
pos = (502,960);
}
);
shapes = (
{
closed = 1;
nodes = (
(439,-12,o),
(597,121,o),
(646,316,cs),
(698,525,o),
(609,735,o),
(425,840,c),
(194,840,l),
(193,836,l),
(329,744,o),
(434,642,o),
(476,562,c),
(472,562,l),
(455,579,o),
(424,588,o),
(382,588,cs),
(225,588,o),
(79,463,o),
(35,290,cs),
(-9,112,o),
(81,-12,o),
(257,-12,cs)
);
},
{
closed = 1;
nodes = (
(225,145,o),
(190,201,o),
(211,284,cs),
(233,372,o),
(303,433,o),
(383,433,cs),
(455,433,o),
(485,382,o),
(464,298,cs),
(441,206,o),
(375,145,o),
(298,145,cs)
);
},
{
closed = 1;
nodes = (
(646,786,l),
(626,860,l),
(182,650,l),
(203,576,l)
);
}
);
};
guides = (
{
angle = 208.2205;
pos = (309,771);
}
);
layerId = "FB8C5FF2-3B42-4CDF-AA26-B13980DDC748";
shapes = (
{
closed = 1;
nodes = (
(449,-12,o),
(595,112,o),
(643,307,cs),
(696,516,o),
(599,735,o),
(415,840,c),
(194,840,l),
(193,836,l),
(329,744,o),
(434,642,o),
(476,562,c),
(472,562,l),
(455,579,o),
(414,588,o),
(372,588,cs),
(215,588,o),
(81,472,o),
(38,299,cs),
(-7,121,o),
(91,-12,o),
(267,-12,cs)
);
},
{
closed = 1;
nodes = (
(225,145,o),
(190,201,o),
(211,284,cs),
(233,372,o),
(303,433,o),
(383,433,cs),
(455,433,o),
(485,382,o),
(464,298,cs),
(441,206,o),
(375,145,o),
(298,145,cs)
);
},
{
closed = 1;
nodes = (
(646,786,l),
(626,860,l),
(182,650,l),
(203,576,l)
);
}
);
userData = {
com.schriftgestaltung.Glyphs.category = Letter;
com.schriftgestaltung.Glyphs.script = latin;
com.schriftgestaltung.Glyphs.subCategory = Lowercase;
};
width = 680;
}
);
unicode = 240;
},
{
glyphname = dcroat;
kernLeft = d;
kernRight = d;
lastChange = "2024-05-09 09:03:06 +0000";
layers = (
{
background = {
shapes = (
{
closed = 1;
nodes = (
(322,-12,o),
(398,27,o),
(450,102,c),
(454,102,l),
(429,0,l),
(519,0,l),
(691,687,l),
(775,687,l),
(791,753,l),
(707,753,l),
(729,840,l),
(639,840,l),
(617,753,l),
(375,753,l),
(359,687,l),
(601,687,l),
(546,468,l),
(542,468,l),
(526,542,o),
(470,582,o),
(381,582,cs),
(231,582,o),
(101,457,o),
(58,285,cs),
(15,113,o),
(83,-12,o),
(233,-12,cs)
);
},
{
closed = 1;
nodes = (
(166,68,o),
(117,160,o),
(148,285,cs),
(179,410,o),
(274,502,o),
(384,502,cs),
(492,502,o),
(536,427,o),
(511,329,cs),
(489,241,ls),
(465,143,o),
(384,68,o),
(276,68,cs)
);
}
);
};
layerId = "4683CC84-822E-4D29-9A51-72FC3DB48604";
shapes = (
{
closed = 1;
nodes = (
(328,-12,o),
(398,27,o),
(450,102,c),
(454,102,l),
(429,0,l),
(519,0,l),
(691,687,l),
(775,687,l),
(791,753,l),
(707,753,l),
(729,840,l),
(639,840,l),
(617,753,l),
(375,753,l),
(359,687,l),
(601,687,l),
(546,468,l),
(542,468,l),
(527,539,o),
(463,582,o),
(371,582,cs),
(228,582,o),
(104,466,o),
(60,294,cs),
(15,112,o),
(89,-12,o),
(243,-12,cs)
);
},
{
closed = 1;
nodes = (
(167,68,o),
(115,155,o),
(148,285,cs),
(181,415,o),
(275,502,o),
(384,502,cs),
(484,502,o),
(536,431,o),
(511,329,cs),
(489,241,ls),
(465,140,o),
(377,68,o),
(276,68,cs)
);
}
);
userData = {
com.schriftgestaltung.Glyphs.category = Letter;
com.schriftgestaltung.Glyphs.script = latin;
com.schriftgestaltung.Glyphs.subCategory = Lowercase;
};
width = 690;
},
{
background = {
shapes = (
{
closed = 1;
nodes = (
(284,-12,o),
(348,21,o),
(397,82,c),
(401,82,l),
(381,0,l),
(555,0,l),
(720,660,l),
(778,660,l),
(808,780,l),
(750,780,l),
(765,840,l),
(585,840,l),
(570,780,l),
(362,780,l),
(332,660,l),
(540,660,l),
(498,493,l),
(494,493,l),
(477,550,o),
(430,582,o),
(357,582,cs),
(208,582,o),
(77,456,o),
(34,285,cs),
(-8,115,o),
(60,-12,o),
(209,-12,cs)
);
},
{
closed = 1;
nodes = (
(225,148,o),
(195,207,o),
(214,285,cs),
(234,363,o),
(293,422,o),
(367,422,cs),
(437,422,o),
(468,373,o),
(450,302,cs),
(442,268,ls),
(424,197,o),
(369,148,o),
(299,148,cs)
);
}
);
};
layerId = "FB8C5FF2-3B42-4CDF-AA26-B13980DDC748";
shapes = (
{
closed = 1;
nodes = (
(290,-12,o),
(345,17,o),
(397,82,c),
(401,82,l),
(381,0,l),
(555,0,l),
(720,660,l),
(778,660,l),
(808,780,l),
(750,780,l),
(765,840,l),
(585,840,l),
(570,780,l),
(362,780,l),
(332,660,l),
(540,660,l),
(498,493,l),
(494,493,l),
(477,550,o),
(423,582,o),
(347,582,cs),
(207,582,o),
(80,464,o),
(37,294,cs),
(-7,116,o),
(69,-12,o),
(219,-12,cs)
);
},
{
closed = 1;
nodes = (
(227,148,o),
(193,203,o),
(214,285,cs),
(234,367,o),
(295,422,o),
(367,422,cs),
(435,422,o),
(468,374,o),
(450,302,cs),
(442,268,ls),
(425,196,o),
(367,148,o),
(299,148,cs)
);
}
);
userData = {
com.schriftgestaltung.Glyphs.category = Letter;
com.schriftgestaltung.Glyphs.script = latin;
com.schriftgestaltung.Glyphs.subCategory = Lowercase;
};
width = 700;
}
);
unicode = 273;
},
{
glyphname = e;
kernLeft = d;
kernRight = e;
lastChange = "2024-06-03 05:56:15 +0000";
layers = (
{
anchors = (
{
name = bottom;
pos = (250,0);
},
{
name = ogonek;
pos = (397,0);
},
{
name = top;
pos = (400,600);
}
);
background = {
anchors = (
{
name = bottom;
pos = (250,0);
},
{
name = ogonek;
pos = (397,0);
},
{
name = top;
pos = (400,600);
}
);
shapes = (
{
closed = 1;
nodes = (
(385,-12,o),
(499,59,o),
(556,179,c),
(464,179,l),
(428,112,o),
(358,70,o),
(281,70,cs),
(171,70,o),
(117,155,o),
(146,289,c),
(585,289,l),
(596,334,ls),
(639,504,o),
(559,612,o),
(412,612,cs),
(255,612,o),
(110,491,o),
(62,302,cs),
(14,110,o),
(102,-12,o),
(262,-12,cs)
);
},
{
closed = 1;
nodes = (
(213,468,o),
(298,532,o),
(391,532,cs),
(484,532,o),
(534,468,o),
(516,361,c),
(168,361,l)
);
}
);
};
layerId = "4683CC84-822E-4D29-9A51-72FC3DB48604";
shapes = (
{
closed = 1;
nodes = (
(395,-12,o),
(503,60,o),
(560,179,c),
(464,179,l),
(428,112,o),
(358,70,o),
(281,70,cs),
(170,70,o),
(117,156,o),
(146,289,c),
(585,289,l),
(594,325,ls),
(636,494,o),
(557,612,o),
(402,612,cs),
(247,612,o),
(110,489,o),
(65,311,cs),
(17,122,o),
(103,-12,o),
(272,-12,cs)
);
},
{
closed = 1;
nodes = (
(213,467,o),
(297,532,o),
(391,532,cs),
(486,532,o),
(534,466,o),
(516,361,c),
(168,361,l)
);
}
);
userData = {
com.schriftgestaltung.Glyphs.category = Letter;
com.schriftgestaltung.Glyphs.script = latin;
com.schriftgestaltung.Glyphs.subCategory = Lowercase;
};
width = 650;
},
{
anchors = (
{
name = bottom;
pos = (250,0);
},
{
name = ogonek;
pos = (442,0);
},
{
name = top;
pos = (400,600);
}
);
background = {
anchors = (
{
name = bottom;
pos = (250,0);
},
{
name = ogonek;
pos = (442,0);
},
{
name = top;
pos = (400,600);
}
);
shapes = (
{
closed = 1;
nodes = (
(398,-12,o),
(530,66,o),
(586,197,c),
(402,197,l),
(380,156,o),
(342,132,o),
(292,132,cs),
(231,132,o),
(197,173,o),
(201,249,c),
(599,249,l),
(614,308,ls),
(663,504,o),
(567,612,o),
(407,612,cs),
(235,612,o),
(86,491,o),
(38,302,cs),
(-10,110,o),
(83,-12,o),
(257,-12,cs)
);
},
{
closed = 1;
nodes = (
(267,434,o),
(317,468,o),
(372,468,cs),
(427,468,o),
(458,435,o),
(453,369,c),
(234,369,l)
);
}
);
};
layerId = "FB8C5FF2-3B42-4CDF-AA26-B13980DDC748";
shapes = (
{
closed = 1;
nodes = (
(409,-12,o),
(535,68,o),
(590,197,c),
(402,197,l),
(379,155,o),
(340,132,o),
(292,132,cs),
(229,132,o),
(197,173,o),
(201,249,c),
(599,249,l),
(612,299,ls),
(660,484,o),
(573,612,o),
(397,612,cs),
(229,612,o),
(86,491,o),
(41,311,cs),
(-7,120,o),
(85,-12,o),
(267,-12,cs)
);
},
{
closed = 1;
nodes = (
(266,433,o),
(316,468,o),
(372,468,cs),
(429,468,o),
(458,433,o),
(453,369,c),
(234,369,l)
);
}
);
userData = {
com.schriftgestaltung.Glyphs.category = Letter;
com.schriftgestaltung.Glyphs.script = latin;
com.schriftgestaltung.Glyphs.subCategory = Lowercase;
};
width = 650;
}
);
unicode = 101;
},
{
glyphname = f;
kernLeft = f;
kernRight = f;
lastChange = "2024-05-08 14:48:24 +0000";
layers = (
{
anchors = (
{
name = bottom;
pos = (115,0);
},
{
name = top;
pos = (355,960);
}
);
background = {
anchors = (
{
name = bottom;
pos = (115,0);
},
{
name = top;
pos = (355,960);
}
);
shapes = (
{
closed = 1;
nodes = (
(148,0,l),
(280,528,l),
(419,528,l),
(437,600,l),
(297,600,l),
(339,768,l),
(491,768,l),
(509,840,l),
(359,840,ls),
(303,840,o),
(261,810,o),
(246,750,cs),
(209,600,l),
(93,600,l),
(75,528,l),
(190,528,l),
(58,0,l)
);
}
);
};
layerId = "4683CC84-822E-4D29-9A51-72FC3DB48604";
name = Light;
shapes = (
{
closed = 1;
nodes = (
(148,0,l),
(280,528,l),
(419,528,l),
(437,600,l),
(297,600,l),
(339,768,l),
(491,768,l),
(509,840,l),
(359,840,ls),
(303,840,o),
(261,810,o),
(246,750,cs),
(209,600,l),
(93,600,l),
(75,528,l),
(190,528,l),
(58,0,l)
);
}
);
userData = {
com.schriftgestaltung.Glyphs.category = Letter;
com.schriftgestaltung.Glyphs.script = latin;
com.schriftgestaltung.Glyphs.subCategory = Lowercase;
};
width = 380;
},
{
anchors = (
{
name = bottom;
pos = (135,0);
},
{
name = top;
pos = (375,960);
}
);
background = {
anchors = (
{
name = bottom;
pos = (135,0);
},
{
name = top;
pos = (375,960);
}
);
shapes = (
{
closed = 1;
nodes = (
(213,0,l),
(327,456,l),
(441,456,l),
(477,600,l),
(361,600,l),
(385,696,l),
(513,696,l),
(549,840,l),
(389,840,ls),
(296,840,o),
(233,794,o),
(209,696,cs),
(185,600,l),
(93,600,l),
(57,456,l),
(147,456,l),
(33,0,l)
);
}
);
};
guides = (
{
angle = 270;
pos = (286,647);
},
{
angle = 90;
pos = (110,647);
}
);
layerId = "FB8C5FF2-3B42-4CDF-AA26-B13980DDC748";
name = Bold;
shapes = (
{
closed = 1;
nodes = (
(213,0,l),
(327,456,l),
(441,456,l),
(477,600,l),
(361,600,l),
(385,696,l),
(513,696,l),
(549,840,l),
(389,840,ls),
(296,840,o),
(233,794,o),
(209,696,cs),
(185,600,l),
(93,600,l),
(57,456,l),
(147,456,l),
(33,0,l)
);
}
);
userData = {
com.schriftgestaltung.Glyphs.category = Letter;
com.schriftgestaltung.Glyphs.script = latin;
com.schriftgestaltung.Glyphs.subCategory = Lowercase;
};
width = 420;
}
);
unicode = 102;
},
{
glyphname = g;
kernLeft = g;
kernRight = g;
lastChange = "2024-05-08 15:37:50 +0000";
layers = (
{
anchors = (
{
name = bottom;
pos = (220,-240);
},
{
name = top;
pos = (430,600);
}
);
background = {
anchors = (
{
name = bottom;
pos = (220,-240);
},
{
name = top;
pos = (430,600);
}
);
shapes = (
{
closed = 1;
nodes = (
(392,-252,o),
(527,-151,o),
(570,19,cs),
(715,600,l),
(541,600,l),
(520,518,l),
(516,518,l),
(500,580,o),
(453,612,o),
(378,612,cs),
(229,612,o),
(95,487,o),
(49,306,cs),
(4,125,o),
(76,0,o),
(225,0,cs),
(298,0,o),
(360,31,o),
(410,94,c),
(414,94,l),
(396,19,ls),
(376,-59,o),
(315,-108,o),
(239,-108,cs),
(184,-108,o),
(150,-83,o),
(149,-42,c),
(-41,-42,l),
(-54,-170,o),
(42,-252,o),
(207,-252,cs)
);
},
{
closed = 1;
nodes = (
(239,160,o),
(207,216,o),
(229,306,cs),
(252,395,o),
(313,452,o),
(386,452,cs),
(455,452,o),
(485,402,o),
(465,322,cs),
(458,292,ls),
(437,210,o),
(383,160,o),
(313,160,cs)
);
}
);
};
layerId = "FB8C5FF2-3B42-4CDF-AA26-B13980DDC748";
name = "Bold alt";
shapes = (
{
closed = 1;
nodes = (
(400,-252,o),
(527,-158,o),
(568,10,cs),
(715,600,l),
(541,600,l),
(520,518,l),
(516,518,l),
(501,578,o),
(447,612,o),
(368,612,cs),
(224,612,o),
(97,492,o),
(52,315,cs),
(6,131,o),
(82,0,o),
(235,0,cs),
(305,0,o),
(358,28,o),
(410,94,c),
(414,94,l),
(396,19,ls),
(377,-58,o),
(316,-108,o),
(239,-108,cs),
(184,-108,o),
(150,-83,o),
(149,-42,c),
(-41,-42,l),
(-54,-170,o),
(47,-252,o),
(217,-252,cs)
);
},
{
closed = 1;
nodes = (
(239,160,o),
(207,217,o),
(229,306,cs),
(252,396,o),
(313,452,o),
(386,452,cs),
(454,452,o),
(484,403,o),
(465,322,cs),
(458,292,ls),
(439,211,o),
(384,160,o),
(313,160,cs)
);
}
);
width = 710;
},
{
anchors = (
{
name = bottom;
pos = (210,-240);
},
{
name = top;
pos = (420,600);
}
);
background = {
anchors = (
{
name = bottom;
pos = (210,-240);
},
{
name = top;
pos = (420,600);
}
);
shapes = (
{
closed = 1;
nodes = (
(350,-252,o),
(481,-152,o),
(520,5,cs),
(669,600,l),
(579,600,l),
(554,499,l),
(550,499,l),
(538,570,o),
(481,612,o),
(395,612,cs),
(243,612,o),
(109,488,o),
(63,306,cs),
(18,124,o),
(90,0,o),
(242,0,cs),
(328,0,o),
(406,42,o),
(453,114,c),
(457,114,l),
(432,12,ls),
(404,-102,o),
(318,-170,o),
(204,-170,cs),
(115,-170,o),
(63,-129,o),
(65,-60,c),
(-31,-60,l),
(-44,-176,o),
(41,-252,o),
(185,-252,cs)
);
},
{
closed = 1;
nodes = (
(170,82,o),
(119,170,o),
(153,306,cs),
(187,442,o),
(282,530,o),
(395,530,cs),
(495,530,o),
(544,459,o),
(517,352,cs),
(494,260,ls),
(467,153,o),
(383,82,o),
(283,82,cs)
);
}
);
};
layerId = "4683CC84-822E-4D29-9A51-72FC3DB48604";
name = "Light alt";
shapes = (
{
closed = 1;
nodes = (
(359,-252,o),
(479,-159,o),
(518,-4,cs),
(669,600,l),
(579,600,l),
(554,499,l),
(550,499,l),
(538,569,o),
(475,612,o),
(385,612,cs),
(239,612,o),
(111,492,o),
(66,315,cs),
(20,130,o),
(97,0,o),
(252,0,cs),
(336,0,o),
(404,39,o),
(453,114,c),
(457,114,l),
(432,12,ls),
(404,-102,o),
(318,-170,o),
(204,-170,cs),
(114,-170,o),
(59,-128,o),
(61,-60,c),
(-27,-60,l),
(-40,-176,o),
(48,-252,o),
(195,-252,cs)
);
},
{
closed = 1;
nodes = (
(171,82,o),
(119,171,o),
(153,306,cs),
(187,441,o),
(283,530,o),
(395,530,cs),
(496,530,o),
(544,459,o),
(517,352,cs),
(494,260,ls),
(467,152,o),
(383,82,o),
(283,82,cs)
);
}
);
width = 690;
}
);
unicode = 103;
},
{
glyphname = h;
kernLeft = b;
kernRight = h;
lastChange = "2024-05-08 15:37:32 +0000";
layers = (
{
anchors = (
{
name = bottom;
pos = (270,0);
},
{
name = center;
pos = (390,480);
},
{
name = top;
pos = (510,960);
}
);
background = {
anchors = (
{
name = bottom;
pos = (270,0);
},
{
name = center;
pos = (390,480);
},
{
name = top;
pos = (510,960);
}
);
shapes = (
{
closed = 1;
nodes = (
(111,0,l),
(201,359,ls),
(228,468,o),
(304,532,o),
(405,532,cs),
(506,532,o),
(550,468,o),
(523,359,cs),
(433,0,l),
(523,0,l),
(615,370,ls),
(651,513,o),
(585,612,o),
(454,612,cs),
(369,612,o),
(292,573,o),
(242,510,c),
(238,510,l),
(321,840,l),
(231,840,l),
(21,0,l)
);
}
);
};
layerId = "4683CC84-822E-4D29-9A51-72FC3DB48604";
name = "Light alt";
shapes = (
{
closed = 1;
nodes = (
(111,0,l),
(201,359,ls),
(228,468,o),
(304,532,o),
(405,532,cs),
(506,532,o),
(550,468,o),
(523,359,cs),
(433,0,l),
(523,0,l),
(613,361,ls),
(649,505,o),
(577,612,o),
(444,612,cs),
(366,612,o),
(294,576,o),
(242,510,c),
(238,510,l),
(321,840,l),
(231,840,l),
(21,0,l)
);
}
);
userData = {
com.schriftgestaltung.Glyphs.category = Letter;
com.schriftgestaltung.Glyphs.script = latin;
com.schriftgestaltung.Glyphs.subCategory = Lowercase;
};
width = 690;
},
{
anchors = (
{
name = bottom;
pos = (280,0);
},
{
name = center;
pos = (400,480);
},
{
name = top;
pos = (520,960);
}
);
background = {
anchors = (
{
name = bottom;
pos = (280,0);
},
{
name = center;
pos = (400,480);
},
{
name = top;
pos = (520,960);
}
);
shapes = (
{
closed = 1;
nodes = (
(175,0,l),
(255,321,ls),
(275,399,o),
(328,447,o),
(394,447,cs),
(460,447,o),
(489,399,o),
(469,321,cs),
(389,0,l),
(569,0,l),
(658,357,ls),
(695,506,o),
(631,611,o),
(503,611,cs),
(426,611,o),
(360,579,o),
(309,520,c),
(305,520,l),
(385,840,l),
(205,840,l),
(-5,0,l)
);
}
);
};
layerId = "FB8C5FF2-3B42-4CDF-AA26-B13980DDC748";
name = "Bold alt";
shapes = (
{
closed = 1;
nodes = (
(175,0,l),
(255,321,ls),
(274,399,o),
(328,447,o),
(394,447,cs),
(460,447,o),
(488,399,o),
(469,321,cs),
(389,0,l),
(569,0,l),
(656,348,ls),
(693,496,o),
(621,611,o),
(493,611,cs),
(416,611,o),
(360,579,o),
(309,520,c),
(305,520,l),
(385,840,l),
(205,840,l),
(-5,0,l)
);
}
);
userData = {
com.schriftgestaltung.Glyphs.category = Letter;
com.schriftgestaltung.Glyphs.script = latin;
com.schriftgestaltung.Glyphs.subCategory = Lowercase;
};
width = 710;
}
);
unicode = 104;
},
{
glyphname = hbar;
kernLeft = b;
kernRight = h;
lastChange = "2024-05-09 09:03:40 +0000";
layers = (
{
background = {
shapes = (
{
closed = 1;
nodes = (
(111,0,l),
(193,329,ls),
(220,438,o),
(296,502,o),
(397,502,cs),
(498,502,o),
(542,438,o),
(515,329,cs),
(433,0,l),
(523,0,l),
(608,340,ls),
(644,483,o),
(577,582,o),
(446,582,cs),
(361,582,o),
(285,543,o),
(235,480,c),
(231,480,l),
(283,687,l),
(525,687,l),
(541,753,l),
(299,753,l),
(321,840,l),
(231,840,l),
(209,753,l),
(125,753,l),
(109,687,l),
(193,687,l),
(21,0,l)
);
}
);
};
layerId = "4683CC84-822E-4D29-9A51-72FC3DB48604";
shapes = (
{
closed = 1;
nodes = (
(111,0,l),
(193,329,ls),
(220,438,o),
(296,502,o),
(397,502,cs),
(498,502,o),
(542,438,o),
(515,329,cs),
(433,0,l),
(523,0,l),
(606,331,ls),
(643,475,o),
(570,582,o),
(436,582,cs),
(358,582,o),
(288,546,o),
(235,480,c),
(231,480,l),
(283,687,l),
(525,687,l),
(541,753,l),
(299,753,l),
(321,840,l),
(231,840,l),
(209,753,l),
(125,753,l),
(109,687,l),
(193,687,l),
(21,0,l)
);
}
);
userData = {
com.schriftgestaltung.Glyphs.category = Letter;
com.schriftgestaltung.Glyphs.script = latin;
com.schriftgestaltung.Glyphs.subCategory = Lowercase;
};
width = 690;
},
{
background = {
shapes = (
{
closed = 1;
nodes = (
(175,0,l),
(248,291,ls),
(267,369,o),
(320,417,o),
(386,417,cs),
(452,417,o),
(481,369,o),
(462,291,cs),
(389,0,l),
(569,0,l),
(651,327,ls),
(688,476,o),
(623,581,o),
(495,581,cs),
(418,581,o),
(352,549,o),
(301,490,c),
(297,490,l),
(340,660,l),
(548,660,l),
(578,780,l),
(370,780,l),
(385,840,l),
(205,840,l),
(190,780,l),
(132,780,l),
(102,660,l),
(160,660,l),
(-5,0,l)
);
}
);
};
layerId = "FB8C5FF2-3B42-4CDF-AA26-B13980DDC748";
shapes = (
{
closed = 1;
nodes = (
(175,0,l),
(248,291,ls),
(268,369,o),
(320,417,o),
(386,417,cs),
(453,417,o),
(482,368,o),
(462,291,cs),
(389,0,l),
(569,0,l),
(648,318,ls),
(686,470,o),
(617,581,o),
(485,581,cs),
(415,581,o),
(353,550,o),
(301,490,c),
(297,490,l),
(340,660,l),
(548,660,l),
(578,780,l),
(370,780,l),
(385,840,l),
(205,840,l),
(190,780,l),
(132,780,l),
(102,660,l),
(160,660,l),
(-5,0,l)
);
}
);
userData = {
com.schriftgestaltung.Glyphs.category = Letter;
com.schriftgestaltung.Glyphs.script = latin;
com.schriftgestaltung.Glyphs.subCategory = Lowercase;
};
width = 710;
}
);
unicode = 295;
},
{
glyphname = idotless;
kernLeft = n;
kernRight = u;
lastChange = "2024-05-08 14:48:24 +0000";
layers = (
{
anchors = (
{
name = bottom;
pos = (70,0);
},
{
name = ogonek;
pos = (115,0);
},
{
name = top;
pos = (220,600);
}
);
background = {
anchors = (
{
name = bottom;
pos = (70,0);
},
{
name = ogonek;
pos = (115,0);
},
{
name = top;
pos = (220,600);
}
);
shapes = (
{
closed = 1;
nodes = (
(115,0,l),
(265,600,l),
(175,600,l),
(25,0,l)
);
}
);
};
layerId = "4683CC84-822E-4D29-9A51-72FC3DB48604";
shapes = (
{
closed = 1;
nodes = (
(115,0,l),
(265,600,l),
(175,600,l),
(25,0,l)
);
}
);
userData = {
com.schriftgestaltung.Glyphs.category = Letter;
com.schriftgestaltung.Glyphs.script = latin;
com.schriftgestaltung.Glyphs.subCategory = Lowercase;
};
width = 290;
},
{
anchors = (
{
name = bottom;
pos = (85,0);
},
{
name = ogonek;
pos = (175,0);
},
{
name = top;
pos = (235,600);
}
);
background = {
anchors = (
{
name = bottom;
pos = (85,0);
},
{
name = ogonek;
pos = (175,0);
},
{
name = top;
pos = (235,600);
}
);
shapes = (
{
closed = 1;
nodes = (
(175,0,l),
(325,600,l),
(145,600,l),
(-5,0,l)
);
}
);
};
layerId = "FB8C5FF2-3B42-4CDF-AA26-B13980DDC748";
shapes = (
{
closed = 1;
nodes = (
(175,0,l),
(325,600,l),
(145,600,l),
(-5,0,l)
);
}
);
userData = {
com.schriftgestaltung.Glyphs.category = Letter;
com.schriftgestaltung.Glyphs.script = latin;
com.schriftgestaltung.Glyphs.subCategory = Lowercase;
};
width = 320;
}
);
unicode = 305;
},
{
glyphname = jdotless;
kernLeft = n;
kernRight = u;
lastChange = "2024-05-08 14:48:24 +0000";
layers = (
{
anchors = (
{
name = bottom;
pos = (-47,-240);
},
{
name = top;
pos = (223,600);
}
);
background = {
anchors = (
{
name = bottom;
pos = (-47,-240);
},
{
name = top;
pos = (223,600);
}
);
shapes = (
{
closed = 1;
nodes = (
(-32,-240,ls),
(24,-240,o),
(66,-210,o),
(81,-150,cs),
(268,600,l),
(178,600,l),
(-14,-168,l),
(-135,-168,l),
(-153,-240,l)
);
}
);
};
layerId = "4683CC84-822E-4D29-9A51-72FC3DB48604";
shapes = (
{
closed = 1;
nodes = (
(-32,-240,ls),
(24,-240,o),
(66,-210,o),
(81,-150,cs),
(268,600,l),
(178,600,l),
(-14,-168,l),
(-135,-168,l),
(-153,-240,l)
);
}
);
userData = {
com.schriftgestaltung.Glyphs.category = Letter;
com.schriftgestaltung.Glyphs.glyph.widthMetricsKey = "=j";
com.schriftgestaltung.Glyphs.script = latin;
com.schriftgestaltung.Glyphs.subCategory = Lowercase;
};
width = 283;
},
{
anchors = (
{
name = bottom;
pos = (-22,-240);
},
{
name = top;
pos = (235,600);
}
);
background = {
anchors = (
{
name = bottom;
pos = (-22,-240);
},
{
name = top;
pos = (235,600);
}
);
shapes = (
{
closed = 1;
nodes = (
(-29,-240,ls),
(64,-240,o),
(127,-194,o),
(151,-96,cs),
(325,600,l),
(145,600,l),
(-29,-96,l),
(-123,-96,l),
(-159,-240,l)
);
}
);
};
layerId = "FB8C5FF2-3B42-4CDF-AA26-B13980DDC748";
shapes = (
{
closed = 1;
nodes = (
(-29,-240,ls),
(64,-240,o),
(127,-194,o),
(151,-96,cs),
(325,600,l),
(145,600,l),
(-29,-96,l),
(-123,-96,l),
(-159,-240,l)
);
}
);
userData = {
com.schriftgestaltung.Glyphs.category = Letter;
com.schriftgestaltung.Glyphs.glyph.widthMetricsKey = "=j";
com.schriftgestaltung.Glyphs.script = latin;
com.schriftgestaltung.Glyphs.subCategory = Lowercase;
};
width = 320;
}
);
unicode = 567;
},
{
glyphname = k;
kernLeft = b;
kernRight = k;
lastChange = "2024-05-08 15:38:29 +0000";
layers = (
{
anchors = (
{
name = bottom;
pos = (235,0);
},
{
name = top;
pos = (475,960);
}
);
background = {
anchors = (
{
name = bottom;
pos = (235,0);
},
{
name = top;
pos = (475,960);
}
);
shapes = (
{
closed = 1;
nodes = (
(111,0,l),
(166,220,l),
(262,290,l),
(416,0,l),
(527,0,l),
(338,346,l),
(653,600,l),
(544,600,l),
(193,312,l),
(189,312,l),
(321,840,l),
(231,840,l),
(21,0,l)
);
}
);
};
guides = (
{
angle = 226.8117;
pos = (471,600);
},
{
angle = 46.6103;
pos = (556,578);
}
);
layerId = "4683CC84-822E-4D29-9A51-72FC3DB48604";
shapes = (
{
closed = 1;
nodes = (
(111,0,l),
(166,220,l),
(262,290,l),
(428,0,l),
(527,0,l),
(333,330,l),
(653,600,l),
(544,600,l),
(193,312,l),
(189,312,l),
(321,840,l),
(231,840,l),
(21,0,l)
);
}
);
userData = {
com.schriftgestaltung.Glyphs.category = Letter;
com.schriftgestaltung.Glyphs.script = latin;
com.schriftgestaltung.Glyphs.subCategory = Lowercase;
};
width = 620;
},
{
anchors = (
{
name = bottom;
pos = (265,0);
},
{
name = top;
pos = (505,960);
}
);
background = {
anchors = (
{
name = bottom;
pos = (265,0);
},
{
name = top;
pos = (505,960);
}
);
shapes = (
{
closed = 1;
nodes = (
(175,0,l),
(225,200,l),
(287,246,l),
(388,0,l),
(597,0,l),
(445,363,l),
(729,600,l),
(515,600,l),
(280,403,l),
(276,403,l),
(385,840,l),
(205,840,l),
(-5,0,l)
);
}
);
};
guides = (
{
angle = 46.4879;
pos = (542,482);
}
);
layerId = "FB8C5FF2-3B42-4CDF-AA26-B13980DDC748";
shapes = (
{
closed = 1;
nodes = (
(175,0,l),
(225,200,l),
(287,246,l),
(400,0,l),
(597,0,l),
(440,343,l),
(729,600,l),
(515,600,l),
(280,403,l),
(276,403,l),
(385,840,l),
(205,840,l),
(-5,0,l)
);
}
);
userData = {
com.schriftgestaltung.Glyphs.category = Letter;
com.schriftgestaltung.Glyphs.script = latin;
com.schriftgestaltung.Glyphs.subCategory = Lowercase;
};
width = 680;
}
);
unicode = 107;
},
{
glyphname = l;
kernLeft = b;
kernRight = d;
lastChange = "2024-05-08 14:48:24 +0000";
layers = (
{
anchors = (
{
name = bottom;
pos = (70,0);
},
{
name = center;
pos = (190,480);
},
{
name = top;
pos = (280,840);
},
{
name = topright;
pos = (325,840);
}
);
background = {
anchors = (
{
name = bottom;
pos = (70,0);
},
{
name = center;
pos = (190,480);
},
{
name = top;
pos = (280,840);
},
{
name = topright;
pos = (325,840);
}
);
shapes = (
{
closed = 1;
nodes = (
(115,0,l),
(325,840,l),
(235,840,l),
(25,0,l)
);
}
);
};
layerId = "4683CC84-822E-4D29-9A51-72FC3DB48604";
shapes = (
{
closed = 1;
nodes = (
(115,0,l),
(325,840,l),
(235,840,l),
(25,0,l)
);
}
);
userData = {
com.schriftgestaltung.Glyphs.category = Letter;
com.schriftgestaltung.Glyphs.script = latin;
com.schriftgestaltung.Glyphs.subCategory = Lowercase;
};
width = 290;
},
{
anchors = (
{
name = bottom;
pos = (85,0);
},
{
name = center;
pos = (205,480);
},
{
name = top;
pos = (295,840);
},
{
name = topright;
pos = (385,840);
}
);
background = {
anchors = (
{
name = bottom;
pos = (85,0);
},
{
name = center;
pos = (205,480);
},
{
name = top;
pos = (295,840);
},
{
name = topright;
pos = (385,840);
}
);
shapes = (
{
closed = 1;
nodes = (
(175,0,l),
(385,840,l),
(205,840,l),
(-5,0,l)
);
}
);
};
layerId = "FB8C5FF2-3B42-4CDF-AA26-B13980DDC748";
shapes = (
{
closed = 1;
nodes = (
(175,0,l),
(385,840,l),
(205,840,l),
(-5,0,l)
);
}
);
userData = {
com.schriftgestaltung.Glyphs.category = Letter;
com.schriftgestaltung.Glyphs.script = latin;
com.schriftgestaltung.Glyphs.subCategory = Lowercase;
};
width = 320;
}
);
unicode = 108;
},
{
glyphname = lslash;
kernLeft = b;
kernRight = d;
lastChange = "2024-05-08 14:48:24 +0000";
layers = (
{
background = {
shapes = (
{
closed = 1;
nodes = (
(145,0,l),
(239,378,l),
(353,432,l),
(371,504,l),
(257,450,l),
(355,840,l),
(265,840,l),
(155,402,l),
(42,348,l),
(24,276,l),
(137,330,l),
(55,0,l)
);
}
);
};
guides = (
{
angle = 28.2854;
pos = (30,261);
}
);
layerId = "4683CC84-822E-4D29-9A51-72FC3DB48604";
shapes = (
{
closed = 1;
nodes = (
(145,0,l),
(239,378,l),
(353,432,l),
(371,504,l),
(257,450,l),
(355,840,l),
(265,840,l),
(155,402,l),
(42,348,l),
(24,276,l),
(137,330,l),
(55,0,l)
);
}
);
userData = {
com.schriftgestaltung.Glyphs.category = Letter;
com.schriftgestaltung.Glyphs.script = latin;
com.schriftgestaltung.Glyphs.subCategory = Lowercase;
};
width = 350;
},
{
background = {
shapes = (
{
closed = 1;
nodes = (
(205,0,l),
(295,361,l),
(375,399,l),
(413,553,l),
(334,515,l),
(415,840,l),
(235,840,l),
(130,419,l),
(50,381,l),
(12,227,l),
(91,265,l),
(25,0,l)
);
}
);
};
guides = (
{
angle = 28.2772;
pos = (175,339);
}
);
layerId = "FB8C5FF2-3B42-4CDF-AA26-B13980DDC748";
shapes = (
{
closed = 1;
nodes = (
(205,0,l),
(295,361,l),
(375,399,l),
(413,553,l),
(334,515,l),
(415,840,l),
(235,840,l),
(130,419,l),
(50,381,l),
(12,227,l),
(91,265,l),
(25,0,l)
);
}
);
userData = {
com.schriftgestaltung.Glyphs.category = Letter;
com.schriftgestaltung.Glyphs.script = latin;
com.schriftgestaltung.Glyphs.subCategory = Lowercase;
};
width = 380;
}
);
unicode = 322;
},
{
glyphname = m;
kernLeft = n;
kernRight = h;
lastChange = "2024-05-08 15:38:51 +0000";
layers = (
{
anchors = (
{
name = bottom;
pos = (445,0);
},
{
name = top;
pos = (595,600);
}
);
background = {
anchors = (
{
name = bottom;
pos = (445,0);
},
{
name = top;
pos = (595,600);
}
);
shapes = (
{
closed = 1;
nodes = (
(111,0,l),
(202,363,ls),
(228,468,o),
(299,529,o),
(389,529,cs),
(479,529,o),
(519,468,o),
(493,363,cs),
(402,0,l),
(492,0,l),
(583,363,ls),
(609,468,o),
(680,529,o),
(770,529,cs),
(860,529,o),
(900,468,o),
(874,363,cs),
(783,0,l),
(873,0,l),
(967,375,ls),
(1003,519,o),
(942,611,o),
(816,611,cs),
(732,611,o),
(654,569,o),
(598,492,c),
(595,492,l),
(580,569,o),
(525,611,o),
(442,611,cs),
(359,611,o),
(287,572,o),
(240,500,c),
(236,500,l),
(261,600,l),
(171,600,l),
(21,0,l)
);
}
);
};
layerId = "4683CC84-822E-4D29-9A51-72FC3DB48604";
name = "Light alt";
shapes = (
{
closed = 1;
nodes = (
(111,0,l),
(202,363,ls),
(228,467,o),
(298,529,o),
(389,529,cs),
(480,529,o),
(519,467,o),
(493,363,cs),
(402,0,l),
(492,0,l),
(583,363,ls),
(609,467,o),
(679,529,o),
(770,529,cs),
(861,529,o),
(900,467,o),
(874,363,cs),
(783,0,l),
(873,0,l),
(965,366,ls),
(1001,507,o),
(934,611,o),
(806,611,cs),
(725,611,o),
(651,570,o),
(594,492,c),
(591,492,l),
(576,568,o),
(518,611,o),
(432,611,cs),
(353,611,o),
(288,574,o),
(240,500,c),
(236,500,l),
(261,600,l),
(171,600,l),
(21,0,l)
);
}
);
userData = {
com.schriftgestaltung.Glyphs.category = Letter;
com.schriftgestaltung.Glyphs.script = latin;
com.schriftgestaltung.Glyphs.subCategory = Lowercase;
};
width = 1040;
},
{
anchors = (
{
name = bottom;
pos = (465,0);
},
{
name = top;
pos = (615,600);
}
);
background = {
anchors = (
{
name = bottom;
pos = (465,0);
},
{
name = top;
pos = (615,600);
}
);
shapes = (
{
closed = 1;
nodes = (
(175,0,l),
(255,321,ls),
(275,400,o),
(322,447,o),
(386,447,cs),
(450,447,o),
(477,399,o),
(457,321,cs),
(377,0,l),
(557,0,l),
(637,321,ls),
(657,399,o),
(708,447,o),
(770,447,cs),
(833,447,o),
(859,399,o),
(839,321,cs),
(759,0,l),
(939,0,l),
(1028,357,ls),
(1065,506,o),
(996,611,o),
(854,611,cs),
(775,611,o),
(701,576,o),
(641,515,c),
(638,515,l),
(616,576,o),
(564,611,o),
(489,611,cs),
(415,611,o),
(348,579,o),
(298,515,c),
(294,515,l),
(315,600,l),
(145,600,l),
(-5,0,l)
);
}
);
};
guides = (
{
pos = (240,486);
}
);
layerId = "FB8C5FF2-3B42-4CDF-AA26-B13980DDC748";
name = "Bold alt";
shapes = (
{
closed = 1;
nodes = (
(175,0,l),
(255,321,ls),
(275,401,o),
(323,447,o),
(386,447,cs),
(449,447,o),
(476,400,o),
(457,321,cs),
(377,0,l),
(557,0,l),
(637,321,ls),
(656,398,o),
(707,447,o),
(770,447,cs),
(832,447,o),
(858,400,o),
(839,321,cs),
(759,0,l),
(939,0,l),
(1026,348,ls),
(1063,497,o),
(985,611,o),
(844,611,cs),
(768,611,o),
(699,579,o),
(636,515,c),
(633,515,l),
(611,576,o),
(554,611,o),
(479,611,cs),
(407,611,o),
(349,581,o),
(298,515,c),
(294,515,l),
(315,600,l),
(145,600,l),
(-5,0,l)
);
}
);
userData = {
com.schriftgestaltung.Glyphs.category = Letter;
com.schriftgestaltung.Glyphs.script = latin;
com.schriftgestaltung.Glyphs.subCategory = Lowercase;
};
width = 1080;
}
);
unicode = 109;
},
{
glyphname = n;
kernLeft = n;
kernRight = h;
lastChange = "2024-05-08 15:39:04 +0000";
layers = (
{
anchors = (
{
name = bottom;
pos = (282,0);
},
{
name = top;
pos = (432,600);
}
);
background = {
anchors = (
{
name = bottom;
pos = (282,0);
},
{
name = top;
pos = (432,600);
}
);
shapes = (
{
closed = 1;
nodes = (
(175,0,l),
(255,321,ls),
(275,399,o),
(328,447,o),
(394,447,cs),
(460,447,o),
(489,399,o),
(469,321,cs),
(389,0,l),
(569,0,l),
(658,357,ls),
(695,506,o),
(631,611,o),
(502,611,cs),
(422,611,o),
(352,577,o),
(301,514,c),
(297,514,l),
(319,600,l),
(145,600,l),
(-5,0,l)
);
}
);
};
guides = (
{
angle = 270;
pos = (61,300);
},
{
angle = 90;
pos = (241,178);
},
{
angle = 90;
pos = (653,185);
},
{
angle = 270;
pos = (473,178);
}
);
layerId = "FB8C5FF2-3B42-4CDF-AA26-B13980DDC748";
name = "Bold alt";
shapes = (
{
closed = 1;
nodes = (
(175,0,l),
(255,321,ls),
(274,399,o),
(328,447,o),
(394,447,cs),
(460,447,o),
(488,399,o),
(469,321,cs),
(389,0,l),
(569,0,l),
(656,348,ls),
(693,496,o),
(621,611,o),
(492,611,cs),
(412,611,o),
(352,577,o),
(301,514,c),
(297,514,l),
(319,600,l),
(145,600,l),
(-5,0,l)
);
}
);
userData = {
com.schriftgestaltung.Glyphs.category = Letter;
com.schriftgestaltung.Glyphs.script = latin;
com.schriftgestaltung.Glyphs.subCategory = Lowercase;
};
width = 710;
},
{
anchors = (
{
name = bottom;
pos = (272,0);
},
{
name = top;
pos = (422,600);
}
);
background = {
anchors = (
{
name = bottom;
pos = (272,0);
},
{
name = top;
pos = (422,600);
}
);
shapes = (
{
closed = 1;
nodes = (
(111,0,l),
(200,355,ls),
(227,463,o),
(303,529,o),
(404,529,cs),
(505,529,o),
(549,463,o),
(522,355,cs),
(433,0,l),
(523,0,l),
(615,369,ls),
(651,511,o),
(585,611,o),
(454,611,cs),
(369,611,o),
(293,572,o),
(240,500,c),
(236,500,l),
(261,600,l),
(171,600,l),
(21,0,l)
);
}
);
};
layerId = "4683CC84-822E-4D29-9A51-72FC3DB48604";
name = "Light alt";
shapes = (
{
closed = 1;
nodes = (
(111,0,l),
(200,355,ls),
(227,464,o),
(304,529,o),
(404,529,cs),
(505,529,o),
(549,463,o),
(522,355,cs),
(433,0,l),
(523,0,l),
(613,359,ls),
(649,504,o),
(577,611,o),
(444,611,cs),
(364,611,o),
(293,573,o),
(240,500,c),
(236,500,l),
(261,600,l),
(171,600,l),
(21,0,l)
);
}
);
userData = {
com.schriftgestaltung.Glyphs.category = Letter;
com.schriftgestaltung.Glyphs.script = latin;
com.schriftgestaltung.Glyphs.subCategory = Lowercase;
};
width = 690;
}
);
unicode = 110;
},
{
glyphname = eng;
kernLeft = n;
kernRight = h;
lastChange = "2024-05-09 09:05:10 +0000";
layers = (
{
anchors = (
{
name = bottom;
pos = (209,-240);
},
{
name = top;
pos = (419,600);
}
);
background = {
anchors = (
{
name = bottom;
pos = (209,-240);
},
{
name = top;
pos = (419,600);
}
);
shapes = (
{
closed = 1;
nodes = (
(373,-240,ls),
(429,-240,o),
(471,-210,o),
(486,-150,cs),
(615,369,ls),
(651,511,o),
(585,611,o),
(454,611,cs),
(369,611,o),
(293,572,o),
(240,500,c),
(236,500,l),
(261,600,l),
(171,600,l),
(21,0,l),
(111,0,l),
(200,355,ls),
(227,463,o),
(303,529,o),
(404,529,cs),
(505,529,o),
(549,463,o),
(522,355,cs),
(391,-168,l),
(258,-168,l),
(240,-240,l)
);
}
);
};
layerId = "4683CC84-822E-4D29-9A51-72FC3DB48604";
shapes = (
{
closed = 1;
nodes = (
(373,-240,ls),
(431,-240,o),
(472,-208,o),
(486,-150,cs),
(613,359,ls),
(649,504,o),
(577,611,o),
(444,611,cs),
(364,611,o),
(293,573,o),
(240,500,c),
(236,500,l),
(261,600,l),
(171,600,l),
(21,0,l),
(111,0,l),
(200,355,ls),
(227,464,o),
(304,529,o),
(404,529,cs),
(505,529,o),
(549,463,o),
(522,355,cs),
(391,-168,l),
(258,-168,l),
(240,-240,l)
);
}
);
userData = {
com.schriftgestaltung.Glyphs.category = Letter;
com.schriftgestaltung.Glyphs.script = latin;
com.schriftgestaltung.Glyphs.subCategory = Lowercase;
};
width = 690;
},
{
anchors = (
{
name = bottom;
pos = (221,-240);
},
{
name = top;
pos = (430,600);
}
);
background = {
anchors = (
{
name = bottom;
pos = (221,-240);
},
{
name = top;
pos = (430,600);
}
);
shapes = (
{
closed = 1;
nodes = (
(365,-240,ls),
(458,-240,o),
(521,-194,o),
(545,-96,cs),
(658,357,ls),
(695,506,o),
(631,611,o),
(502,611,cs),
(422,611,o),
(352,577,o),
(301,514,c),
(297,514,l),
(319,600,l),
(145,600,l),
(-5,0,l),
(175,0,l),
(255,321,ls),
(275,399,o),
(328,447,o),
(394,447,cs),
(460,447,o),
(489,399,o),
(469,321,cs),
(365,-96,l),
(257,-96,l),
(221,-240,l)
);
}
);
};
layerId = "FB8C5FF2-3B42-4CDF-AA26-B13980DDC748";
shapes = (
{
closed = 1;
nodes = (
(365,-240,ls),
(461,-240,o),
(522,-191,o),
(545,-96,cs),
(656,348,ls),
(694,500,o),
(625,611,o),
(492,611,cs),
(419,611,o),
(352,577,o),
(301,514,c),
(297,514,l),
(319,600,l),
(145,600,l),
(-5,0,l),
(175,0,l),
(255,321,ls),
(274,399,o),
(328,447,o),
(394,447,cs),
(460,447,o),
(488,399,o),
(469,321,cs),
(365,-96,l),
(257,-96,l),
(221,-240,l)
);
}
);
userData = {
com.schriftgestaltung.Glyphs.category = Letter;
com.schriftgestaltung.Glyphs.script = latin;
com.schriftgestaltung.Glyphs.subCategory = Lowercase;
};
width = 710;
}
);
unicode = 331;
},
{
glyphname = o;
kernLeft = d;
kernRight = b;
lastChange = "2024-06-03 05:57:39 +0000";
layers = (
{
anchors = (
{
name = bottom;
pos = (265,0);
},
{
name = center;
pos = (340,300);
},
{
name = ogonek;
pos = (539,10);
},
{
name = top;
pos = (415,600);
},
{
name = topright;
pos = (735,600);
}
);
background = {
anchors = (
{
name = bottom;
pos = (265,0);
},
{
name = center;
pos = (340,300);
},
{
name = ogonek;
pos = (539,10);
},
{
name = top;
pos = (415,600);
},
{
name = topright;
pos = (735,600);
}
);
shapes = (
{
closed = 1;
nodes = (
(424,-12,o),
(570,109,o),
(618,300,cs),
(666,492,o),
(581,612,o),
(418,612,cs),
(258,612,o),
(110,491,o),
(62,300,cs),
(14,110,o),
(102,-12,o),
(262,-12,cs)
);
},
{
closed = 1;
nodes = (
(168,70,o),
(117,161,o),
(152,300,cs),
(187,440,o),
(283,530,o),
(397,530,cs),
(513,530,o),
(563,440,o),
(528,300,cs),
(493,161,o),
(398,70,o),
(282,70,cs)
);
}
);
};
layerId = "4683CC84-822E-4D29-9A51-72FC3DB48604";
shapes = (
{
closed = 1;
nodes = (
(434,-12,o),
(570,108,o),
(616,291,cs),
(664,482,o),
(580,612,o),
(408,612,cs),
(248,612,o),
(110,490,o),
(64,309,cs),
(16,120,o),
(101,-12,o),
(272,-12,cs)
);
},
{
closed = 1;
nodes = (
(167,70,o),
(117,159,o),
(152,300,cs),
(187,440,o),
(283,530,o),
(397,530,cs),
(512,530,o),
(563,440,o),
(528,300,cs),
(493,160,o),
(396,70,o),
(282,70,cs)
);
}
);
userData = {
com.schriftgestaltung.Glyphs.category = Letter;
com.schriftgestaltung.Glyphs.script = latin;
com.schriftgestaltung.Glyphs.subCategory = Lowercase;
};
width = 680;
},
{
anchors = (
{
name = bottom;
pos = (265,0);
},
{
name = center;
pos = (340,300);
},
{
name = ogonek;
pos = (539,10);
},
{
name = top;
pos = (415,600);
},
{
name = topright;
pos = (735,600);
}
);
background = {
anchors = (
{
name = bottom;
pos = (265,0);
},
{
name = center;
pos = (340,300);
},
{
name = ogonek;
pos = (539,10);
},
{
name = top;
pos = (415,600);
},
{
name = topright;
pos = (735,600);
}
);
shapes = (
{
closed = 1;
nodes = (
(438,-12,o),
(594,109,o),
(642,300,cs),
(690,492,o),
(595,612,o),
(418,612,cs),
(244,612,o),
(86,491,o),
(38,300,cs),
(-10,110,o),
(88,-12,o),
(262,-12,cs)
);
},
{
closed = 1;
nodes = (
(231,148,o),
(195,207,o),
(218,300,cs),
(241,394,o),
(307,452,o),
(378,452,cs),
(450,452,o),
(485,394,o),
(462,300,cs),
(439,207,o),
(374,148,o),
(302,148,cs)
);
}
);
};
layerId = "FB8C5FF2-3B42-4CDF-AA26-B13980DDC748";
shapes = (
{
closed = 1;
nodes = (
(454,-12,o),
(595,105,o),
(640,291,cs),
(685,479,o),
(589,612,o),
(408,612,cs),
(229,612,o),
(87,495,o),
(40,309,cs),
(-7,125,o),
(92,-12,o),
(272,-12,cs)
);
},
{
closed = 1;
nodes = (
(229,148,o),
(196,209,o),
(218,300,cs),
(240,391,o),
(305,452,o),
(378,452,cs),
(451,452,o),
(485,392,o),
(462,300,cs),
(439,209,o),
(375,148,o),
(302,148,cs)
);
}
);
userData = {
com.schriftgestaltung.Glyphs.category = Letter;
com.schriftgestaltung.Glyphs.script = latin;
com.schriftgestaltung.Glyphs.subCategory = Lowercase;
};
width = 680;
}
);
unicode = 111;
},
{
glyphname = oslash;
kernLeft = d;
kernRight = b;
lastChange = "2024-05-08 16:23:14 +0000";
layers = (
{
anchors = (
{
name = top;
pos = (415,600);
}
);
background = {
anchors = (
{
name = top;
pos = (415,600);
}
);
shapes = (
{
closed = 1;
nodes = (
(121,32,l),
(157,3,o),
(205,-12,o),
(262,-12,cs),
(424,-12,o),
(570,109,o),
(618,300,cs),
(641,393,o),
(634,468,o),
(601,522,c),
(673,595,l),
(623,633,l),
(560,568,l),
(524,597,o),
(477,612,o),
(418,612,cs),
(258,612,o),
(110,491,o),
(62,300,cs),
(39,208,o),
(47,132,o),
(81,79,c),
(7,3,l),
(54,-36,l)
);
},
{
closed = 1;
nodes = (
(134,187,o),
(133,239,o),
(148,300,cs),
(183,442,o),
(282,533,o),
(398,533,cs),
(439,533,o),
(472,522,o),
(496,502,c),
(149,146,l)
);
},
{
closed = 1;
nodes = (
(242,67,o),
(211,79,o),
(186,101,c),
(531,452,l),
(546,413,o),
(547,360,o),
(532,300,cs),
(497,159,o),
(400,67,o),
(282,67,cs)
);
}
);
};
guides = (
{
angle = -44.45;
pos = (623,633);
}
);
layerId = "4683CC84-822E-4D29-9A51-72FC3DB48604";
shapes = (
{
closed = 1;
nodes = (
(124,35,l),
(161,5,o),
(211,-12,o),
(272,-12,cs),
(434,-12,o),
(570,108,o),
(616,291,cs),
(639,384,o),
(631,462,o),
(598,518,c),
(667,589,l),
(623,633,l),
(557,565,l),
(520,595,o),
(470,612,o),
(408,612,cs),
(248,612,o),
(110,490,o),
(64,309,cs),
(41,216,o),
(49,138,o),
(84,81,c),
(11,7,l),
(54,-36,l)
);
},
{
closed = 1;
nodes = (
(138,189,o),
(137,240,o),
(152,300,cs),
(187,440,o),
(283,530,o),
(397,530,cs),
(437,530,o),
(469,519,o),
(492,499,c),
(152,151,l)
);
},
{
closed = 1;
nodes = (
(243,70,o),
(211,80,o),
(187,100,c),
(528,447,l),
(542,409,o),
(543,359,o),
(528,300,cs),
(493,160,o),
(396,70,o),
(282,70,cs)
);
}
);
userData = {
com.schriftgestaltung.Glyphs.category = Letter;
com.schriftgestaltung.Glyphs.script = latin;
com.schriftgestaltung.Glyphs.subCategory = Lowercase;
};
width = 680;
},
{
anchors = (
{
name = top;
pos = (415,600);
}
);
background = {
anchors = (
{
name = top;
pos = (415,600);
}
);
shapes = (
{
closed = 1;
nodes = (
(124,22,l),
(162,0,o),
(208,-12,o),
(262,-12,cs),
(438,-12,o),
(594,109,o),
(642,300,cs),
(666,396,o),
(654,474,o),
(615,528,c),
(671,586,l),
(610,634,l),
(557,579,l),
(519,601,o),
(473,612,o),
(418,612,cs),
(244,612,o),
(86,491,o),
(38,300,cs),
(14,205,o),
(27,127,o),
(66,73,c),
(6,11,l),
(67,-37,l)
);
},
{
closed = 1;
nodes = (
(203,235,o),
(203,265,o),
(212,300,cs),
(236,398,o),
(305,458,o),
(379,458,cs),
(401,458,o),
(421,453,o),
(436,443,c),
(209,211,l)
);
},
{
closed = 1;
nodes = (
(279,142,o),
(261,147,o),
(246,157,c),
(472,388,l),
(478,364,o),
(476,334,o),
(468,300,cs),
(444,203,o),
(376,142,o),
(300,142,cs)
);
}
);
};
guides = (
{
angle = -44.1128;
pos = (610,634);
}
);
layerId = "FB8C5FF2-3B42-4CDF-AA26-B13980DDC748";
shapes = (
{
closed = 1;
nodes = (
(128,26,l),
(167,2,o),
(215,-12,o),
(272,-12,cs),
(454,-12,o),
(595,105,o),
(640,291,cs),
(662,385,o),
(650,465,o),
(609,522,c),
(665,580,l),
(610,634,l),
(553,574,l),
(514,599,o),
(465,612,o),
(408,612,cs),
(229,612,o),
(87,495,o),
(40,309,cs),
(16,217,o),
(30,136,o),
(71,79,c),
(12,17,l),
(67,-37,l)
);
},
{
closed = 1;
nodes = (
(205,237,o),
(206,267,o),
(214,300,cs),
(237,394,o),
(304,457,o),
(379,457,cs),
(400,457,o),
(419,452,o),
(433,443,c),
(210,213,l)
);
},
{
closed = 1;
nodes = (
(280,143,o),
(262,148,o),
(247,157,c),
(470,387,l),
(476,363,o),
(474,334,o),
(466,300,cs),
(442,206,o),
(376,143,o),
(301,143,cs)
);
}
);
userData = {
com.schriftgestaltung.Glyphs.category = Letter;
com.schriftgestaltung.Glyphs.script = latin;
com.schriftgestaltung.Glyphs.subCategory = Lowercase;
};
width = 680;
}
);
unicode = 248;
},
{
glyphname = oe;
kernLeft = d;
kernRight = e;
lastChange = "2024-05-08 16:23:43 +0000";
layers = (
{
anchors = (
{
name = bottom;
pos = (590,0);
},
{
name = top;
pos = (740,600);
}
);
background = {
anchors = (
{
name = bottom;
pos = (590,0);
},
{
name = top;
pos = (740,600);
}
);
shapes = (
{
closed = 1;
nodes = (
(360,-12,o),
(455,36,o),
(523,126,c),
(527,126,l),
(552,36,o),
(624,-12,o),
(722,-12,cs),
(843,-12,o),
(957,59,o),
(1014,179,c),
(922,179,l),
(886,112,o),
(816,70,o),
(741,70,cs),
(633,70,o),
(579,155,o),
(607,289,c),
(1043,289,l),
(1054,334,ls),
(1097,504,o),
(1017,612,o),
(872,612,cs),
(776,612,o),
(682,565,o),
(616,480,c),
(612,480,l),
(587,566,o),
(516,612,o),
(416,612,cs),
(258,612,o),
(110,491,o),
(62,300,cs),
(14,110,o),
(102,-12,o),
(260,-12,cs)
);
},
{
closed = 1;
nodes = (
(168,70,o),
(117,161,o),
(152,300,cs),
(187,440,o),
(283,530,o),
(395,530,cs),
(509,530,o),
(559,440,o),
(524,300,cs),
(489,161,o),
(394,70,o),
(280,70,cs)
);
},
{
closed = 1;
nodes = (
(675,468,o),
(760,532,o),
(851,532,cs),
(942,532,o),
(992,468,o),
(974,361,c),
(630,361,l)
);
}
);
};
layerId = "4683CC84-822E-4D29-9A51-72FC3DB48604";
shapes = (
{
closed = 1;
nodes = (
(371,-12,o),
(466,37,o),
(533,126,c),
(537,126,l),
(561,38,o),
(631,-12,o),
(732,-12,cs),
(853,-12,o),
(961,60,o),
(1018,179,c),
(922,179,l),
(886,112,o),
(817,70,o),
(741,70,cs),
(632,70,o),
(579,157,o),
(607,289,c),
(1043,289,l),
(1054,334,ls),
(1094,496,o),
(1014,612,o),
(862,612,cs),
(765,612,o),
(671,564,o),
(606,480,c),
(602,480,l),
(577,565,o),
(508,612,o),
(406,612,cs),
(248,612,o),
(110,490,o),
(64,309,cs),
(17,121,o),
(102,-12,o),
(270,-12,cs)
);
},
{
closed = 1;
nodes = (
(167,70,o),
(117,161,o),
(152,300,cs),
(187,440,o),
(283,530,o),
(395,530,cs),
(508,530,o),
(559,440,o),
(524,300,cs),
(489,161,o),
(393,70,o),
(280,70,cs)
);
},
{
closed = 1;
nodes = (
(674,466,o),
(759,532,o),
(851,532,cs),
(944,532,o),
(992,466,o),
(974,361,c),
(630,361,l)
);
}
);
userData = {
com.schriftgestaltung.Glyphs.category = Letter;
com.schriftgestaltung.Glyphs.script = latin;
com.schriftgestaltung.Glyphs.subCategory = Lowercase;
};
width = 1110;
},
{
anchors = (
{
name = bottom;
pos = (600,0);
},
{
name = top;
pos = (750,600);
}
);
background = {
anchors = (
{
name = bottom;
pos = (600,0);
},
{
name = top;
pos = (750,600);
}
);
shapes = (
{
closed = 1;
nodes = (
(342,-12,o),
(422,16,o),
(488,78,c),
(492,78,l),
(527,17,o),
(593,-12,o),
(677,-12,cs),
(818,-12,o),
(950,66,o),
(1006,197,c),
(822,197,l),
(800,156,o),
(762,132,o),
(712,132,cs),
(651,132,o),
(616,173,o),
(622,249,c),
(1019,249,l),
(1034,308,ls),
(1083,504,o),
(987,612,o),
(827,612,cs),
(745,612,o),
(669,585,o),
(604,522,c),
(600,522,l),
(565,584,o),
(499,612,o),
(416,612,cs),
(244,612,o),
(86,491,o),
(38,300,cs),
(-10,110,o),
(88,-12,o),
(260,-12,cs)
);
},
{
closed = 1;
nodes = (
(231,148,o),
(195,207,o),
(218,300,cs),
(241,394,o),
(307,452,o),
(376,452,cs),
(446,452,o),
(481,394,o),
(458,300,cs),
(435,207,o),
(370,148,o),
(300,148,cs)
);
},
{
closed = 1;
nodes = (
(687,434,o),
(737,468,o),
(792,468,cs),
(847,468,o),
(879,435,o),
(873,369,c),
(655,369,l)
);
}
);
};
layerId = "FB8C5FF2-3B42-4CDF-AA26-B13980DDC748";
shapes = (
{
closed = 1;
nodes = (
(352,-12,o),
(432,16,o),
(498,78,c),
(502,78,l),
(537,17,o),
(603,-12,o),
(687,-12,cs),
(828,-12,o),
(953,66,o),
(1009,197,c),
(822,197,l),
(800,156,o),
(761,132,o),
(713,132,cs),
(651,132,o),
(616,172,o),
(622,249,c),
(1019,249,l),
(1032,299,ls),
(1083,495,o),
(977,612,o),
(814,612,cs),
(736,612,o),
(659,585,o),
(594,522,c),
(590,522,l),
(555,584,o),
(489,612,o),
(405,612,cs),
(233,612,o),
(84,495,o),
(40,309,cs),
(-6,114,o),
(98,-12,o),
(271,-12,cs)
);
},
{
closed = 1;
nodes = (
(231,148,o),
(195,207,o),
(218,300,cs),
(241,394,o),
(307,452,o),
(376,452,cs),
(446,452,o),
(481,394,o),
(458,300,cs),
(435,207,o),
(370,148,o),
(300,148,cs)
);
},
{
closed = 1;
nodes = (
(687,434,o),
(737,468,o),
(792,468,cs),
(847,468,o),
(879,435,o),
(873,369,c),
(655,369,l)
);
}
);
userData = {
com.schriftgestaltung.Glyphs.category = Letter;
com.schriftgestaltung.Glyphs.script = latin;
com.schriftgestaltung.Glyphs.subCategory = Lowercase;
};
width = 1070;
}
);
unicode = 339;
},
{
glyphname = p;
kernLeft = n;
kernRight = b;
lastChange = "2024-05-08 15:40:07 +0000";
layers = (
{
anchors = (
{
name = bottom;
pos = (270,0);
},
{
name = top;
pos = (420,600);
}
);
background = {
anchors = (
{
name = bottom;
pos = (270,0);
},
{
name = top;
pos = (420,600);
}
);
shapes = (
{
closed = 1;
nodes = (
(51,-240,l),
(136,102,l),
(140,102,l),
(156,28,o),
(212,-12,o),
(301,-12,cs),
(451,-12,o),
(581,113,o),
(628,300,cs),
(675,487,o),
(607,612,o),
(457,612,cs),
(368,612,o),
(292,573,o),
(239,498,c),
(235,498,l),
(261,600,l),
(171,600,l),
(-39,-240,l)
);
},
{
closed = 1;
nodes = (
(191,71,o),
(147,143,o),
(174,251,cs),
(198,349,ls),
(225,457,o),
(306,532,o),
(414,532,cs),
(524,532,o),
(573,440,o),
(538,300,cs),
(503,160,o),
(408,68,o),
(298,68,cs)
);
}
);
};
layerId = "4683CC84-822E-4D29-9A51-72FC3DB48604";
shapes = (
{
closed = 1;
nodes = (
(51,-240,l),
(136,102,l),
(140,102,l),
(155,31,o),
(219,-12,o),
(311,-12,cs),
(457,-12,o),
(579,106,o),
(626,291,cs),
(674,484,o),
(603,612,o),
(447,612,cs),
(362,612,o),
(294,574,o),
(239,498,c),
(235,498,l),
(261,600,l),
(171,600,l),
(-39,-240,l)
);
},
{
closed = 1;
nodes = (
(197,69,o),
(148,142,o),
(174,251,cs),
(198,349,ls),
(224,459,o),
(311,532,o),
(414,532,cs),
(525,532,o),
(573,442,o),
(538,300,cs),
(501,154,o),
(410,66,o),
(298,68,cs)
);
}
);
userData = {
com.schriftgestaltung.Glyphs.category = Letter;
com.schriftgestaltung.Glyphs.script = latin;
com.schriftgestaltung.Glyphs.subCategory = Lowercase;
};
width = 690;
},
{
anchors = (
{
name = bottom;
pos = (275,0);
},
{
name = top;
pos = (425,600);
}
);
background = {
anchors = (
{
name = bottom;
pos = (275,0);
},
{
name = top;
pos = (425,600);
}
);
shapes = (
{
closed = 1;
nodes = (
(115,-240,l),
(194,77,l),
(198,77,l),
(215,20,o),
(262,-12,o),
(335,-12,cs),
(484,-12,o),
(615,114,o),
(662,300,cs),
(708,485,o),
(640,612,o),
(491,612,cs),
(416,612,o),
(352,579,o),
(302,518,c),
(298,518,l),
(319,600,l),
(145,600,l),
(-65,-240,l)
);
},
{
closed = 1;
nodes = (
(255,148,o),
(224,197,o),
(244,278,cs),
(255,322,ls),
(276,403,o),
(331,452,o),
(401,452,cs),
(475,452,o),
(505,393,o),
(482,300,cs),
(459,207,o),
(399,148,o),
(325,148,cs)
);
}
);
};
layerId = "FB8C5FF2-3B42-4CDF-AA26-B13980DDC748";
shapes = (
{
closed = 1;
nodes = (
(115,-240,l),
(194,77,l),
(198,77,l),
(215,20,o),
(269,-12,o),
(345,-12,cs),
(487,-12,o),
(613,110,o),
(659,291,cs),
(706,480,o),
(633,612,o),
(481,612,cs),
(410,612,o),
(355,583,o),
(302,518,c),
(298,518,l),
(319,600,l),
(145,600,l),
(-65,-240,l)
);
},
{
closed = 1;
nodes = (
(255,148,o),
(224,198,o),
(244,278,cs),
(255,322,ls),
(275,402,o),
(332,452,o),
(401,452,cs),
(474,452,o),
(505,394,o),
(482,300,cs),
(459,205,o),
(400,148,o),
(325,148,cs)
);
}
);
userData = {
com.schriftgestaltung.Glyphs.category = Letter;
com.schriftgestaltung.Glyphs.script = latin;
com.schriftgestaltung.Glyphs.subCategory = Lowercase;
};
width = 700;
}
);
unicode = 112;
},
{
glyphname = thorn;
kernLeft = b;
kernRight = b;
lastChange = "2024-05-09 09:02:27 +0000";
layers = (
{
anchors = (
{
name = bottom;
pos = (268,0);
},
{
name = top;
pos = (418,600);
}
);
background = {
anchors = (
{
name = bottom;
pos = (268,0);
},
{
name = top;
pos = (418,600);
}
);
shapes = (
{
closed = 1;
nodes = (
(51,-240,l),
(136,102,l),
(140,102,l),
(156,28,o),
(212,-12,o),
(301,-12,cs),
(451,-12,o),
(581,113,o),
(628,300,cs),
(675,487,o),
(607,612,o),
(457,612,cs),
(368,612,o),
(292,572,o),
(239,498,c),
(235,498,l),
(321,840,l),
(231,840,l),
(-39,-240,l)
);
},
{
closed = 1;
nodes = (
(191,71,o),
(147,143,o),
(174,251,cs),
(198,349,ls),
(225,457,o),
(306,532,o),
(414,532,cs),
(524,532,o),
(573,440,o),
(538,300,cs),
(503,160,o),
(408,68,o),
(298,68,cs)
);
}
);
};
layerId = "4683CC84-822E-4D29-9A51-72FC3DB48604";
shapes = (
{
closed = 1;
nodes = (
(51,-240,l),
(136,102,l),
(140,102,l),
(155,31,o),
(219,-12,o),
(311,-12,cs),
(456,-12,o),
(579,107,o),
(626,291,cs),
(674,484,o),
(603,612,o),
(447,612,cs),
(362,612,o),
(294,574,o),
(239,498,c),
(235,498,l),
(321,840,l),
(231,840,l),
(-39,-240,l)
);
},
{
closed = 1;
nodes = (
(197,69,o),
(148,142,o),
(174,251,cs),
(198,349,ls),
(225,458,o),
(311,532,o),
(414,532,cs),
(525,532,o),
(573,442,o),
(538,300,cs),
(501,154,o),
(410,66,o),
(298,68,cs)
);
}
);
userData = {
com.schriftgestaltung.Glyphs.category = Letter;
com.schriftgestaltung.Glyphs.script = latin;
com.schriftgestaltung.Glyphs.subCategory = Lowercase;
};
width = 690;
},
{
anchors = (
{
name = bottom;
pos = (275,0);
},
{
name = top;
pos = (425,600);
}
);
background = {
anchors = (
{
name = bottom;
pos = (275,0);
},
{
name = top;
pos = (425,600);
}
);
shapes = (
{
closed = 1;
nodes = (
(115,-240,l),
(194,77,l),
(198,77,l),
(215,20,o),
(262,-12,o),
(335,-12,cs),
(484,-12,o),
(615,114,o),
(662,300,cs),
(708,486,o),
(640,612,o),
(491,612,cs),
(418,612,o),
(355,580,o),
(310,523,c),
(306,523,l),
(385,840,l),
(205,840,l),
(-65,-240,l)
);
},
{
closed = 1;
nodes = (
(255,148,o),
(224,197,o),
(244,278,cs),
(255,322,ls),
(276,403,o),
(331,452,o),
(401,452,cs),
(475,452,o),
(505,393,o),
(482,300,cs),
(459,207,o),
(399,148,o),
(325,148,cs)
);
}
);
};
layerId = "FB8C5FF2-3B42-4CDF-AA26-B13980DDC748";
shapes = (
{
closed = 1;
nodes = (
(115,-240,l),
(194,77,l),
(198,77,l),
(215,20,o),
(269,-12,o),
(345,-12,cs),
(488,-12,o),
(613,109,o),
(659,291,cs),
(706,480,o),
(633,612,o),
(481,612,cs),
(411,612,o),
(358,584,o),
(310,523,c),
(306,523,l),
(385,840,l),
(205,840,l),
(-65,-240,l)
);
},
{
closed = 1;
nodes = (
(255,148,o),
(224,198,o),
(244,278,cs),
(255,322,ls),
(275,402,o),
(332,452,o),
(401,452,cs),
(474,452,o),
(505,394,o),
(482,300,cs),
(459,205,o),
(400,148,o),
(325,148,cs)
);
}
);
userData = {
com.schriftgestaltung.Glyphs.category = Letter;
com.schriftgestaltung.Glyphs.script = latin;
com.schriftgestaltung.Glyphs.subCategory = Lowercase;
};
width = 700;
}
);
unicode = 254;
},
{
glyphname = q;
kernLeft = d;
kernRight = u;
lastChange = "2024-05-08 15:40:26 +0000";
layers = (
{
anchors = (
{
name = bottom;
pos = (270,0);
},
{
name = top;
pos = (420,600);
}
);
background = {
anchors = (
{
name = bottom;
pos = (270,0);
},
{
name = top;
pos = (420,600);
}
);
shapes = (
{
closed = 1;
nodes = (
(459,-240,l),
(669,600,l),
(579,600,l),
(553,498,l),
(549,498,l),
(534,573,o),
(478,612,o),
(389,612,cs),
(239,612,o),
(109,487,o),
(62,300,cs),
(15,113,o),
(83,-12,o),
(233,-12,cs),
(322,-12,o),
(398,28,o),
(450,102,c),
(454,102,l),
(369,-240,l)
);
},
{
closed = 1;
nodes = (
(166,68,o),
(117,160,o),
(152,300,cs),
(187,440,o),
(282,532,o),
(392,532,cs),
(500,532,o),
(543,457,o),
(516,349,cs),
(492,251,ls),
(465,143,o),
(385,71,o),
(276,68,cs)
);
}
);
};
layerId = "4683CC84-822E-4D29-9A51-72FC3DB48604";
shapes = (
{
closed = 1;
nodes = (
(459,-240,l),
(669,600,l),
(579,600,l),
(553,498,l),
(549,498,l),
(535,568,o),
(470,612,o),
(379,612,cs),
(233,612,o),
(111,494,o),
(64,309,cs),
(15,115,o),
(86,-12,o),
(243,-12,cs),
(328,-12,o),
(397,26,o),
(450,102,c),
(454,102,l),
(369,-240,l)
);
},
{
closed = 1;
nodes = (
(164,66,o),
(116,155,o),
(152,300,cs),
(188,443,o),
(280,532,o),
(392,532,cs),
(494,532,o),
(543,460,o),
(516,349,cs),
(492,251,ls),
(466,143,o),
(378,69,o),
(276,68,cs)
);
}
);
userData = {
com.schriftgestaltung.Glyphs.category = Letter;
com.schriftgestaltung.Glyphs.script = latin;
com.schriftgestaltung.Glyphs.subCategory = Lowercase;
};
width = 690;
},
{
anchors = (
{
name = bottom;
pos = (275,0);
},
{
name = top;
pos = (425,600);
}
);
background = {
anchors = (
{
name = bottom;
pos = (275,0);
},
{
name = top;
pos = (425,600);
}
);
shapes = (
{
closed = 1;
nodes = (
(495,-240,l),
(705,600,l),
(531,600,l),
(510,518,l),
(506,518,l),
(488,579,o),
(440,612,o),
(365,612,cs),
(216,612,o),
(84,485,o),
(38,300,cs),
(-9,114,o),
(60,-12,o),
(209,-12,cs),
(282,-12,o),
(345,20,o),
(390,77,c),
(394,77,l),
(315,-240,l)
);
},
{
closed = 1;
nodes = (
(225,148,o),
(195,207,o),
(218,300,cs),
(241,393,o),
(301,452,o),
(375,452,cs),
(445,452,o),
(476,403,o),
(455,322,cs),
(444,278,ls),
(424,197,o),
(369,148,o),
(299,148,cs)
);
}
);
};
layerId = "FB8C5FF2-3B42-4CDF-AA26-B13980DDC748";
shapes = (
{
closed = 1;
nodes = (
(495,-240,l),
(705,600,l),
(531,600,l),
(510,518,l),
(506,518,l),
(489,577,o),
(432,612,o),
(355,612,cs),
(212,612,o),
(86,491,o),
(40,309,cs),
(-7,120,o),
(66,-12,o),
(219,-12,cs),
(289,-12,o),
(341,15,o),
(390,77,c),
(394,77,l),
(315,-240,l)
);
},
{
closed = 1;
nodes = (
(225,148,o),
(195,205,o),
(218,300,cs),
(241,395,o),
(300,452,o),
(375,452,cs),
(444,452,o),
(475,403,o),
(455,322,cs),
(444,278,ls),
(424,198,o),
(368,148,o),
(299,148,cs)
);
}
);
userData = {
com.schriftgestaltung.Glyphs.category = Letter;
com.schriftgestaltung.Glyphs.script = latin;
com.schriftgestaltung.Glyphs.subCategory = Lowercase;
};
width = 700;
}
);
unicode = 113;
},
{
glyphname = r;
kernLeft = n;
kernRight = r;
lastChange = "2024-05-08 14:48:24 +0000";
layers = (
{
anchors = (
{
name = bottom;
pos = (93,0);
},
{
name = top;
pos = (342,600);
}
);
background = {
anchors = (
{
name = bottom;
pos = (93,0);
},
{
name = top;
pos = (342,600);
}
);
shapes = (
{
closed = 1;
nodes = (
(183,0,l),
(258,300,ls),
(280,388,o),
(335,448,o),
(434,448,cs),
(493,448,l),
(533,608,l),
(482,608,ls),
(412,608,o),
(349,569,o),
(308,508,c),
(304,508,l),
(327,600,l),
(153,600,l),
(3,0,l)
);
}
);
};
guides = (
{
pos = (415,444);
},
{
angle = 180;
pos = (415,604);
},
{
angle = 270;
pos = (258,158);
},
{
angle = 90;
pos = (78,300);
}
);
layerId = "FB8C5FF2-3B42-4CDF-AA26-B13980DDC748";
name = "Bold alt";
shapes = (
{
closed = 1;
nodes = (
(183,0,l),
(258,300,ls),
(280,388,o),
(335,448,o),
(434,448,cs),
(493,448,l),
(533,608,l),
(482,608,ls),
(412,608,o),
(349,569,o),
(308,508,c),
(304,508,l),
(327,600,l),
(153,600,l),
(3,0,l)
);
}
);
userData = {
com.schriftgestaltung.Glyphs.category = Letter;
com.schriftgestaltung.Glyphs.script = latin;
com.schriftgestaltung.Glyphs.subCategory = Lowercase;
};
width = 480;
},
{
anchors = (
{
name = bottom;
pos = (78,0);
},
{
name = top;
pos = (341,600);
}
);
background = {
anchors = (
{
name = bottom;
pos = (78,0);
},
{
name = top;
pos = (341,600);
}
);
shapes = (
{
closed = 1;
nodes = (
(123,0,l),
(202,316,ls),
(234,444,o),
(319,524,o),
(432,524,cs),
(480,524,l),
(500,604,l),
(457,604,ls),
(365,604,o),
(286,552,o),
(240,473,c),
(236,473,l),
(268,600,l),
(183,600,l),
(33,0,l)
);
}
);
};
layerId = "4683CC84-822E-4D29-9A51-72FC3DB48604";
name = "Light alt";
shapes = (
{
closed = 1;
nodes = (
(123,0,l),
(202,316,ls),
(234,444,o),
(319,524,o),
(432,524,cs),
(480,524,l),
(500,604,l),
(457,604,ls),
(365,604,o),
(286,552,o),
(240,473,c),
(236,473,l),
(268,600,l),
(183,600,l),
(33,0,l)
);
}
);
userData = {
com.schriftgestaltung.Glyphs.category = Letter;
com.schriftgestaltung.Glyphs.script = latin;
com.schriftgestaltung.Glyphs.subCategory = Lowercase;
};
width = 460;
}
);
unicode = 114;
},
{
glyphname = s;
kernLeft = s;
kernRight = s;
lastChange = "2024-05-09 09:06:05 +0000";
layers = (
{
anchors = (
{
name = bottom;
pos = (221,0);
},
{
name = top;
pos = (351,600);
}
);
background = {
anchors = (
{
name = bottom;
pos = (201,0);
},
{
name = top;
pos = (351,600);
}
);
shapes = (
{
closed = 1;
nodes = (
(346,-12,o),
(448,59,o),
(476,171,cs),
(498,259,o),
(457,314,o),
(356,337,cs),
(266,357,ls),
(201,372,o),
(176,397,o),
(188,443,cs),
(202,499,o),
(258,534,o),
(333,534,cs),
(408,534,o),
(450,497,o),
(446,430,c),
(534,430,l),
(550,540,o),
(479,612,o),
(356,612,cs),
(231,612,o),
(128,541,o),
(102,437,cs),
(82,355,o),
(123,301,o),
(223,279,cs),
(313,259,ls),
(378,244,o),
(403,215,o),
(390,164,cs),
(374,101,o),
(318,66,o),
(232,66,cs),
(139,66,o),
(94,107,o),
(104,180,c),
(14,180,l),
(-7,64,o),
(69,-12,o),
(210,-12,cs)
);
}
);
};
guides = (
{
angle = 72.6884;
pos = (325,260);
},
{
angle = 180;
pos = (458,430);
}
);
layerId = "4683CC84-822E-4D29-9A51-72FC3DB48604";
shapes = (
{
closed = 1;
nodes = (
(352,-12,o),
(446,53,o),
(474,162,cs),
(497,256,o),
(456,312,o),
(346,336,cs),
(256,356,ls),
(199,369,o),
(176,398,o),
(188,443,cs),
(202,498,o),
(259,534,o),
(333,534,cs),
(411,534,o),
(454,495,o),
(450,430,c),
(530,430,l),
(546,541,o),
(474,612,o),
(346,612,cs),
(224,612,o),
(129,547,o),
(105,446,cs),
(83,359,o),
(127,304,o),
(233,280,cs),
(323,260,ls),
(380,247,o),
(403,214,o),
(390,164,cs),
(374,101,o),
(317,66,o),
(232,66,cs),
(139,66,o),
(90,108,o),
(100,180,c),
(18,180,l),
(-3,64,o),
(77,-12,o),
(220,-12,cs)
);
}
);
userData = {
com.schriftgestaltung.Glyphs.category = Letter;
com.schriftgestaltung.Glyphs.script = latin;
com.schriftgestaltung.Glyphs.subCategory = Lowercase;
};
width = 560;
},
{
anchors = (
{
name = bottom;
pos = (263,0);
},
{
name = top;
pos = (371,600);
}
);
background = {
anchors = (
{
name = bottom;
pos = (243,0);
},
{
name = top;
pos = (371,600);
}
);
shapes = (
{
closed = 1;
nodes = (
(388,-12,o),
(501,65,o),
(533,191,cs),
(557,288,o),
(514,341,o),
(405,366,cs),
(289,393,ls),
(265,399,o),
(254,413,o),
(259,434,cs),
(267,464,o),
(296,480,o),
(336,480,cs),
(386,480,o),
(410,454,o),
(408,406,c),
(580,406,l),
(606,532,o),
(528,612,o),
(380,612,cs),
(234,612,o),
(116,534,o),
(87,416,cs),
(64,326,o),
(109,271,o),
(214,247,cs),
(325,221,ls),
(355,214,o),
(367,200,o),
(361,176,cs),
(352,142,o),
(322,126,o),
(278,126,cs),
(220,126,o),
(189,153,o),
(192,204,c),
(20,204,l),
(-6,71,o),
(78,-12,o),
(236,-12,cs)
);
}
);
};
guides = (
{
angle = -12.3954;
pos = (275,230);
},
{
angle = 167.6046;
pos = (323,386);
},
{
angle = 180;
pos = (293,480);
},
{
angle = 180;
pos = (297,612);
},
{
angle = 90;
pos = (41,437);
},
{
angle = 90;
pos = (209,444);
},
{
angle = 90;
pos = (392,157);
},
{
angle = 90;
pos = (560,159);
},
{
pos = (303,126);
},
{
pos = (130,204);
}
);
layerId = "FB8C5FF2-3B42-4CDF-AA26-B13980DDC748";
shapes = (
{
closed = 1;
nodes = (
(398,-12,o),
(499,58,o),
(530,181,cs),
(554,279,o),
(515,336,o),
(405,362,cs),
(289,389,ls),
(266,394,o),
(254,412,o),
(259,434,cs),
(265,462,o),
(295,480,o),
(336,480,cs),
(385,480,o),
(410,455,o),
(408,406,c),
(576,406,l),
(601,530,o),
(521,612,o),
(367,612,cs),
(223,612,o),
(117,541,o),
(89,426,cs),
(67,335,o),
(109,276,o),
(214,251,cs),
(325,225,ls),
(355,218,o),
(367,201,o),
(361,176,cs),
(353,144,o),
(323,126,o),
(277,126,cs),
(220,126,o),
(189,154,o),
(192,204,c),
(24,204,l),
(-1,73,o),
(85,-12,o),
(249,-12,cs)
);
}
);
userData = {
com.schriftgestaltung.Glyphs.category = Letter;
com.schriftgestaltung.Glyphs.script = latin;
com.schriftgestaltung.Glyphs.subCategory = Lowercase;
};
width = 600;
}
);
unicode = 115;
},
{
glyphname = germandbls;
kernLeft = b;
kernRight = b;
lastChange = "2024-05-08 17:04:52 +0000";
layers = (
{
background = {
shapes = (
{
closed = 1;
nodes = (
(286,0,l),
(444,0,o),
(578,100,o),
(614,246,cs),
(643,362,o),
(588,455,o),
(482,465,c),
(483,469,l),
(578,488,o),
(649,555,o),
(671,646,cs),
(702,768,o),
(627,852,o),
(486,852,cs),
(333,852,o),
(210,756,o),
(173,609,cs),
(21,0,l),
(111,0,l),
(262,604,ls),
(290,717,o),
(365,780,o),
(467,780,cs),
(561,780,o),
(600,728,o),
(578,639,cs),
(555,549,o),
(485,497,o),
(380,497,cs),
(325,497,l),
(306,419,l),
(371,419,ls),
(494,419,o),
(551,354,o),
(525,248,cs),
(498,141,o),
(408,77,o),
(284,77,cs),
(220,77,l),
(201,-1,l)
);
}
);
};
layerId = "4683CC84-822E-4D29-9A51-72FC3DB48604";
shapes = (
{
closed = 1;
nodes = (
(296,0,ls),
(451,2,o),
(577,96,o),
(612,237,cs),
(642,358,o),
(587,451,o),
(478,461,c),
(479,465,l),
(577,485,o),
(647,547,o),
(669,636,cs),
(700,761,o),
(619,852,o),
(476,852,cs),
(329,852,o),
(210,757,o),
(173,609,cs),
(21,0,l),
(111,0,l),
(262,604,ls),
(290,717,o),
(364,780,o),
(467,780,cs),
(559,780,o),
(600,728,o),
(578,639,cs),
(555,548,o),
(485,497,o),
(380,497,cs),
(325,497,l),
(306,419,l),
(371,419,ls),
(493,419,o),
(551,355,o),
(525,248,cs),
(498,141,o),
(408,77,o),
(284,77,cs),
(220,77,l),
(201,-1,l)
);
}
);
userData = {
com.schriftgestaltung.Glyphs.category = Letter;
com.schriftgestaltung.Glyphs.script = latin;
com.schriftgestaltung.Glyphs.subCategory = Lowercase;
};
width = 690;
},
{
background = {
shapes = (
{
closed = 1;
nodes = (
(319,0,ls),
(484,2,o),
(611,95,o),
(648,243,cs),
(683,383,o),
(606,451,o),
(534,459,c),
(535,463,l),
(599,480,o),
(670,538,o),
(695,637,cs),
(726,760,o),
(661,852,o),
(492,852,cs),
(300,852,o),
(179,737,o),
(142,587,cs),
(-5,0,l),
(175,0,l),
(320,581,ls),
(342,667,o),
(396,702,o),
(447,702,cs),
(495,702,o),
(529,671,o),
(514,613,cs),
(500,555,o),
(454,524,o),
(405,524,cs),
(378,524,l),
(340,374,l),
(381,374,ls),
(448,374,o),
(490,334,o),
(472,262,cs),
(454,188,o),
(391,149,o),
(324,149,cs),
(284,149,l),
(247,-1,l)
);
}
);
};
layerId = "FB8C5FF2-3B42-4CDF-AA26-B13980DDC748";
shapes = (
{
closed = 1;
nodes = (
(329,0,ls),
(491,2,o),
(611,91,o),
(646,234,cs),
(676,353,o),
(628,445,o),
(530,455,c),
(531,459,l),
(610,480,o),
(672,544,o),
(693,628,cs),
(727,762,o),
(642,852,o),
(482,852,cs),
(312,852,o),
(184,752,o),
(142,587,cs),
(-5,0,l),
(175,0,l),
(320,581,ls),
(338,656,o),
(387,702,o),
(447,702,cs),
(501,702,o),
(528,667,o),
(514,613,cs),
(501,560,o),
(457,524,o),
(405,524,cs),
(378,524,l),
(340,374,l),
(381,374,ls),
(453,374,o),
(489,330,o),
(472,262,cs),
(455,194,o),
(397,149,o),
(324,149,cs),
(284,149,l),
(247,-1,l)
);
}
);
userData = {
com.schriftgestaltung.Glyphs.category = Letter;
com.schriftgestaltung.Glyphs.script = latin;
com.schriftgestaltung.Glyphs.subCategory = Lowercase;
};
width = 700;
},
{
anchors = (
{
name = bottom;
pos = (349,0);
},
{
name = top;
pos = (349,960);
}
);
associatedMasterId = "4683CC84-822E-4D29-9A51-72FC3DB48604";
layerId = "C0F7AFA7-0AC6-4F56-AD80-83985F724233";
name = "18 Apr 24 at 10:33";
shapes = (
{
closed = 1;
nodes = (
(575,802,o),
(482,858,o),
(341,858,cs),
(199,858,o),
(96,802,o),
(96,652,cs),
(96,0,l),
(187,0,l),
(187,652,ls),
(187,751,o),
(256,782,o),
(341,782,cs),
(424,782,o),
(483,753,o),
(483,689,cs),
(483,586,o),
(330,577,o),
(330,458,cs),
(330,397,o),
(361,360,o),
(452,301,cs),
(530,251,o),
(558,221,o),
(558,163,cs),
(558,102,o),
(522,63,o),
(438,63,cs),
(379,63,o),
(319,85,o),
(279,108,c),
(279,26,l),
(319,2,o),
(370,-11,o),
(441,-11,cs),
(564,-11,o),
(647,46,o),
(647,169,cs),
(647,260,o),
(597,307,o),
(518,360,cs),
(437,413,o),
(418,429,o),
(418,463,cs),
(418,536,o),
(575,565,o),
(575,694,cs)
);
}
);
userData = {
com.schriftgestaltung.Glyphs.category = Letter;
com.schriftgestaltung.Glyphs.script = latin;
com.schriftgestaltung.Glyphs.subCategory = Lowercase;
};
width = 698;
}
);
unicode = 223;
},
{
glyphname = t;
kernLeft = t;
kernRight = t;
lastChange = "2024-05-08 14:48:24 +0000";
layers = (
{
anchors = (
{
name = bottom;
pos = (186,0);
},
{
name = center;
pos = (220,300);
},
{
name = top;
pos = (318,780);
},
{
name = topright;
pos = (451,960);
}
);
background = {
anchors = (
{
name = bottom;
pos = (186,0);
},
{
name = center;
pos = (220,300);
},
{
name = top;
pos = (318,780);
},
{
name = topright;
pos = (451,960);
}
);
shapes = (
{
closed = 1;
nodes = (
(339,0,l),
(375,144,l),
(249,144,l),
(327,456,l),
(441,456,l),
(477,600,l),
(361,600,l),
(406,780,l),
(230,780,l),
(185,600,l),
(93,600,l),
(57,456,l),
(147,456,l),
(69,144,ls),
(44,46,o),
(85,0,o),
(177,0,cs)
);
}
);
};
layerId = "FB8C5FF2-3B42-4CDF-AA26-B13980DDC748";
name = Bold;
shapes = (
{
closed = 1;
nodes = (
(339,0,l),
(375,144,l),
(249,144,l),
(327,456,l),
(441,456,l),
(477,600,l),
(361,600,l),
(406,780,l),
(230,780,l),
(185,600,l),
(93,600,l),
(57,456,l),
(147,456,l),
(69,144,ls),
(44,46,o),
(85,0,o),
(177,0,cs)
);
}
);
userData = {
com.schriftgestaltung.Glyphs.category = Letter;
com.schriftgestaltung.Glyphs.script = latin;
com.schriftgestaltung.Glyphs.subCategory = Lowercase;
};
width = 440;
},
{
anchors = (
{
name = bottom;
pos = (175,0);
},
{
name = center;
pos = (200,300);
},
{
name = top;
pos = (288,780);
},
{
name = topright;
pos = (377,960);
}
);
background = {
anchors = (
{
name = bottom;
pos = (175,0);
},
{
name = center;
pos = (200,300);
},
{
name = top;
pos = (288,780);
},
{
name = topright;
pos = (377,960);
}
);
shapes = (
{
closed = 1;
nodes = (
(301,0,l),
(319,72,l),
(156,72,l),
(270,528,l),
(419,528,l),
(437,600,l),
(287,600,l),
(332,780,l),
(244,780,l),
(199,600,l),
(93,600,l),
(75,528,l),
(180,528,l),
(69,86,ls),
(55,29,o),
(80,0,o),
(134,0,cs)
);
}
);
};
layerId = "4683CC84-822E-4D29-9A51-72FC3DB48604";
name = Light;
shapes = (
{
closed = 1;
nodes = (
(301,0,l),
(319,72,l),
(156,72,l),
(270,528,l),
(419,528,l),
(437,600,l),
(287,600,l),
(332,780,l),
(244,780,l),
(199,600,l),
(93,600,l),
(75,528,l),
(180,528,l),
(69,86,ls),
(55,29,o),
(80,0,o),
(134,0,cs)
);
}
);
userData = {
com.schriftgestaltung.Glyphs.category = Letter;
com.schriftgestaltung.Glyphs.script = latin;
com.schriftgestaltung.Glyphs.subCategory = Lowercase;
};
width = 400;
}
);
unicode = 116;
},
{
glyphname = u;
kernLeft = u;
kernRight = u;
lastChange = "2024-05-08 15:41:57 +0000";
layers = (
{
anchors = (
{
name = bottom;
pos = (270,0);
},
{
name = ogonek;
pos = (519,0);
},
{
name = top;
pos = (420,600);
},
{
name = topright;
pos = (745,600);
}
);
background = {
anchors = (
{
name = bottom;
pos = (270,0);
},
{
name = ogonek;
pos = (519,0);
},
{
name = top;
pos = (420,600);
},
{
name = topright;
pos = (745,600);
}
);
shapes = (
{
closed = 1;
nodes = (
(321,-11,o),
(400,31,o),
(452,107,c),
(456,107,l),
(429,0,l),
(519,0,l),
(669,600,l),
(579,600,l),
(490,245,ls),
(464,141,o),
(380,71,o),
(280,71,cs),
(182,71,o),
(141,137,o),
(168,245,cs),
(257,600,l),
(167,600,l),
(73,225,ls),
(38,86,o),
(103,-11,o),
(233,-11,cs)
);
}
);
};
guides = (
{
angle = 90;
pos = (504,66);
}
);
layerId = "4683CC84-822E-4D29-9A51-72FC3DB48604";
name = "Light alt";
shapes = (
{
closed = 1;
nodes = (
(326,-11,o),
(399,30,o),
(452,107,c),
(456,107,l),
(429,0,l),
(519,0,l),
(669,600,l),
(579,600,l),
(490,245,ls),
(464,141,o),
(380,71,o),
(280,71,cs),
(183,71,o),
(141,136,o),
(168,245,cs),
(257,600,l),
(167,600,l),
(75,234,ls),
(40,94,o),
(111,-11,o),
(243,-11,cs)
);
}
);
userData = {
com.schriftgestaltung.Glyphs.category = Letter;
com.schriftgestaltung.Glyphs.script = latin;
com.schriftgestaltung.Glyphs.subCategory = Lowercase;
};
width = 690;
},
{
anchors = (
{
name = bottom;
pos = (280,0);
},
{
name = ogonek;
pos = (565,0);
},
{
name = top;
pos = (430,600);
},
{
name = topright;
pos = (765,600);
}
);
background = {
anchors = (
{
name = bottom;
pos = (280,0);
},
{
name = ogonek;
pos = (565,0);
},
{
name = top;
pos = (430,600);
},
{
name = topright;
pos = (765,600);
}
);
shapes = (
{
closed = 1;
nodes = (
(288,-11,o),
(360,25,o),
(409,90,c),
(413,90,l),
(391,0,l),
(565,0,l),
(715,600,l),
(535,600,l),
(455,279,ls),
(435,202,o),
(380,153,o),
(311,153,cs),
(246,153,o),
(220,197,o),
(239,273,cs),
(321,600,l),
(141,600,l),
(50,237,ls),
(13,88,o),
(76,-11,o),
(206,-11,cs)
);
}
);
};
guides = (
{
angle = 90;
pos = (514,66);
}
);
layerId = "FB8C5FF2-3B42-4CDF-AA26-B13980DDC748";
name = "Bold alt";
shapes = (
{
closed = 1;
nodes = (
(293,-11,o),
(359,24,o),
(409,90,c),
(413,90,l),
(391,0,l),
(565,0,l),
(715,600,l),
(535,600,l),
(455,279,ls),
(436,202,o),
(380,153,o),
(311,153,cs),
(246,153,o),
(220,197,o),
(239,273,cs),
(321,600,l),
(141,600,l),
(53,246,ls),
(15,96,o),
(83,-11,o),
(216,-11,cs)
);
}
);
userData = {
com.schriftgestaltung.Glyphs.category = Letter;
com.schriftgestaltung.Glyphs.script = latin;
com.schriftgestaltung.Glyphs.subCategory = Lowercase;
};
width = 710;
}
);
unicode = 117;
},
{
glyphname = v;
kernLeft = v;
kernRight = v;
lastChange = "2024-06-03 05:57:25 +0000";
layers = (
{
anchors = (
{
name = bottom;
pos = (215,0);
},
{
name = top;
pos = (365,600);
}
);
background = {
anchors = (
{
name = bottom;
pos = (215,0);
},
{
name = top;
pos = (365,600);
}
);
shapes = (
{
closed = 1;
nodes = (
(267,0,l),
(649,600,l),
(560,600,l),
(242,90,l),
(238,90,l),
(174,600,l),
(81,600,l),
(163,0,l)
);
}
);
};
layerId = "4683CC84-822E-4D29-9A51-72FC3DB48604";
shapes = (
{
closed = 1;
nodes = (
(267,0,l),
(649,600,l),
(554,600,l),
(236,90,l),
(232,90,l),
(168,600,l),
(81,600,l),
(163,0,l)
);
}
);
userData = {
com.schriftgestaltung.Glyphs.category = Letter;
com.schriftgestaltung.Glyphs.script = latin;
com.schriftgestaltung.Glyphs.subCategory = Lowercase;
};
width = 580;
},
{
anchors = (
{
name = bottom;
pos = (255,0);
},
{
name = top;
pos = (405,600);
}
);
background = {
anchors = (
{
name = bottom;
pos = (255,0);
},
{
name = top;
pos = (405,600);
}
);
shapes = (
{
closed = 1;
nodes = (
(345,0,l),
(729,600,l),
(546,600,l),
(314,217,l),
(310,217,l),
(268,600,l),
(81,600,l),
(165,0,l)
);
}
);
};
layerId = "FB8C5FF2-3B42-4CDF-AA26-B13980DDC748";
shapes = (
{
closed = 1;
nodes = (
(345,0,l),
(729,600,l),
(538,600,l),
(306,217,l),
(302,217,l),
(260,600,l),
(81,600,l),
(165,0,l)
);
}
);
userData = {
com.schriftgestaltung.Glyphs.category = Letter;
com.schriftgestaltung.Glyphs.script = latin;
com.schriftgestaltung.Glyphs.subCategory = Lowercase;
};
width = 660;
}
);
unicode = 118;
},
{
glyphname = w;
kernLeft = v;
kernRight = v;
lastChange = "2024-05-08 15:42:17 +0000";
layers = (
{
anchors = (
{
name = bottom;
pos = (375,0);
},
{
name = top;
pos = (525,600);
}
);
background = {
anchors = (
{
name = bottom;
pos = (375,0);
},
{
name = top;
pos = (525,600);
}
);
shapes = (
{
closed = 1;
nodes = (
(216,0,l),
(497,498,l),
(501,498,l),
(534,0,l),
(636,0,l),
(957,600,l),
(867,600,l),
(611,108,l),
(607,108,l),
(574,600,l),
(478,600,l),
(199,108,l),
(195,108,l),
(185,600,l),
(93,600,l),
(114,0,l)
);
}
);
};
guides = (
{
angle = 104.7265;
pos = (166,435);
},
{
angle = 252.2613;
pos = (348,427);
},
{
angle = 107.1375;
pos = (555,427);
},
{
angle = 255.2735;
pos = (735,435);
},
{
angle = 72.1598;
pos = (352,174);
},
{
angle = -73.1052;
pos = (546,175);
}
);
layerId = "4683CC84-822E-4D29-9A51-72FC3DB48604";
shapes = (
{
closed = 1;
nodes = (
(219,0,l),
(500,498,l),
(504,498,l),
(537,0,l),
(636,0,l),
(957,600,l),
(864,600,l),
(608,108,l),
(604,108,l),
(571,600,l),
(475,600,l),
(196,108,l),
(192,108,l),
(182,600,l),
(93,600,l),
(114,0,l)
);
}
);
userData = {
com.schriftgestaltung.Glyphs.category = Letter;
com.schriftgestaltung.Glyphs.script = latin;
com.schriftgestaltung.Glyphs.subCategory = Lowercase;
};
width = 900;
},
{
anchors = (
{
name = bottom;
pos = (425,0);
},
{
name = top;
pos = (575,600);
}
);
background = {
anchors = (
{
name = bottom;
pos = (425,0);
},
{
name = top;
pos = (575,600);
}
);
shapes = (
{
closed = 1;
nodes = (
(310,0,l),
(509,346,l),
(513,346,l),
(540,0,l),
(730,0,l),
(1057,600,l),
(877,600,l),
(687,232,l),
(683,232,l),
(662,600,l),
(490,600,l),
(283,232,l),
(279,232,l),
(275,600,l),
(93,600,l),
(120,0,l)
);
}
);
};
guides = (
{
angle = 90;
pos = (296,245);
},
{
pos = (298,232);
}
);
layerId = "FB8C5FF2-3B42-4CDF-AA26-B13980DDC748";
shapes = (
{
closed = 1;
nodes = (
(314,0,l),
(513,346,l),
(517,346,l),
(544,0,l),
(730,0,l),
(1057,600,l),
(873,600,l),
(683,232,l),
(679,232,l),
(658,600,l),
(486,600,l),
(279,232,l),
(275,232,l),
(271,600,l),
(93,600,l),
(120,0,l)
);
}
);
userData = {
com.schriftgestaltung.Glyphs.category = Letter;
com.schriftgestaltung.Glyphs.script = latin;
com.schriftgestaltung.Glyphs.subCategory = Lowercase;
};
width = 1000;
}
);
unicode = 119;
},
{
glyphname = x;
kernLeft = x;
kernRight = k;
lastChange = "2024-05-09 08:59:18 +0000";
layers = (
{
anchors = (
{
name = bottom;
pos = (215,0);
},
{
name = top;
pos = (365,600);
}
);
background = {
anchors = (
{
name = bottom;
pos = (215,0);
},
{
name = top;
pos = (365,600);
}
);
shapes = (
{
closed = 1;
nodes = (
(45,0,l),
(275,245,l),
(383,0,l),
(487,0,l),
(347,307,l),
(627,600,l),
(525,600,l),
(308,369,l),
(207,600,l),
(103,600,l),
(237,307,l),
(-57,0,l)
);
}
);
};
guides = (
{
angle = 234.6215;
pos = (126,154);
},
{
angle = 55.2441;
pos = (205,123);
},
{
angle = -55.561;
pos = (374,123);
},
{
angle = 125.5024;
pos = (453,154);
}
);
layerId = "4683CC84-822E-4D29-9A51-72FC3DB48604";
shapes = (
{
closed = 1;
nodes = (
(51,0,l),
(278,242,l),
(389,0,l),
(487,0,l),
(344,304,l),
(627,600,l),
(519,600,l),
(305,372,l),
(201,600,l),
(103,600,l),
(240,310,l),
(-57,0,l)
);
}
);
userData = {
com.schriftgestaltung.Glyphs.category = Letter;
com.schriftgestaltung.Glyphs.script = latin;
com.schriftgestaltung.Glyphs.subCategory = Lowercase;
};
width = 580;
},
{
anchors = (
{
name = bottom;
pos = (256,0);
},
{
name = top;
pos = (406,600);
}
);
background = {
anchors = (
{
name = bottom;
pos = (256,0);
},
{
name = top;
pos = (406,600);
}
);
shapes = (
{
closed = 1;
nodes = (
(144,0,l),
(299,173,l),
(368,0,l),
(568,0,l),
(437,307,l),
(708,600,l),
(508,600,l),
(366,441,l),
(304,600,l),
(104,600,l),
(229,307,l),
(-56,0,l)
);
}
);
};
layerId = "FB8C5FF2-3B42-4CDF-AA26-B13980DDC748";
shapes = (
{
closed = 1;
nodes = (
(152,0,l),
(307,173,l),
(376,0,l),
(568,0,l),
(437,307,l),
(708,600,l),
(500,600,l),
(358,441,l),
(296,600,l),
(104,600,l),
(229,307,l),
(-56,0,l)
);
}
);
userData = {
com.schriftgestaltung.Glyphs.category = Letter;
com.schriftgestaltung.Glyphs.script = latin;
com.schriftgestaltung.Glyphs.subCategory = Lowercase;
};
width = 661;
}
);
unicode = 120;
},
{
glyphname = y;
kernLeft = v;
kernRight = v;
lastChange = "2024-05-08 15:45:47 +0000";
layers = (
{
anchors = (
{
name = bottom;
pos = (215,0);
},
{
name = top;
pos = (365,600);
}
);
background = {
anchors = (
{
name = bottom;
pos = (215,0);
},
{
name = top;
pos = (365,600);
}
);
shapes = (
{
closed = 1;
nodes = (
(65,-240,ls),
(121,-240,o),
(143,-206,o),
(178,-150,cs),
(272,0,l),
(649,600,l),
(559,600,l),
(257,110,l),
(253,110,l),
(174,600,l),
(81,600,l),
(182,-4,l),
(81,-168,l),
(-57,-168,l),
(-75,-240,l)
);
}
);
};
guides = (
{
angle = 69.281;
pos = (574,600);
},
{
angle = 249.908;
pos = (484,600);
}
);
layerId = "4683CC84-822E-4D29-9A51-72FC3DB48604";
shapes = (
{
closed = 1;
nodes = (
(65,-240,ls),
(121,-240,o),
(143,-206,o),
(178,-150,cs),
(272,0,l),
(649,600,l),
(553,600,l),
(251,110,l),
(247,110,l),
(168,600,l),
(81,600,l),
(181,3,l),
(75,-168,l),
(-57,-168,l),
(-75,-240,l)
);
}
);
userData = {
com.schriftgestaltung.Glyphs.category = Letter;
com.schriftgestaltung.Glyphs.script = latin;
com.schriftgestaltung.Glyphs.subCategory = Lowercase;
};
width = 580;
},
{
anchors = (
{
name = bottom;
pos = (330,0);
},
{
name = top;
pos = (330,600);
}
);
associatedMasterId = "FB8C5FF2-3B42-4CDF-AA26-B13980DDC748";
guides = (
{
angle = 69.694;
pos = (654,600);
},
{
angle = 251.45;
pos = (471,600);
}
);
layerId = "53350E9A-B49A-421C-8A09-54755A18DEC7";
name = "18 Apr 24 at 15:18";
shapes = (
{
closed = 1;
nodes = (
(288,-240,ls),
(381,-240,o),
(432,-194,o),
(432,-96,cs),
(432,0,l),
(654,600,l),
(471,600,l),
(347,217,l),
(343,217,l),
(193,600,l),
(6,600,l),
(252,0,l),
(252,-96,l),
(84,-96,l),
(84,-240,l)
);
}
);
userData = {
com.schriftgestaltung.Glyphs.category = Letter;
com.schriftgestaltung.Glyphs.script = latin;
com.schriftgestaltung.Glyphs.subCategory = Lowercase;
};
width = 660;
},
{
anchors = (
{
name = bottom;
pos = (255,0);
},
{
name = top;
pos = (405,600);
}
);
background = {
anchors = (
{
name = bottom;
pos = (255,0);
},
{
name = top;
pos = (405,600);
}
);
shapes = (
{
closed = 1;
nodes = (
(87,-240,ls),
(180,-240,o),
(236,-197,o),
(292,-106,cs),
(357,0,l),
(729,600,l),
(546,600,l),
(326,217,l),
(322,217,l),
(268,600,l),
(81,600,l),
(177,0,l),
(117,-96,l),
(-9,-96,l),
(-45,-240,l)
);
}
);
};
guides = (
{
angle = 69.694;
pos = (654,600);
},
{
angle = 251.45;
pos = (471,600);
}
);
layerId = "FB8C5FF2-3B42-4CDF-AA26-B13980DDC748";
name = Bold;
shapes = (
{
closed = 1;
nodes = (
(87,-240,ls),
(180,-240,o),
(236,-197,o),
(292,-106,cs),
(357,0,l),
(729,600,l),
(538,600,l),
(318,217,l),
(314,217,l),
(260,600,l),
(81,600,l),
(175,10,l),
(109,-96,l),
(-9,-96,l),
(-45,-240,l)
);
}
);
userData = {
com.schriftgestaltung.Glyphs.category = Letter;
com.schriftgestaltung.Glyphs.script = latin;
com.schriftgestaltung.Glyphs.subCategory = Lowercase;
};
width = 660;
},
{
anchors = (
{
name = bottom;
pos = (290,0);
},
{
name = top;
pos = (290,600);
}
);
associatedMasterId = "4683CC84-822E-4D29-9A51-72FC3DB48604";
guides = (
{
angle = 69.281;
pos = (574,600);
},
{
angle = 249.908;
pos = (484,600);
}
);
layerId = "092BB580-EDB8-4C40-AEA9-BC9D3D24B37F";
name = "18 Apr 24 at 15:22";
shapes = (
{
closed = 1;
nodes = (
(257,-240,ls),
(313,-240,o),
(347,-210,o),
(347,-150,cs),
(347,0,l),
(574,600,l),
(484,600,l),
(306,110,l),
(302,110,l),
(99,600,l),
(6,600,l),
(257,0,l),
(257,-168,l),
(84,-168,l),
(84,-240,l)
);
}
);
userData = {
com.schriftgestaltung.Glyphs.category = Letter;
com.schriftgestaltung.Glyphs.script = latin;
com.schriftgestaltung.Glyphs.subCategory = Lowercase;
};
width = 580;
}
);
unicode = 121;
},
{
glyphname = z;
kernLeft = z;
kernRight = z;
lastChange = "2024-05-08 15:43:11 +0000";
layers = (
{
anchors = (
{
name = bottom;
pos = (205,0);
},
{
name = center;
pos = (280,300);
},
{
name = top;
pos = (355,600);
}
);
background = {
anchors = (
{
name = bottom;
pos = (205,0);
},
{
name = center;
pos = (280,300);
},
{
name = top;
pos = (355,600);
}
);
shapes = (
{
closed = 1;
nodes = (
(431,0,l),
(449,74,l),
(99,74,l),
(558,534,l),
(575,600,l),
(147,600,l),
(128,526,l),
(454,526,l),
(-5,66,l),
(-21,0,l)
);
}
);
};
guides = (
{
angle = 233.2958;
pos = (500,533);
}
);
layerId = "4683CC84-822E-4D29-9A51-72FC3DB48604";
shapes = (
{
closed = 1;
nodes = (
(431,0,l),
(449,74,l),
(107,74,l),
(558,534,l),
(575,600,l),
(147,600,l),
(128,526,l),
(446,526,l),
(-5,66,l),
(-21,0,l)
);
}
);
userData = {
com.schriftgestaltung.Glyphs.category = Letter;
com.schriftgestaltung.Glyphs.script = latin;
com.schriftgestaltung.Glyphs.subCategory = Lowercase;
};
width = 560;
},
{
anchors = (
{
name = bottom;
pos = (205,0);
},
{
name = center;
pos = (280,300);
},
{
name = top;
pos = (355,600);
}
);
background = {
anchors = (
{
name = bottom;
pos = (205,0);
},
{
name = center;
pos = (280,300);
},
{
name = top;
pos = (355,600);
}
);
shapes = (
{
closed = 1;
nodes = (
(449,0,l),
(485,146,l),
(221,146,l),
(566,492,l),
(593,600,l),
(129,600,l),
(92,454,l),
(332,454,l),
(-12,108,l),
(-39,0,l)
);
}
);
};
guides = (
{
angle = 233.2099;
pos = (175,292);
},
{
angle = 53.2099;
pos = (379,308);
}
);
layerId = "FB8C5FF2-3B42-4CDF-AA26-B13980DDC748";
shapes = (
{
closed = 1;
nodes = (
(449,0,l),
(485,146,l),
(229,146,l),
(566,492,l),
(593,600,l),
(129,600,l),
(92,454,l),
(324,454,l),
(-12,108,l),
(-39,0,l)
);
}
);
userData = {
com.schriftgestaltung.Glyphs.category = Letter;
com.schriftgestaltung.Glyphs.script = latin;
com.schriftgestaltung.Glyphs.subCategory = Lowercase;
};
width = 560;
}
);
unicode = 122;
},
{
glyphname = f_f;
kernLeft = f;
kernRight = f;
lastChange = "2024-05-09 09:41:02 +0000";
layers = (
{
layerId = "4683CC84-822E-4D29-9A51-72FC3DB48604";
shapes = (
{
closed = 1;
nodes = (
(148,0,l),
(280,528,l),
(570,528,l),
(438,0,l),
(528,0,l),
(660,528,l),
(799,528,l),
(817,600,l),
(677,600,l),
(719,768,l),
(871,768,l),
(889,840,l),
(739,840,ls),
(683,840,o),
(641,810,o),
(626,750,cs),
(589,600,l),
(297,600,l),
(339,768,l),
(491,768,l),
(509,840,l),
(359,840,ls),
(303,840,o),
(261,810,o),
(246,750,cs),
(209,600,l),
(93,600,l),
(75,528,l),
(190,528,l),
(58,0,l)
);
}
);
width = 760;
},
{
layerId = "FB8C5FF2-3B42-4CDF-AA26-B13980DDC748";
shapes = (
{
closed = 1;
nodes = (
(213,0,l),
(327,456,l),
(567,456,l),
(453,0,l),
(633,0,l),
(747,456,l),
(861,456,l),
(897,600,l),
(781,600,l),
(805,696,l),
(933,696,l),
(969,840,l),
(809,840,ls),
(716,840,o),
(653,794,o),
(629,696,cs),
(605,600,l),
(361,600,l),
(385,696,l),
(513,696,l),
(549,840,l),
(389,840,ls),
(296,840,o),
(233,794,o),
(209,696,cs),
(185,600,l),
(93,600,l),
(57,456,l),
(147,456,l),
(33,0,l)
);
}
);
width = 840;
}
);
metricLeft = f;
metricRight = f;
},
{
glyphname = ordfeminine;
lastChange = "2024-05-09 07:29:14 +0000";
layers = (
{
background = {
shapes = (
{
closed = 1;
nodes = (
(203,384,o),
(238,398,o),
(264,430,c),
(268,430,l),
(258,390,l),
(360,390,l),
(412,598,ls),
(434,683,o),
(392,732,o),
(297,732,cs),
(212,732,o),
(143,692,o),
(107,614,c),
(220,614,l),
(232,635,o),
(252,648,o),
(276,648,cs),
(300,648,o),
(314,630,o),
(309,607,cs),
(306,596,l),
(236,596,ls),
(149,596,o),
(90,558,o),
(74,491,cs),
(57,426,o),
(92,384,o),
(163,384,cs)
);
},
{
closed = 1;
nodes = (
(188,468,o),
(177,479,o),
(182,500,cs),
(186,517,o),
(202,529,o),
(223,529,cs),
(289,529,l),
(288,525,ls),
(280,492,o),
(245,468,o),
(211,468,cs)
);
}
);
};
layerId = "FB8C5FF2-3B42-4CDF-AA26-B13980DDC748";
name = "Bold alt";
shapes = (
{
closed = 1;
nodes = (
(211,384,o),
(237,397,o),
(264,430,c),
(268,430,l),
(258,390,l),
(360,390,l),
(410,588,ls),
(432,675,o),
(384,732,o),
(287,732,cs),
(204,732,o),
(142,691,o),
(107,614,c),
(220,614,l),
(231,635,o),
(253,648,o),
(276,648,cs),
(301,648,o),
(315,631,o),
(309,607,cs),
(306,596,l),
(226,596,ls),
(142,596,o),
(92,564,o),
(76,501,cs),
(59,432,o),
(98,384,o),
(173,384,cs)
);
},
{
closed = 1;
nodes = (
(188,468,o),
(178,479,o),
(182,500,cs),
(187,519,o),
(202,529,o),
(223,529,cs),
(289,529,l),
(288,525,ls),
(280,494,o),
(246,468,o),
(211,468,cs)
);
}
);
userData = {
com.schriftgestaltung.Glyphs.category = Letter;
com.schriftgestaltung.Glyphs.script = latin;
com.schriftgestaltung.Glyphs.subCategory = Lowercase;
};
width = 380;
},
{
background = {
shapes = (
{
closed = 1;
nodes = (
(216,384,o),
(259,406,o),
(287,444,c),
(289,444,l),
(275,390,l),
(340,390,l),
(394,604,ls),
(414,685,o),
(375,732,o),
(291,732,cs),
(215,732,o),
(151,693,o),
(122,625,c),
(193,625,l),
(209,658,o),
(240,674,o),
(275,674,cs),
(319,674,o),
(339,648,o),
(328,604,cs),
(324,588,l),
(231,588,ls),
(153,588,o),
(99,551,o),
(83,487,cs),
(67,425,o),
(103,384,o),
(171,384,cs)
);
},
{
closed = 1;
nodes = (
(159,442,o),
(140,461,o),
(147,490,cs),
(155,519,o),
(180,536,o),
(222,536,cs),
(311,536,l),
(308,526,ls),
(296,478,o),
(249,442,o),
(199,442,cs)
);
}
);
};
layerId = "4683CC84-822E-4D29-9A51-72FC3DB48604";
name = "Light alt";
shapes = (
{
closed = 1;
nodes = (
(225,384,o),
(256,402,o),
(287,444,c),
(289,444,l),
(275,390,l),
(340,390,l),
(391,595,ls),
(411,677,o),
(368,732,o),
(281,732,cs),
(208,732,o),
(151,694,o),
(122,625,c),
(193,625,l),
(208,656,o),
(238,674,o),
(275,674,cs),
(319,674,o),
(339,648,o),
(328,604,cs),
(324,588,l),
(221,588,ls),
(148,588,o),
(100,555,o),
(85,496,cs),
(68,431,o),
(109,384,o),
(181,384,cs)
);
},
{
closed = 1;
nodes = (
(160,442,o),
(140,461,o),
(147,490,cs),
(154,519,o),
(181,536,o),
(222,536,cs),
(311,536,l),
(308,526,ls),
(294,476,o),
(249,442,o),
(199,442,cs)
);
}
);
userData = {
com.schriftgestaltung.Glyphs.category = Letter;
com.schriftgestaltung.Glyphs.script = latin;
com.schriftgestaltung.Glyphs.subCategory = Lowercase;
};
width = 380;
}
);
unicode = 170;
},
{
glyphname = ordmasculine;
lastChange = "2024-05-09 07:28:52 +0000";
layers = (
{
background = {
shapes = (
{
closed = 1;
nodes = (
(313,378,o),
(398,446,o),
(426,555,cs),
(453,664,o),
(403,732,o),
(308,732,cs),
(214,732,o),
(128,662,o),
(102,555,cs),
(75,448,o),
(125,378,o),
(219,378,cs)
);
},
{
closed = 1;
nodes = (
(181,442,o),
(155,487,o),
(172,555,cs),
(189,625,o),
(238,668,o),
(292,668,cs),
(346,668,o),
(373,625,o),
(356,555,cs),
(339,487,o),
(289,442,o),
(235,442,cs)
);
}
);
};
layerId = "4683CC84-822E-4D29-9A51-72FC3DB48604";
shapes = (
{
closed = 1;
nodes = (
(321,378,o),
(397,444,o),
(423,546,cs),
(451,657,o),
(400,732,o),
(298,732,cs),
(206,732,o),
(129,666,o),
(104,565,cs),
(77,456,o),
(129,378,o),
(229,378,cs)
);
},
{
closed = 1;
nodes = (
(180,442,o),
(155,487,o),
(172,555,cs),
(189,623,o),
(237,668,o),
(292,668,cs),
(347,668,o),
(373,622,o),
(356,555,cs),
(339,488,o),
(290,442,o),
(235,442,cs)
);
}
);
userData = {
com.schriftgestaltung.Glyphs.category = Letter;
com.schriftgestaltung.Glyphs.script = latin;
com.schriftgestaltung.Glyphs.subCategory = Lowercase;
};
width = 400;
},
{
background = {
shapes = (
{
closed = 1;
nodes = (
(335,378,o),
(424,446,o),
(452,555,cs),
(479,664,o),
(425,732,o),
(318,732,cs),
(213,732,o),
(123,664,o),
(96,555,cs),
(69,448,o),
(123,378,o),
(229,378,cs)
);
},
{
closed = 1;
nodes = (
(219,478,o),
(198,508,o),
(210,555,cs),
(221,602,o),
(258,632,o),
(293,632,cs),
(331,632,o),
(349,602,o),
(338,555,cs),
(326,509,o),
(292,478,o),
(254,478,cs)
);
}
);
};
layerId = "FB8C5FF2-3B42-4CDF-AA26-B13980DDC748";
shapes = (
{
closed = 1;
nodes = (
(341,378,o),
(423,443,o),
(449,546,cs),
(478,658,o),
(423,732,o),
(308,732,cs),
(205,732,o),
(123,666,o),
(98,564,cs),
(70,454,o),
(128,378,o),
(239,378,cs)
);
},
{
closed = 1;
nodes = (
(218,478,o),
(200,510,o),
(210,555,cs),
(221,601,o),
(255,632,o),
(293,632,cs),
(331,632,o),
(350,601,o),
(338,555,cs),
(327,510,o),
(292,478,o),
(254,478,cs)
);
}
);
userData = {
com.schriftgestaltung.Glyphs.category = Letter;
com.schriftgestaltung.Glyphs.script = latin;
com.schriftgestaltung.Glyphs.subCategory = Lowercase;
};
width = 420;
}
);
unicode = 186;
},
{
glyphname = mu;
lastChange = "2024-05-08 14:48:24 +0000";
layers = (
{
background = {
shapes = (
{
closed = 1;
nodes = (
(45,-240,l),
(115,42,l),
(119,42,l),
(147,6,o),
(189,-11,o),
(239,-11,cs),
(321,-11,o),
(400,31,o),
(452,107,c),
(456,107,l),
(429,0,l),
(519,0,l),
(669,600,l),
(579,600,l),
(490,245,ls),
(464,141,o),
(380,71,o),
(280,71,cs),
(182,71,o),
(141,137,o),
(168,245,cs),
(257,600,l),
(167,600,l),
(-43,-240,l)
);
}
);
};
layerId = "4683CC84-822E-4D29-9A51-72FC3DB48604";
shapes = (
{
closed = 1;
nodes = (
(45,-240,l),
(115,42,l),
(119,42,l),
(147,6,o),
(189,-11,o),
(239,-11,cs),
(321,-11,o),
(400,31,o),
(452,107,c),
(456,107,l),
(429,0,l),
(519,0,l),
(669,600,l),
(579,600,l),
(490,245,ls),
(464,141,o),
(380,71,o),
(280,71,cs),
(182,71,o),
(141,137,o),
(168,245,cs),
(257,600,l),
(167,600,l),
(-43,-240,l)
);
}
);
width = 690;
},
{
background = {
shapes = (
{
closed = 1;
nodes = (
(107,-240,l),
(171,17,l),
(175,17,l),
(185,8,o),
(212,0,o),
(245,0,cs),
(297,0,o),
(360,25,o),
(409,90,c),
(413,90,l),
(391,0,l),
(565,0,l),
(715,600,l),
(535,600,l),
(455,279,ls),
(435,202,o),
(380,153,o),
(311,153,cs),
(246,153,o),
(220,197,o),
(239,273,cs),
(321,600,l),
(141,600,l),
(-69,-240,l)
);
}
);
};
layerId = "FB8C5FF2-3B42-4CDF-AA26-B13980DDC748";
shapes = (
{
closed = 1;
nodes = (
(107,-240,l),
(171,17,l),
(175,17,l),
(185,8,o),
(212,0,o),
(245,0,cs),
(297,0,o),
(360,25,o),
(409,90,c),
(413,90,l),
(391,0,l),
(565,0,l),
(715,600,l),
(535,600,l),
(455,279,ls),
(435,202,o),
(380,153,o),
(311,153,cs),
(246,153,o),
(220,197,o),
(239,273,cs),
(321,600,l),
(141,600,l),
(-69,-240,l)
);
}
);
width = 710;
}
);
unicode = 956;
},
{
glyphname = zero;
lastChange = "2024-05-08 18:53:48 +0000";
layers = (
{
background = {
shapes = (
{
closed = 1;
nodes = (
(427,-12,o),
(555,132,o),
(623,405,cs),
(691,678,o),
(635,822,o),
(460,822,cs),
(285,822,o),
(157,678,o),
(89,405,cs),
(21,132,o),
(77,-12,o),
(252,-12,cs)
);
},
{
closed = 1;
nodes = (
(154,70,o),
(123,182,o),
(179,405,cs),
(235,628,o),
(322,740,o),
(440,740,cs),
(558,740,o),
(589,628,o),
(533,405,cs),
(477,182,o),
(390,70,o),
(272,70,cs)
);
}
);
};
layerId = "4683CC84-822E-4D29-9A51-72FC3DB48604";
shapes = (
{
closed = 1;
nodes = (
(434,-12,o),
(553,123,o),
(621,396,cs),
(691,674,o),
(632,822,o),
(450,822,cs),
(283,822,o),
(157,676,o),
(89,405,cs),
(22,135,o),
(83,-12,o),
(262,-12,cs)
);
},
{
closed = 1;
nodes = (
(154,70,o),
(123,182,o),
(179,405,cs),
(235,628,o),
(322,740,o),
(440,740,cs),
(558,740,o),
(589,628,o),
(533,405,cs),
(477,182,o),
(390,70,o),
(272,70,cs)
);
}
);
userData = {
com.schriftgestaltung.Glyphs.category = Number;
com.schriftgestaltung.Glyphs.subCategory = "Decimal Digit";
};
width = 660;
},
{
background = {
shapes = (
{
closed = 1;
nodes = (
(440,-12,o),
(576,132,o),
(644,405,cs),
(712,678,o),
(648,822,o),
(460,822,cs),
(272,822,o),
(136,678,o),
(68,405,cs),
(0,132,o),
(64,-12,o),
(252,-12,cs)
);
},
{
closed = 1;
nodes = (
(215,142,o),
(202,221,o),
(248,405,cs),
(294,589,o),
(347,668,o),
(422,668,cs),
(497,668,o),
(510,589,o),
(464,405,cs),
(418,221,o),
(365,142,o),
(290,142,cs)
);
}
);
};
layerId = "FB8C5FF2-3B42-4CDF-AA26-B13980DDC748";
shapes = (
{
closed = 1;
nodes = (
(446,-12,o),
(575,126,o),
(642,396,cs),
(711,675,o),
(645,822,o),
(450,822,cs),
(267,822,o),
(136,681,o),
(70,414,cs),
(2,139,o),
(69,-12,o),
(262,-12,cs)
);
},
{
closed = 1;
nodes = (
(215,142,o),
(202,222,o),
(248,405,cs),
(294,588,o),
(347,668,o),
(422,668,cs),
(497,668,o),
(510,588,o),
(464,405,cs),
(418,222,o),
(365,142,o),
(290,142,cs)
);
}
);
userData = {
com.schriftgestaltung.Glyphs.category = Number;
com.schriftgestaltung.Glyphs.subCategory = "Decimal Digit";
};
width = 660;
}
);
unicode = 48;
},
{
glyphname = one;
lastChange = "2024-05-09 13:06:20 +0000";
layers = (
{
background = {
shapes = (
{
closed = 1;
nodes = (
(504,0,l),
(524,80,l),
(354,80,l),
(536,810,l),
(458,810,l),
(193,641,l),
(169,546,l),
(173,546,l),
(420,705,l),
(264,80,l),
(67,80,l),
(47,0,l)
);
}
);
};
layerId = "4683CC84-822E-4D29-9A51-72FC3DB48604";
shapes = (
{
closed = 1;
nodes = (
(504,0,l),
(524,80,l),
(354,80,l),
(536,810,l),
(458,810,l),
(193,641,l),
(168,542,l),
(172,542,l),
(419,701,l),
(264,80,l),
(67,80,l),
(47,0,l)
);
}
);
userData = {
com.schriftgestaltung.Glyphs.category = Number;
com.schriftgestaltung.Glyphs.subCategory = "Decimal Digit";
};
width = 660;
},
{
background = {
shapes = (
{
closed = 1;
nodes = (
(534,0,l),
(570,144,l),
(415,144,l),
(581,810,l),
(425,810,l),
(164,644,l),
(118,460,l),
(122,460,l),
(351,607,l),
(235,144,l),
(53,144,l),
(17,0,l)
);
}
);
};
guides = (
{
angle = 270;
pos = (274,366);
},
{
angle = 90;
pos = (454,471);
}
);
layerId = "FB8C5FF2-3B42-4CDF-AA26-B13980DDC748";
shapes = (
{
closed = 1;
nodes = (
(534,0,l),
(570,144,l),
(415,144,l),
(581,810,l),
(425,810,l),
(164,644,l),
(116,452,l),
(120,452,l),
(349,599,l),
(235,144,l),
(53,144,l),
(17,0,l)
);
}
);
userData = {
com.schriftgestaltung.Glyphs.category = Number;
com.schriftgestaltung.Glyphs.subCategory = "Decimal Digit";
};
width = 660;
}
);
unicode = 49;
},
